<?xml version="1.0" encoding="UTF-8" standalone="no"?>
<!-- Created with Inkscape (http://www.inkscape.org/) -->

<svg
   xmlns:dc="http://purl.org/dc/elements/1.1/"
   xmlns:cc="http://creativecommons.org/ns#"
   xmlns:rdf="http://www.w3.org/1999/02/22-rdf-syntax-ns#"
   xmlns:svg="http://www.w3.org/2000/svg"
   xmlns="http://www.w3.org/2000/svg"
   xmlns:sodipodi="http://sodipodi.sourceforge.net/DTD/sodipodi-0.dtd"
   xmlns:inkscape="http://www.inkscape.org/namespaces/inkscape"
   width="486.15381"
   height="396.02011"
   id="svg3703"
   version="1.1"
   inkscape:version="0.47 r22583"
   sodipodi:docname="laoslaser-logos-top.svg">
  <defs
     id="defs3705">
    <inkscape:perspective
       sodipodi:type="inkscape:persp3d"
       inkscape:vp_x="0 : 526.18109 : 1"
       inkscape:vp_y="0 : 1000 : 0"
       inkscape:vp_z="744.09448 : 526.18109 : 1"
       inkscape:persp3d-origin="372.04724 : 350.78739 : 1"
       id="perspective3711" />
    <inkscape:perspective
       id="perspective3696"
       inkscape:persp3d-origin="0.5 : 0.33333333 : 1"
       inkscape:vp_z="1 : 0.5 : 1"
       inkscape:vp_y="0 : 1000 : 0"
       inkscape:vp_x="0 : 0.5 : 1"
       sodipodi:type="inkscape:persp3d" />
  </defs>
  <sodipodi:namedview
     id="base"
     pagecolor="#ffffff"
     bordercolor="#666666"
     borderopacity="1.0"
     inkscape:pageopacity="0.0"
     inkscape:pageshadow="2"
     inkscape:zoom="1.4"
     inkscape:cx="410.38506"
     inkscape:cy="230.04617"
     inkscape:document-units="px"
     inkscape:current-layer="layer1"
     showgrid="false"
     inkscape:window-width="1263"
     inkscape:window-height="835"
     inkscape:window-x="269"
     inkscape:window-y="51"
     inkscape:window-maximized="0" />
  <metadata
     id="metadata3708">
    <rdf:RDF>
      <cc:Work
         rdf:about="">
        <dc:format>image/svg+xml</dc:format>
        <dc:type
           rdf:resource="http://purl.org/dc/dcmitype/StillImage" />
      </cc:Work>
    </rdf:RDF>
  </metadata>
  <g
     inkscape:label="Layer 1"
     inkscape:groupmode="layer"
     id="layer1"
     transform="translate(-132.38264,-334.35212)">
    <path
       style="fill:none;stroke:#000000;stroke-width:1;stroke-linecap:butt;stroke-linejoin:miter;stroke-miterlimit:4;stroke-opacity:1;stroke-dasharray:none"
       d="m 336.49235,518.42804 c -5.3348,2e-5 -9.5113,1.08041 -12.5,3.3125 -2.9887,2.23215 -4.4688,5.36837 -4.4687,9.375 0,1.16421 0.1259,2.24391 0.375,3.25 l -7.625,-15.125 -11.0313,0 -9.6875,19.1875 0,-0.6875 -15.8438,0 0,-18.5 -10.125,0 0,24.53125 23.2813,0 2.6875,0 7.6875,0 1.5937,-4.03125 11.5626,0 1.625,4.03125 10.5937,0 -2.625,-5.21875 c 1.4795,1.77228 3.3737,3.06615 5.6875,3.90625 2.4283,0.88168 5.4815,1.3125 9.1875,1.3125 3.6462,0 6.7126,-0.47881 9.1563,-1.5 2.2237,-0.92967 3.9786,-2.20758 5.25,-3.8125 0.615,1.09559 1.4538,2.08619 2.5937,2.9375 2.1518,1.60713 6.0361,2.375 11.625,2.375 3.1829,0 5.8139,-0.31361 7.9063,-1 2.0912,-0.68636 3.7405,-1.70315 4.9062,-3.03125 0.3171,-0.36137 0.5817,-0.74546 0.8125,-1.125 l 0,5.15625 26,0 6.8437,0 1.5938,-4.03125 11.5625,0 1.625,4.03125 10.625,0 -1.4063,-2.75 c 0.143,0.11723 0.2863,0.26205 0.4376,0.375 2.1511,1.60713 6.0357,2.375 11.625,2.375 3.1821,0 5.8141,-0.31361 7.9062,-1 2.0921,-0.68636 3.7094,-1.70315 4.875,-3.03125 0.3021,-0.3442 0.5887,-0.7018 0.8125,-1.0625 l 0,5.09375 27.6875,0 8.0312,0 0,-9.9375 0.9063,0 c 0.9265,0 1.7365,0.18305 2.4687,0.5625 0.5388,0.29019 1.1564,0.90403 1.8438,1.875 l 5.4375,7.5 11.5,0 8.3437,0 0,-4.3125 c 1.3349,1.31005 2.952,2.31311 4.8438,3 2.4283,0.88168 5.4815,1.3125 9.1875,1.3125 3.6462,0 6.7126,-0.47881 9.1563,-1.5 2.4429,-1.02119 4.301,-2.47657 5.5937,-4.3125 0.077,-0.10868 0.147,-0.20017 0.2187,-0.3125 l 0,6.125 10.1876,0 0,-9.9375 0.9062,0 c 0.9265,0 1.7677,0.18305 2.5,0.5625 0.5379,0.29019 1.1251,0.90403 1.8125,1.875 l 5.4375,7.5 11.4688,0 -4.9063,-7.09375 c -0.2391,-0.35713 -0.7277,-0.87276 -1.4375,-1.53125 -0.7098,-0.65846 -1.2201,-1.08037 -1.5938,-1.28125 -0.5525,-0.30134 -1.4458,-0.6049 -2.6562,-0.90625 1.5093,-0.25667 2.6958,-0.57814 3.5625,-0.96875 0.5597,-0.25264 1.0703,-0.55905 1.5313,-0.875 0,2.53682 0.6504,4.79066 2,6.75 1.3515,1.96427 3.2604,3.4442 5.7187,4.4375 2.4582,0.99328 5.6309,1.46875 9.5313,1.46875 3.1671,0 5.9099,-0.26006 8.2187,-0.8125 2.3087,-0.55245 4.9962,-1.59598 8,-3.125 l 0,-10.46875 -15.7187,0 0,5.125 6.8124,0 0,2.28125 c -1.3297,0.59152 -2.5314,1.03573 -3.5624,1.28125 -1.032,0.24555 -2.115,0.375 -3.25,0.375 -2.3919,0 -4.2564,-0.58037 -5.5938,-1.71875 -1.3375,-1.13837 -2,-3.03126 -2,-5.6875 0,-2.49996 0.646,-4.31362 1.9688,-5.46875 1.3216,-1.1551 3.117,-1.74997 5.3437,-1.75 1.4942,3e-5 2.7237,0.22771 3.6875,0.71875 0.9639,0.49109 1.6277,1.22994 2.0312,2.15625 l 9.8126,-1.3125 c -0.5987,-1.58477 -1.4995,-2.90513 -2.6876,-3.9375 -1.1873,-1.03233 -2.6985,-1.79017 -4.5,-2.28125 -1.7998,-0.49105 -4.4931,-0.71873 -8.125,-0.71875 -3.7649,2e-5 -6.7421,0.39512 -8.9687,1.1875 -2.718,0.97777 -4.8098,2.37573 -6.2813,4.21875 -0.2536,-0.64006 -0.6313,-1.22171 -1.125,-1.75 -1.0154,-1.08812 -2.3407,-1.84818 -4,-2.25 -1.6585,-0.40173 -4.0806,-0.59373 -7.2187,-0.59375 l -16.9063,0 0,5.28125 c -0.6929,-1.06958 -1.6092,-1.9901 -2.7187,-2.8125 -2.9589,-2.19303 -7.1869,-3.28123 -12.6563,-3.28125 -5.3342,2e-5 -9.5106,1.08041 -12.5,3.3125 -2.9882,2.23215 -4.4687,5.36837 -4.4687,9.375 0,2.23812 0.4873,4.19004 1.4063,5.84375 l -7.8438,0 0,4.78125 -3.5,-5.0625 c -0.2391,-0.35713 -0.6966,-0.87276 -1.4062,-1.53125 -0.7107,-0.65846 -1.2828,-1.08037 -1.6563,-1.28125 -0.553,-0.30134 -1.4146,-0.6049 -2.625,-0.90625 1.5093,-0.25667 2.6957,-0.57814 3.5625,-0.96875 1.3598,-0.61383 2.4104,-1.41851 3.1875,-2.40625 0.7771,-0.98768 1.1875,-2.16966 1.1875,-3.53125 0,-1.56247 -0.5151,-2.88056 -1.5312,-3.96875 -1.0171,-1.08812 -2.3726,-1.84818 -4.0313,-2.25 -1.6588,-0.40173 -4.0179,-0.59373 -7.1563,-0.59375 l -15.2812,0 -27.1875,0 0,13.03125 c -0.1125,-0.17028 -0.2422,-0.36688 -0.375,-0.53125 -0.8742,-1.08256 -2.2673,-1.9877 -4.1875,-2.71875 -1.9203,-0.731 -5.0932,-1.44195 -9.5312,-2.15625 -1.7935,-0.27898 -2.9281,-0.5826 -3.4063,-0.90625 -0.4932,-0.31249 -0.75,-0.67188 -0.75,-1.0625 0,-0.53569 0.3083,-1.00111 0.9063,-1.375 0.5969,-0.37387 1.4756,-0.53123 2.6562,-0.53125 1.4345,2e-5 2.5606,0.24777 3.375,0.75 0.8144,0.50223 1.3709,1.30137 1.625,2.40625 l 9.5625,-0.4375 c -0.4185,-2.5446 -1.7646,-4.39618 -3.9687,-5.5625 -2.205,-1.16627 -5.3635,-1.71873 -9.5626,-1.71875 -3.4221,2e-5 -6.1286,0.29579 -8.0937,0.9375 -1.9651,0.64176 -3.4275,1.53463 -4.4063,2.65625 -0.978,1.12166 -1.4687,2.30138 -1.4687,3.5625 0,1.91963 0.9309,3.51118 2.8437,4.75 1.8986,1.23884 5.0782,2.22099 9.5313,2.96875 2.7198,0.44642 4.4718,0.90403 5.2187,1.40625 0.7473,0.50223 1.0938,1.08261 1.0938,1.71875 0,0.66964 -0.3718,1.27346 -1.1562,1.78125 -0.7853,0.50781 -1.8943,0.75001 -3.3438,0.75 -1.9427,10e-6 -3.4539,-0.50669 -4.5,-1.5 -0.6425,-0.61383 -1.072,-1.48437 -1.2812,-2.65625 l -9.3438,0.4375 -8.0312,-16 -11.0938,0 -9.3125,18.5 -15.3437,0 0,-18.5 -10.1563,0 0,13.0625 c -0.1192,-0.18323 -0.2638,-0.38608 -0.4063,-0.5625 -0.8734,-1.08256 -2.236,-1.9877 -4.1562,-2.71875 -1.9203,-0.731 -5.0932,-1.44195 -9.5312,-2.15625 -1.7935,-0.27898 -2.9281,-0.5826 -3.4063,-0.90625 -0.4931,-0.31249 -0.75,-0.67188 -0.75,-1.0625 0,-0.53569 0.2772,-1.00111 0.875,-1.375 0.5977,-0.37387 1.4757,-0.53123 2.6563,-0.53125 1.4338,2e-5 2.5917,0.24777 3.4062,0.75 0.8144,0.50223 1.3394,1.30137 1.5938,2.40625 l 9.5624,-0.4375 c -0.4176,-2.5446 -1.702,-4.39618 -3.9062,-5.5625 -2.2042,-1.16627 -5.4259,-1.71873 -9.625,-1.71875 -3.4221,2e-5 -6.0974,0.29579 -8.0625,0.9375 -1.9651,0.64176 -3.4587,1.53463 -4.4375,2.65625 -0.6316,0.72377 -1.0572,1.46813 -1.2812,2.25 -0.6676,-0.95999 -1.5156,-1.80965 -2.5313,-2.5625 -2.9588,-2.19303 -7.1557,-3.28123 -12.625,-3.28125 z m -0.031,5.71875 c 2.137,2e-5 3.8147,0.52794 5.0626,1.59375 1.2475,1.06586 1.9062,2.75228 1.9062,5.0625 0,2.74552 -0.617,4.65851 -1.8125,5.71875 -1.1955,1.06027 -2.8808,1.59376 -5.0625,1.59375 -2.122,10e-6 -3.7985,-0.54242 -5.0312,-1.625 -1.2328,-1.08256 -1.8439,-2.86608 -1.8438,-5.34375 -1e-4,-2.49999 0.6346,-4.29241 1.875,-5.375 1.2403,-1.08256 2.859,-1.62498 4.9062,-1.625 z m 205,0 c 2.1373,2e-5 3.8148,0.52794 5.0626,1.59375 1.2474,1.06586 1.8747,2.75228 1.875,5.0625 0,2.74552 -0.5858,4.65851 -1.7813,5.71875 -1.1955,1.06027 -2.8808,1.59376 -5.0625,1.59375 -2.122,10e-6 -3.8297,-0.54242 -5.0625,-1.625 -1.2329,-1.08256 -1.8438,-2.86608 -1.8437,-5.34375 0,-2.49999 0.6343,-4.29241 1.875,-5.375 1.24,-1.08256 2.8901,-1.62498 4.9374,-1.625 z m -44.125,0.0625 4.4688,0 c 1.8529,10e-6 3.1089,0.20093 3.7812,0.625 0.6731,0.42414 1.0313,1.05135 1.0313,1.84375 0,0.53571 -0.2303,0.99332 -0.6563,1.40625 -0.4257,0.41294 -0.9521,0.68083 -1.625,0.78125 -1.3297,0.22323 -2.2555,0.34377 -2.7187,0.34375 l -4.2813,0 0,-5 z m 69.6876,0 4.4687,0 c 1.853,10e-6 3.1087,0.20093 3.7813,0.625 0.6721,0.42414 0.9997,1.05135 1,1.84375 0,0.53571 -0.1993,0.99332 -0.625,1.40625 -0.4263,0.41294 -0.9839,0.68083 -1.6563,0.78125 -1.33,0.22323 -2.2242,0.34377 -2.6875,0.34375 l -4.2812,0 0,-5 z m -95.25,0.28125 15.375,0 0,3.90625 -15.375,0 0,-3.90625 z m -165.125,1.125 3.625,8.8125 -7.2188,0 3.5938,-8.8125 z m 112.6874,0 3.625,8.8125 -7.2187,0 3.5937,-8.8125 z m -65.8437,4.09375 c 0.2538,0.21197 0.5425,0.42989 0.8437,0.625 1.898,1.23885 5.0781,2.22099 9.5313,2.96875 2.7197,0.44642 4.4403,0.90403 5.1875,1.40625 0.7472,0.50225 1.125,1.0826 1.125,1.71875 0,0.66964 -0.3718,1.27346 -1.1562,1.78125 -0.7847,0.50782 -1.9257,0.75002 -3.375,0.75 -1.943,2e-5 -3.4228,-0.5067 -4.4688,-1.5 -0.6426,-0.61381 -1.072,-1.48437 -1.2812,-2.65625 l -6.9066,0.3125 c 0.3784,-1.24959 0.5625,-2.63572 0.5625,-4.1875 0,-0.4116 -0.031,-0.82623 -0.062,-1.21875 z m 118.2813,3.6875 15.375,0 0,4.84375 -15.375,0 0,-4.84375 z"
       id="path2888-7" />
  </g>
</svg>
