999
DXF created by Inkscape
  0
SECTION
  2
HEADER
  9
$ACADVER
  1
AC1014
  9
$HANDSEED
  5
FFFF
  9
$MEASUREMENT
 70
     1
  0
ENDSEC
  0
SECTION
  2
TABLES
  0
TABLE
  2
VPORT
  5
8
330
0
100
AcDbSymbolTable
 70
     4
  0
VPORT
  5
2E
330
8
100
AcDbSymbolTableRecord
100
AcDbViewportTableRecord
  2
*ACTIVE
 70
     0
 10
0.0
 20
0.0
 11
1.0
 21
1.0
 12
210.0
 22
148.5
 13
0.0
 23
0.0
 14
10.0
 24
10.0
 15
10.0
 25
10.0
 16
0.0
 26
0.0
 36
1.0
 17
0.0
 27
0.0
 37
0.0
 40
341.0
 41
1.24
 42
50.0
 43
0.0
 44
0.0
 50
0.0
 51
0.0
 71
     0
 72
   100
 73
     1
 74
     3
 75
     0
 76
     0
 77
     0
 78
     0
  0
ENDTAB
  0
TABLE
  2
LTYPE
  5
5
330
0
100
AcDbSymbolTable
 70
     1
  0
LTYPE
  5
14
330
5
100
AcDbSymbolTableRecord
100
AcDbLinetypeTableRecord
  2
BYBLOCK
 70
     0
  3

 72
    65
 73
     0
 40
0.0
  0
LTYPE
  5
15
330
5
100
AcDbSymbolTableRecord
100
AcDbLinetypeTableRecord
  2
BYLAYER
 70
     0
  3

 72
    65
 73
     0
 40
0.0
  0
LTYPE
  5
16
330
5
100
AcDbSymbolTableRecord
100
AcDbLinetypeTableRecord
  2
CONTINUOUS
 70
     0
  3
Solid line
 72
    65
 73
     0
 40
0.0
  0
ENDTAB
  0
TABLE
  2
LAYER
  5
2
330
0
100
AcDbSymbolTable
 70
1
  0
LAYER
  5
10
330
2
100
AcDbSymbolTableRecord
100
AcDbLayerTableRecord
  2
0
 70
     0
 62
     7
  6
CONTINUOUS
  0
ENDTAB
  0
TABLE
  2
STYLE
  5
3
330
0
100
AcDbSymbolTable
 70
     1
  0
STYLE
  5
11
330
3
100
AcDbSymbolTableRecord
100
AcDbTextStyleTableRecord
  2
STANDARD
 70
     0
 40
0.0
 41
1.0
 50
0.0
 71
     0
 42
2.5
  3
txt
  4

  0
ENDTAB
  0
TABLE
  2
VIEW
  5
6
330
0
100
AcDbSymbolTable
 70
     0
  0
ENDTAB
  0
TABLE
  2
UCS
  5
7
330
0
100
AcDbSymbolTable
 70
     0
  0
ENDTAB
  0
TABLE
  2
APPID
  5
9
330
0
100
AcDbSymbolTable
 70
     2
  0
APPID
  5
12
330
9
100
AcDbSymbolTableRecord
100
AcDbRegAppTableRecord
  2
ACAD
 70
     0
  0
ENDTAB
  0
TABLE
  2
DIMSTYLE
  5
A
330
0
100
AcDbSymbolTable
 70
     1
  0
DIMSTYLE
105
27
330
A
100
AcDbSymbolTableRecord
100
AcDbDimStyleTableRecord
  2
ISO-25
 70
     0
  3

  4

  5

  6

  7

 40
1.0
 41
2.5
 42
0.625
 43
3.75
 44
1.25
 45
0.0
 46
0.0
 47
0.0
 48
0.0
140
2.5
141
2.5
142
0.0
143
0.03937007874016
144
1.0
145
0.0
146
1.0
147
0.625
 71
     0
 72
     0
 73
     0
 74
     0
 75
     0
 76
     0
 77
     1
 78
     8
170
     0
171
     3
172
     1
173
     0
174
     0
175
     0
176
     0
177
     0
178
     0
270
     2
271
     2
272
     2
273
     2
274
     3
340
11
275
     0
280
     0
281
     0
282
     0
283
     0
284
     8
285
     0
286
     0
287
     3
288
     0
  0
ENDTAB
  0
TABLE
  2
BLOCK_RECORD
  5
1
330
0
100
AcDbSymbolTable
 70
     1
  0
BLOCK_RECORD
  5
1F
330
1
100
AcDbSymbolTableRecord
100
AcDbBlockTableRecord
  2
*MODEL_SPACE
  0
BLOCK_RECORD
  5
1B
330
1
100
AcDbSymbolTableRecord
100
AcDbBlockTableRecord
  2
*PAPER_SPACE
  0
ENDTAB
  0
ENDSEC
  0
SECTION
  2
BLOCKS
  0
BLOCK
  5
20
330
1F
100
AcDbEntity
  8
0
100
AcDbBlockBegin
  2
*MODEL_SPACE
 70
     0
 10
0.0
 20
0.0
 30
0.0
  3
*MODEL_SPACE
  1

  0
ENDBLK
  5
21
330
1F
100
AcDbEntity
  8
0
100
AcDbBlockEnd
  0
BLOCK
  5
1C
330
1B
100
AcDbEntity
 67
     1
  8
0
100
AcDbBlockBegin
  2
*PAPER_SPACE
  1

  0
ENDBLK
  5
1D
330
1B
100
AcDbEntity
 67
     1
  8
0
100
AcDbBlockEnd
  0
ENDSEC
  0
SECTION
  2
ENTITIES
  0
LWPOLYLINE
  5
100
100
AcDbEntity
  8
0
 62
7
100
AcDbPolyline
 90
363
 70
0
 10
94.965619
 20
-34.546238
 30
0.0
 10
93.897843
 20
-34.603726
 30
0.0
 10
92.953434
 20
-34.777441
 30
0.0
 10
92.133173
 20
-35.069270
 30
0.0
 10
91.437841
 20
-35.481099
 30
0.0
 10
91.141479
 20
-35.729277
 30
0.0
 10
90.884938
 20
-36.001263
 30
0.0
 10
90.668124
 20
-36.296947
 30
0.0
 10
90.490943
 20
-36.616217
 30
0.0
 10
90.353302
 20
-36.958962
 30
0.0
 10
90.255106
 20
-37.325070
 30
0.0
 10
90.176675
 20
-38.126932
 30
0.0
 10
90.203228
 20
-38.602278
 30
0.0
 10
90.282508
 20
-39.044155
 30
0.0
 10
88.130563
 20
-34.775544
 30
0.0
 10
85.017285
 20
-34.775544
 30
0.0
 10
82.283258
 20
-40.190682
 30
0.0
 10
82.283258
 20
-39.996655
 30
0.0
 10
77.811785
 20
-39.996655
 30
0.0
 10
77.811785
 20
-34.775544
 30
0.0
 10
74.954285
 20
-34.775544
 30
0.0
 10
74.954285
 20
-41.698807
 30
0.0
 10
81.524785
 20
-41.698807
 30
0.0
 10
82.283258
 20
-41.698807
 30
0.0
 10
84.452841
 20
-41.698807
 30
0.0
 10
84.902619
 20
-40.561099
 30
0.0
 10
88.165841
 20
-40.561099
 30
0.0
 10
88.624452
 20
-41.698807
 30
0.0
 10
91.614230
 20
-41.698807
 30
0.0
 10
90.873397
 20
-40.225960
 30
0.0
 10
91.208524
 20
-40.575886
 30
0.0
 10
91.587669
 20
-40.875831
 30
0.0
 10
92.010963
 20
-41.126449
 30
0.0
 10
92.478535
 20
-41.328391
 30
0.0
 10
93.025716
 20
-41.491243
 30
0.0
 10
93.639771
 20
-41.606910
 30
0.0
 10
94.321436
 20
-41.675922
 30
0.0
 10
95.071452
 20
-41.698807
 30
0.0
 10
95.812361
 20
-41.673190
 30
0.0
 10
96.490772
 20
-41.595217
 30
0.0
 10
97.105552
 20
-41.463205
 30
0.0
 10
97.655563
 20
-41.275474
 30
0.0
 10
98.101374
 20
-41.060360
 30
0.0
 10
98.497182
 20
-40.808952
 30
0.0
 10
98.842597
 20
-40.521812
 30
0.0
 10
99.137230
 20
-40.199502
 30
0.0
 10
99.447678
 20
-40.639869
 30
0.0
 10
99.869230
 20
-41.028530
 30
0.0
 10
100.416249
 20
-41.324610
 30
0.0
 10
101.145887
 20
-41.533757
 30
0.0
 10
102.057404
 20
-41.657860
 30
0.0
 10
103.150063
 20
-41.698807
 30
0.0
 10
104.381141
 20
-41.630339
 30
0.0
 10
104.909946
 20
-41.542406
 30
0.0
 10
105.381397
 20
-41.416585
 30
0.0
 10
105.800466
 20
-41.253905
 30
0.0
 10
106.171665
 20
-41.056760
 30
0.0
 10
106.493889
 20
-40.825656
 30
0.0
 10
106.766035
 20
-40.561099
 30
0.0
 10
106.995341
 20
-40.243599
 30
0.0
 10
106.995341
 20
-41.698807
 30
0.0
 10
114.333119
 20
-41.698807
 30
0.0
 10
116.264563
 20
-41.698807
 30
0.0
 10
116.714369
 20
-40.561099
 30
0.0
 10
119.977563
 20
-40.561099
 30
0.0
 10
120.436174
 20
-41.698807
 30
0.0
 10
123.434785
 20
-41.698807
 30
0.0
 10
123.037896
 20
-40.922696
 30
0.0
 10
123.161397
 20
-41.028530
 30
0.0
 10
123.708317
 20
-41.324610
 30
0.0
 10
124.437937
 20
-41.533757
 30
0.0
 10
125.349496
 20
-41.657860
 30
0.0
 10
126.442230
 20
-41.698807
 30
0.0
 10
127.673241
 20
-41.630339
 30
0.0
 10
128.202093
 20
-41.542406
 30
0.0
 10
128.673535
 20
-41.416585
 30
0.0
 10
129.091340
 20
-41.253905
 30
0.0
 10
129.459507
 20
-41.056760
 30
0.0
 10
129.778646
 20
-40.825656
 30
0.0
 10
130.049369
 20
-40.561099
 30
0.0
 10
130.278674
 20
-40.261238
 30
0.0
 10
130.278674
 20
-41.698807
 30
0.0
 10
138.092702
 20
-41.698807
 30
0.0
 10
140.359285
 20
-41.698807
 30
0.0
 10
140.359285
 20
-38.894224
 30
0.0
 10
140.615063
 20
-38.894224
 30
0.0
 10
140.983988
 20
-38.933441
 30
0.0
 10
141.311785
 20
-39.052974
 30
0.0
 10
141.556239
 20
-39.245508
 30
0.0
 10
141.832147
 20
-39.582141
 30
0.0
 10
143.366730
 20
-41.698807
 30
0.0
 10
146.612285
 20
-41.698807
 30
0.0
 10
148.967063
 20
-41.698807
 30
0.0
 10
148.967063
 20
-40.481724
 30
0.0
 10
149.264517
 20
-40.742733
 30
0.0
 10
149.591638
 20
-40.971009
 30
0.0
 10
149.948229
 20
-41.166309
 30
0.0
 10
150.334091
 20
-41.328391
 30
0.0
 10
150.881272
 20
-41.491243
 30
0.0
 10
151.495326
 20
-41.606910
 30
0.0
 10
152.176992
 20
-41.675922
 30
0.0
 10
152.927008
 20
-41.698807
 30
0.0
 10
153.667916
 20
-41.673190
 30
0.0
 10
154.346328
 20
-41.595217
 30
0.0
 10
154.961107
 20
-41.463205
 30
0.0
 10
155.511119
 20
-41.275474
 30
0.0
 10
155.997339
 20
-41.036583
 30
0.0
 10
156.422182
 20
-40.753159
 30
0.0
 10
156.786159
 20
-40.426622
 30
0.0
 10
157.089785
 20
-40.058391
 30
0.0
 10
157.151507
 20
-39.970196
 30
0.0
 10
157.151507
 20
-41.698807
 30
0.0
 10
160.026675
 20
-41.698807
 30
0.0
 10
160.026675
 20
-38.894224
 30
0.0
 10
160.282424
 20
-38.894224
 30
0.0
 10
160.655755
 20
-38.933441
 30
0.0
 10
160.987980
 20
-39.052974
 30
0.0
 10
161.227922
 20
-39.245508
 30
0.0
 10
161.499508
 20
-39.582141
 30
0.0
 10
163.034091
 20
-41.698807
 30
0.0
 10
166.270841
 20
-41.698807
 30
0.0
 10
164.886174
 20
-39.696794
 30
0.0
 10
164.480480
 20
-39.264641
 30
0.0
 10
164.030674
 20
-38.903044
 30
0.0
 10
163.725483
 20
-38.775163
 30
0.0
 10
163.281035
 20
-38.647280
 30
0.0
 10
163.851752
 20
-38.524754
 30
0.0
 10
164.286452
 20
-38.373877
 30
0.0
 10
164.718619
 20
-38.126932
 30
0.0
 10
164.753251
 20
-38.648868
 30
0.0
 10
164.858009
 20
-39.140549
 30
0.0
 10
165.034182
 20
-39.601672
 30
0.0
 10
165.283063
 20
-40.031932
 30
0.0
 10
165.598591
 20
-40.422063
 30
0.0
 10
165.972899
 20
-40.760874
 30
0.0
 10
166.405775
 20
-41.048304
 30
0.0
 10
166.897008
 20
-41.284294
 30
0.0
 10
167.455194
 20
-41.467324
 30
0.0
 10
168.089347
 20
-41.596673
 30
0.0
 10
168.799817
 20
-41.673460
 30
0.0
 10
169.586952
 20
-41.698807
 30
0.0
 10
170.837539
 20
-41.642621
 30
0.0
 10
171.906452
 20
-41.469502
 30
0.0
 10
172.961776
 20
-41.131883
 30
0.0
 10
174.164230
 20
-40.587557
 30
0.0
 10
174.164230
 20
-37.633044
 30
0.0
 10
169.728063
 20
-37.633044
 30
0.0
 10
169.728063
 20
-39.079432
 30
0.0
 10
171.650674
 20
-39.079432
 30
0.0
 10
171.650674
 20
-39.723252
 30
0.0
 10
171.116367
 20
-39.940669
 30
0.0
 10
170.645286
 20
-40.084849
 30
0.0
 10
170.197575
 20
-40.163753
 30
0.0
 10
169.728063
 20
-40.190682
 30
0.0
 10
169.249685
 20
-40.160070
 30
0.0
 10
168.827115
 20
-40.068626
 30
0.0
 10
168.460345
 20
-39.916943
 30
0.0
 10
168.149369
 20
-39.705613
 30
0.0
 10
167.901928
 20
-39.424692
 30
0.0
 10
167.725594
 20
-39.063685
 30
0.0
 10
167.620037
 20
-38.622357
 30
0.0
 10
167.584924
 20
-38.100474
 30
0.0
 10
167.619244
 20
-37.607510
 30
0.0
 10
167.722748
 20
-37.186445
 30
0.0
 10
167.896249
 20
-36.836544
 30
0.0
 10
168.140563
 20
-36.557071
 30
0.0
 10
168.445187
 20
-36.342373
 30
0.0
 10
168.798829
 20
-36.187882
 30
0.0
 10
169.200367
 20
-36.094513
 30
0.0
 10
169.648674
 20
-36.063182
 30
0.0
 10
170.225156
 20
-36.112641
 30
0.0
 10
170.689369
 20
-36.266030
 30
0.0
 10
171.035303
 20
-36.524240
 30
0.0
 10
171.262619
 20
-36.874571
 30
0.0
 10
174.031952
 20
-36.504155
 30
0.0
 10
173.715080
 20
-35.890067
 30
0.0
 10
173.509665
 20
-35.626558
 30
0.0
 10
173.273452
 20
-35.392905
 30
0.0
 10
173.005149
 20
-35.188886
 30
0.0
 10
172.703455
 20
-35.013713
 30
0.0
 10
172.003452
 20
-34.749085
 30
0.0
 10
171.050821
 20
-34.595694
 30
0.0
 10
169.710396
 20
-34.546238
 30
0.0
 10
168.955011
 20
-34.567158
 30
0.0
 10
168.282010
 20
-34.629949
 30
0.0
 10
167.690410
 20
-34.734670
 30
0.0
 10
167.179230
 20
-34.881377
 30
0.0
 10
166.637030
 20
-35.110683
 30
0.0
 10
166.160947
 20
-35.385117
 30
0.0
 10
165.750825
 20
-35.705337
 30
0.0
 10
165.406507
 20
-36.072002
 30
0.0
 10
165.273168
 20
-35.813228
 30
0.0
 10
165.089007
 20
-35.578113
 30
0.0
 10
164.857576
 20
-35.365287
 30
0.0
 10
164.592709
 20
-35.187980
 30
0.0
 10
164.293769
 20
-35.046989
 30
0.0
 10
163.960119
 20
-34.943113
 30
0.0
 10
163.098071
 20
-34.816814
 30
0.0
 10
161.922841
 20
-34.775544
 30
0.0
 10
157.151507
 20
-34.775544
 30
0.0
 10
157.151507
 20
-36.266030
 30
0.0
 10
156.811959
 20
-35.842995
 30
0.0
 10
156.384230
 20
-35.472280
 30
0.0
 10
155.690895
 20
-35.066479
 30
0.0
 10
154.863980
 20
-34.777165
 30
0.0
 10
153.904218
 20
-34.603899
 30
0.0
 10
152.812341
 20
-34.546238
 30
0.0
 10
151.744664
 20
-34.603726
 30
0.0
 10
150.800294
 20
-34.777441
 30
0.0
 10
149.980003
 20
-35.069270
 30
0.0
 10
149.284563
 20
-35.481099
 30
0.0
 10
148.988242
 20
-35.729277
 30
0.0
 10
148.731723
 20
-36.001263
 30
0.0
 10
148.514915
 20
-36.296947
 30
0.0
 10
148.337729
 20
-36.616217
 30
0.0
 10
148.200073
 20
-36.958962
 30
0.0
 10
148.101860
 20
-37.325070
 30
0.0
 10
148.023397
 20
-38.126932
 30
0.0
 10
148.048938
 20
-38.585470
 30
0.0
 10
148.124580
 20
-39.013401
 30
0.0
 10
148.248853
 20
-39.410406
 30
0.0
 10
148.420286
 20
-39.776169
 30
0.0
 10
146.206591
 20
-39.776169
 30
0.0
 10
146.206591
 20
-41.125544
 30
0.0
 10
145.218813
 20
-39.696794
 30
0.0
 10
144.821952
 20
-39.264641
 30
0.0
 10
144.354508
 20
-38.903044
 30
0.0
 10
144.053666
 20
-38.775163
 30
0.0
 10
143.613674
 20
-38.647280
 30
0.0
 10
144.184381
 20
-38.524754
 30
0.0
 10
144.619091
 20
-38.373877
 30
0.0
 10
145.130552
 20
-38.073900
 30
0.0
 10
145.518674
 20
-37.694780
 30
0.0
 10
145.663563
 20
-37.475504
 30
0.0
 10
145.768487
 20
-37.236053
 30
0.0
 10
145.832289
 20
-36.976817
 30
0.0
 10
145.853813
 20
-36.698182
 30
0.0
 10
145.826618
 20
-36.380328
 30
0.0
 10
145.745281
 20
-36.087953
 30
0.0
 10
145.610176
 20
-35.820676
 30
0.0
 10
145.421675
 20
-35.578113
 30
0.0
 10
145.188637
 20
-35.365287
 30
0.0
 10
144.920716
 20
-35.187980
 30
0.0
 10
144.618844
 20
-35.046989
 30
0.0
 10
144.283952
 20
-34.943113
 30
0.0
 10
143.430710
 20
-34.816814
 30
0.0
 10
142.264285
 20
-34.775544
 30
0.0
 10
137.951591
 20
-34.775544
 30
0.0
 10
130.278674
 20
-34.775544
 30
0.0
 10
130.278674
 20
-38.453252
 30
0.0
 10
130.172841
 20
-38.303321
 30
0.0
 10
129.960307
 20
-38.083553
 30
0.0
 10
129.692640
 20
-37.882474
 30
0.0
 10
128.991035
 20
-37.536030
 30
0.0
 10
127.912534
 20
-37.229991
 30
0.0
 10
126.301119
 20
-36.927488
 30
0.0
 10
125.681250
 20
-36.804334
 30
0.0
 10
125.339785
 20
-36.671724
 30
0.0
 10
125.181755
 20
-36.530062
 30
0.0
 10
125.128119
 20
-36.371863
 30
0.0
 10
125.192719
 20
-36.160711
 30
0.0
 10
125.383897
 20
-35.983807
 30
0.0
 10
125.696941
 20
-35.869276
 30
0.0
 10
126.133535
 20
-35.833877
 30
0.0
 10
126.675413
 20
-35.886560
 30
0.0
 10
127.086035
 20
-36.045544
 30
0.0
 10
127.244573
 20
-36.167599
 30
0.0
 10
127.374639
 20
-36.321312
 30
0.0
 10
127.544647
 20
-36.724641
 30
0.0
 10
130.243397
 20
-36.601169
 30
0.0
 10
130.106035
 20
-36.099200
 30
0.0
 10
129.872345
 20
-35.670370
 30
0.0
 10
129.544166
 20
-35.314474
 30
0.0
 10
129.123341
 20
-35.031307
 30
0.0
 10
128.605776
 20
-34.816657
 30
0.0
 10
127.984994
 20
-34.665345
 30
0.0
 10
127.258692
 20
-34.575746
 30
0.0
 10
126.424563
 20
-34.546238
 30
0.0
 10
125.128253
 20
-34.610617
 30
0.0
 10
124.595406
 20
-34.693077
 30
0.0
 10
124.140341
 20
-34.810821
 30
0.0
 10
123.750912
 20
-34.959850
 30
0.0
 10
123.414180
 20
-35.134863
 30
0.0
 10
123.129639
 20
-35.335268
 30
0.0
 10
122.896785
 20
-35.560474
 30
0.0
 10
122.715577
 20
-35.801067
 30
0.0
 10
122.586030
 20
-36.048423
 30
0.0
 10
122.508237
 20
-36.303158
 30
0.0
 10
122.482285
 20
-36.565891
 30
0.0
 10
122.531770
 20
-36.954743
 30
0.0
 10
122.681125
 20
-37.308221
 30
0.0
 10
122.931699
 20
-37.625673
 30
0.0
 10
123.284841
 20
-37.906446
 30
0.0
 10
123.754464
 20
-38.155183
 30
0.0
 10
124.359462
 20
-38.377343
 30
0.0
 10
125.099635
 20
-38.573516
 30
0.0
 10
125.974785
 20
-38.744294
 30
0.0
 10
126.920001
 20
-38.936826
 30
0.0
 10
127.447619
 20
-39.141169
 30
0.0
 10
127.681055
 20
-39.369531
 30
0.0
 10
127.756313
 20
-39.626238
 30
0.0
 10
127.676176
 20
-39.894721
 30
0.0
 10
127.430008
 20
-40.128946
 30
0.0
 10
127.028455
 20
-40.288524
 30
0.0
 10
126.486313
 20
-40.340613
 30
0.0
 10
126.098090
 20
-40.313890
 30
0.0
 10
125.756423
 20
-40.234073
 30
0.0
 10
125.462201
 20
-40.101692
 30
0.0
 10
125.216313
 20
-39.917280
 30
0.0
 10
124.989664
 20
-39.601514
 30
0.0
 10
124.854730
 20
-39.167627
 30
0.0
 10
122.217702
 20
-39.291099
 30
0.0
 10
119.951119
 20
-34.775544
 30
0.0
 10
116.820202
 20
-34.775544
 30
0.0
 10
114.192008
 20
-39.996655
 30
0.0
 10
109.861675
 20
-39.996655
 30
0.0
 10
109.861675
 20
-34.775544
 30
0.0
 10
106.995341
 20
-34.775544
 30
0.0
 10
106.995341
 20
-38.462071
 30
0.0
 10
106.880674
 20
-38.303321
 30
0.0
 10
106.669616
 20
-38.083553
 30
0.0
 10
106.404974
 20
-37.882474
 30
0.0
 10
105.707702
 20
-37.536030
 30
0.0
 10
104.629200
 20
-37.229991
 30
0.0
 10
103.017786
 20
-36.927488
 30
0.0
 10
102.397916
 20
-36.804334
 30
0.0
 10
102.056452
 20
-36.671724
 30
0.0
 10
101.898432
 20
-36.530062
 30
0.0
 10
101.844785
 20
-36.371863
 30
0.0
 10
101.904990
 20
-36.160711
 30
0.0
 10
102.091730
 20
-35.983807
 30
0.0
 10
102.404873
 20
-35.869276
 30
0.0
 10
102.841397
 20
-35.833877
 30
0.0
 10
103.387592
 20
-35.886560
 30
0.0
 10
103.802702
 20
-36.045544
 30
0.0
 10
103.959852
 20
-36.167599
 30
0.0
 10
104.086872
 20
-36.321312
 30
0.0
 10
104.252508
 20
-36.724641
 30
0.0
 10
106.951230
 20
-36.601169
 30
0.0
 10
106.816736
 20
-36.099200
 30
0.0
 10
106.589103
 20
-35.670370
 30
0.0
 10
106.266930
 20
-35.314474
 30
0.0
 10
105.848813
 20
-35.031307
 30
0.0
 10
105.328592
 20
-34.816657
 30
0.0
 10
104.701746
 20
-34.665345
 30
0.0
 10
103.969336
 20
-34.575746
 30
0.0
 10
103.132424
 20
-34.546238
 30
0.0
 10
101.840517
 20
-34.610617
 30
0.0
 10
101.310697
 20
-34.693077
 30
0.0
 10
100.857008
 20
-34.810821
 30
0.0
 10
100.466203
 20
-34.959850
 30
0.0
 10
100.126444
 20
-35.134863
 30
0.0
 10
99.838876
 20
-35.335268
 30
0.0
 10
99.604647
 20
-35.560474
 30
0.0
 10
99.380717
 20
-35.871825
 30
0.0
 10
99.243063
 20
-36.195474
 30
0.0
 10
98.922709
 20
-35.811955
 30
0.0
 10
98.528674
 20
-35.472280
 30
0.0
 10
97.836728
 20
-35.066479
 30
0.0
 10
97.012841
 20
-34.777165
 30
0.0
 10
96.056107
 20
-34.603899
 30
0.0
 10
94.965619
 20
-34.546238
 30
0.0
 10
94.965619
 20
-34.546238
 30
0.0
  0
LWPOLYLINE
  5
101
100
AcDbEntity
  8
0
 62
7
100
AcDbPolyline
 90
34
 70
0
 10
94.956870
 20
-36.160196
 30
0.0
 10
95.385027
 20
-36.188179
 30
0.0
 10
95.765355
 20
-36.272296
 30
0.0
 10
96.098636
 20
-36.412811
 30
0.0
 10
96.385648
 20
-36.609988
 30
0.0
 10
96.618237
 20
-36.868447
 30
0.0
 10
96.786661
 20
-37.192668
 30
0.0
 10
96.889072
 20
-37.582737
 30
0.0
 10
96.923620
 20
-38.038738
 30
0.0
 10
96.891140
 20
-38.575729
 30
0.0
 10
96.794380
 20
-39.024076
 30
0.0
 10
96.634358
 20
-39.383243
 30
0.0
 10
96.412092
 20
-39.652696
 30
0.0
 10
96.133097
 20
-39.849215
 30
0.0
 10
95.802090
 20
-39.989805
 30
0.0
 10
95.418897
 20
-40.074289
 30
0.0
 10
94.983342
 20
-40.102488
 30
0.0
 10
94.557753
 20
-40.073796
 30
0.0
 10
94.179267
 20
-39.987757
 30
0.0
 10
93.847839
 20
-39.844430
 30
0.0
 10
93.563426
 20
-39.643877
 30
0.0
 10
93.335335
 20
-39.377673
 30
0.0
 10
93.172763
 20
-39.037464
 30
0.0
 10
93.075432
 20
-38.623430
 30
0.0
 10
93.043065
 20
-38.135752
 30
0.0
 10
93.076507
 20
-37.644040
 30
0.0
 10
93.176362
 20
-37.227272
 30
0.0
 10
93.341860
 20
-36.885508
 30
0.0
 10
93.572231
 20
-36.618807
 30
0.0
 10
93.855006
 20
-36.418258
 30
0.0
 10
94.179154
 20
-36.274933
 30
0.0
 10
94.546000
 20
-36.188893
 30
0.0
 10
94.956870
 20
-36.160196
 30
0.0
 10
94.956870
 20
-36.160196
 30
0.0
  0
LWPOLYLINE
  5
102
100
AcDbEntity
  8
0
 62
7
100
AcDbPolyline
 90
34
 70
0
 10
152.812425
 20
-36.160196
 30
0.0
 10
153.240622
 20
-36.188179
 30
0.0
 10
153.620953
 20
-36.272296
 30
0.0
 10
153.954215
 20
-36.412811
 30
0.0
 10
154.241204
 20
-36.609988
 30
0.0
 10
154.472393
 20
-36.868447
 30
0.0
 10
154.637772
 20
-37.192668
 30
0.0
 10
154.737159
 20
-37.582737
 30
0.0
 10
154.770370
 20
-38.038738
 30
0.0
 10
154.739266
 20
-38.575729
 30
0.0
 10
154.645533
 20
-39.024076
 30
0.0
 10
154.488537
 20
-39.383243
 30
0.0
 10
154.267648
 20
-39.652696
 30
0.0
 10
153.988653
 20
-39.849215
 30
0.0
 10
153.657646
 20
-39.989805
 30
0.0
 10
153.274452
 20
-40.074289
 30
0.0
 10
152.838898
 20
-40.102488
 30
0.0
 10
152.411932
 20
-40.073796
 30
0.0
 10
152.030416
 20
-39.987757
 30
0.0
 10
151.695953
 20
-39.844430
 30
0.0
 10
151.410148
 20
-39.643877
 30
0.0
 10
151.182050
 20
-39.377673
 30
0.0
 10
151.019489
 20
-39.037464
 30
0.0
 10
150.922174
 20
-38.623430
 30
0.0
 10
150.889815
 20
-38.135752
 30
0.0
 10
150.923257
 20
-37.644040
 30
0.0
 10
151.023091
 20
-37.227272
 30
0.0
 10
151.188578
 20
-36.885508
 30
0.0
 10
151.418981
 20
-36.618807
 30
0.0
 10
151.703092
 20
-36.418258
 30
0.0
 10
152.030264
 20
-36.274933
 30
0.0
 10
152.400156
 20
-36.188893
 30
0.0
 10
152.812425
 20
-36.160196
 30
0.0
 10
152.812425
 20
-36.160196
 30
0.0
  0
LWPOLYLINE
  5
103
100
AcDbEntity
  8
0
 62
7
100
AcDbPolyline
 90
14
 70
0
 10
140.359370
 20
-36.177835
 30
0.0
 10
141.620565
 20
-36.177835
 30
0.0
 10
142.279081
 20
-36.221150
 30
0.0
 10
142.687703
 20
-36.354224
 30
0.0
 10
142.904468
 20
-36.575424
 30
0.0
 10
142.978759
 20
-36.874571
 30
0.0
 10
142.931233
 20
-37.086003
 30
0.0
 10
142.793537
 20
-37.271446
 30
0.0
 10
142.590393
 20
-37.414764
 30
0.0
 10
142.334925
 20
-37.491932
 30
0.0
 10
141.567648
 20
-37.588946
 30
0.0
 10
140.359370
 20
-37.588946
 30
0.0
 10
140.359370
 20
-36.177835
 30
0.0
 10
140.359370
 20
-36.177835
 30
0.0
  0
LWPOLYLINE
  5
104
100
AcDbEntity
  8
0
 62
7
100
AcDbPolyline
 90
14
 70
0
 10
160.026759
 20
-36.177835
 30
0.0
 10
161.287926
 20
-36.177835
 30
0.0
 10
161.946435
 20
-36.221150
 30
0.0
 10
162.355093
 20
-36.354224
 30
0.0
 10
162.567303
 20
-36.575424
 30
0.0
 10
162.637315
 20
-36.874571
 30
0.0
 10
162.594174
 20
-37.086003
 30
0.0
 10
162.460926
 20
-37.271446
 30
0.0
 10
162.253249
 20
-37.414764
 30
0.0
 10
161.993481
 20
-37.491932
 30
0.0
 10
161.235009
 20
-37.588946
 30
0.0
 10
160.026759
 20
-37.588946
 30
0.0
 10
160.026759
 20
-36.177835
 30
0.0
 10
160.026759
 20
-36.177835
 30
0.0
  0
LWPOLYLINE
  5
105
100
AcDbEntity
  8
0
 62
7
100
AcDbPolyline
 90
6
 70
0
 10
133.145093
 20
-36.257210
 30
0.0
 10
137.484259
 20
-36.257210
 30
0.0
 10
137.484259
 20
-37.359641
 30
0.0
 10
133.145093
 20
-37.359641
 30
0.0
 10
133.145093
 20
-36.257210
 30
0.0
 10
133.145093
 20
-36.257210
 30
0.0
  0
LWPOLYLINE
  5
106
100
AcDbEntity
  8
0
 62
7
100
AcDbPolyline
 90
5
 70
0
 10
86.543148
 20
-36.574710
 30
0.0
 10
87.566204
 20
-39.061794
 30
0.0
 10
85.528898
 20
-39.061794
 30
0.0
 10
86.543148
 20
-36.574710
 30
0.0
 10
86.543148
 20
-36.574710
 30
0.0
  0
LWPOLYLINE
  5
107
100
AcDbEntity
  8
0
 62
7
100
AcDbPolyline
 90
5
 70
0
 10
118.346037
 20
-36.574710
 30
0.0
 10
119.369092
 20
-39.061794
 30
0.0
 10
117.331815
 20
-39.061794
 30
0.0
 10
118.346037
 20
-36.574710
 30
0.0
 10
118.346037
 20
-36.574710
 30
0.0
  0
LWPOLYLINE
  5
108
100
AcDbEntity
  8
0
 62
7
100
AcDbPolyline
 90
25
 70
0
 10
99.763481
 20
-37.730057
 30
0.0
 10
100.001592
 20
-37.906446
 30
0.0
 10
100.471140
 20
-38.155184
 30
0.0
 10
101.076139
 20
-38.377344
 30
0.0
 10
101.816351
 20
-38.573517
 30
0.0
 10
102.691537
 20
-38.744294
 30
0.0
 10
103.632307
 20
-38.936826
 30
0.0
 10
104.155565
 20
-39.141169
 30
0.0
 10
104.393393
 20
-39.369532
 30
0.0
 10
104.473065
 20
-39.626238
 30
0.0
 10
104.392928
 20
-39.894721
 30
0.0
 10
104.146759
 20
-40.128946
 30
0.0
 10
103.740846
 20
-40.288526
 30
0.0
 10
103.194259
 20
-40.340613
 30
0.0
 10
102.807372
 20
-40.313891
 30
0.0
 10
102.468729
 20
-40.234073
 30
0.0
 10
102.177553
 20
-40.101691
 30
0.0
 10
101.933065
 20
-39.917280
 30
0.0
 10
101.706405
 20
-39.601516
 30
0.0
 10
101.571481
 20
-39.167627
 30
0.0
 10
99.622285
 20
-39.255821
 30
0.0
 10
99.741708
 20
-38.696900
 30
0.0
 10
99.781035
 20
-38.074016
 30
0.0
 10
99.763538
 20
-37.730057
 30
0.0
 10
99.763481
 20
-37.730057
 30
0.0
  0
LWPOLYLINE
  5
109
100
AcDbEntity
  8
0
 62
7
100
AcDbPolyline
 90
6
 70
0
 10
133.145093
 20
-38.770752
 30
0.0
 10
137.484259
 20
-38.770752
 30
0.0
 10
137.484259
 20
-40.137766
 30
0.0
 10
133.145093
 20
-40.137766
 30
0.0
 10
133.145093
 20
-38.770752
 30
0.0
 10
133.145093
 20
-38.770752
 30
0.0
  0
ENDSEC
  0
SECTION
  2
OBJECTS
  0
DICTIONARY
  5
C
330
0
100
AcDbDictionary
  3
ACAD_GROUP
350
D
  3
ACAD_MLINESTYLE
350
17
  0
DICTIONARY
  5
D
330
C
100
AcDbDictionary
  0
DICTIONARY
  5
1A
330
C
100
AcDbDictionary
  0
DICTIONARY
  5
17
330
C
100
AcDbDictionary
  3
STANDARD
350
18
  0
DICTIONARY
  5
19
330
C
100
AcDbDictionary
  0
ENDSEC
  0
EOF
