<?xml version="1.0" encoding="utf-8" standalone="no"?>
<svg
	baseProfile="full"
	height="100%"
	version="1.1"
	viewBox="0 0 320 445"
	width="100%"
	xmlns="http://www.w3.org/2000/svg"
	xmlns:ev="http://www.w3.org/2001/xml-events"
	xmlns:xlink="http://www.w3.org/1999/xlink">

	<g>

		<polygon
			fill="rgb(229, 229, 229)"
			points="5, 27 305, 27 305, 435 5, 435 5, 27 "
			stroke="rgb(0, 0, 0)"
			stroke-width="1.275000"
			style="stroke-linejoin:bevel;stroke-linecap:square;"/>

		<text
			fill="rgb(0, 0, 0)"
			font-family="Arial"
			font-size="12.750000"
			text-anchor="middle"
			x="155"
			y="40">
			LAOS
		</text>

	</g>

	<g>

		<polygon
			fill="rgb(229, 229, 229)"
			points="0, 88 10, 88 10, 98 0, 98 0, 88 "
			stroke="rgb(0, 0, 0)"
			stroke-width="1.275000"
			style="stroke-linejoin:bevel;stroke-linecap:square;"/>

		<text
			fill="rgb(0, 0, 0)"
			font-family="Arial"
			font-size="12.750000"
			text-anchor="start"
			x="15"
			y="97">
			SERIAL RS485/RS232
		</text>

	</g>

	<g>

		<polygon
			fill="rgb(229, 229, 229)"
			points="0, 396 10, 396 10, 406 0, 406 0, 396 "
			stroke="rgb(0, 0, 0)"
			stroke-width="1.275000"
			style="stroke-linejoin:bevel;stroke-linecap:square;"/>

		<text
			fill="rgb(0, 0, 0)"
			font-family="Arial"
			font-size="12.750000"
			text-anchor="start"
			x="15"
			y="405">
			I5
		</text>

	</g>

	<g>

		<polygon
			fill="rgb(229, 229, 229)"
			points="300, 396 310, 396 310, 406 300, 406 300, 396 "
			stroke="rgb(0, 0, 0)"
			stroke-width="1.275000"
			style="stroke-linejoin:bevel;stroke-linecap:square;"/>

		<text
			fill="rgb(0, 0, 0)"
			font-family="Arial"
			font-size="12.750000"
			text-anchor="end"
			x="296"
			y="405">
			O5
		</text>

	</g>

	<g>

		<polygon
			fill="rgb(229, 229, 229)"
			points="0, 44 10, 44 10, 54 0, 54 0, 44 "
			stroke="rgb(0, 0, 0)"
			stroke-width="1.275000"
			style="stroke-linejoin:bevel;stroke-linecap:square;"/>

		<text
			fill="rgb(0, 0, 0)"
			font-family="Arial"
			font-size="12.750000"
			text-anchor="start"
			x="15"
			y="53">
			24V
		</text>

	</g>

	<g>

		<polygon
			fill="rgb(229, 229, 229)"
			points="0, 66 10, 66 10, 76 0, 76 0, 66 "
			stroke="rgb(0, 0, 0)"
			stroke-width="1.275000"
			style="stroke-linejoin:bevel;stroke-linecap:square;"/>

		<text
			fill="rgb(0, 0, 0)"
			font-family="Arial"
			font-size="12.750000"
			text-anchor="start"
			x="15"
			y="75">
			Ethernet
		</text>

	</g>

	<g>

		<polygon
			fill="rgb(229, 229, 229)"
			points="0, 110 10, 110 10, 120 0, 120 0, 110 "
			stroke="rgb(0, 0, 0)"
			stroke-width="1.275000"
			style="stroke-linejoin:bevel;stroke-linecap:square;"/>

		<text
			fill="rgb(0, 0, 0)"
			font-family="Arial"
			font-size="12.750000"
			text-anchor="start"
			x="15"
			y="119">
			CAN
		</text>

	</g>

	<g>

		<polygon
			fill="rgb(229, 229, 229)"
			points="0, 132 10, 132 10, 142 0, 142 0, 132 "
			stroke="rgb(0, 0, 0)"
			stroke-width="1.275000"
			style="stroke-linejoin:bevel;stroke-linecap:square;"/>

		<text
			fill="rgb(0, 0, 0)"
			font-family="Arial"
			font-size="12.750000"
			text-anchor="start"
			x="15"
			y="141">
			I2C
		</text>

	</g>

	<g>

		<polygon
			fill="rgb(229, 229, 229)"
			points="0, 176 10, 176 10, 186 0, 186 0, 176 "
			stroke="rgb(0, 0, 0)"
			stroke-width="1.275000"
			style="stroke-linejoin:bevel;stroke-linecap:square;"/>

		<text
			fill="rgb(0, 0, 0)"
			font-family="Arial"
			font-size="12.750000"
			text-anchor="start"
			x="15"
			y="185">
			USB HOST
		</text>

	</g>

	<g>

		<polygon
			fill="rgb(229, 229, 229)"
			points="0, 198 10, 198 10, 208 0, 208 0, 198 "
			stroke="rgb(0, 0, 0)"
			stroke-width="1.275000"
			style="stroke-linejoin:bevel;stroke-linecap:square;"/>

		<text
			fill="rgb(0, 0, 0)"
			font-family="Arial"
			font-size="12.750000"
			text-anchor="start"
			x="15"
			y="207">
			SDCARD
		</text>

	</g>

	<g>

		<polygon
			fill="rgb(229, 229, 229)"
			points="300, 66 310, 66 310, 76 300, 76 300, 66 "
			stroke="rgb(0, 0, 0)"
			stroke-width="1.275000"
			style="stroke-linejoin:bevel;stroke-linecap:square;"/>

		<text
			fill="rgb(0, 0, 0)"
			font-family="Arial"
			font-size="12.750000"
			text-anchor="end"
			x="296"
			y="75">
			STEP X
		</text>

	</g>

	<g>

		<polygon
			fill="rgb(229, 229, 229)"
			points="300, 88 310, 88 310, 98 300, 98 300, 88 "
			stroke="rgb(0, 0, 0)"
			stroke-width="1.275000"
			style="stroke-linejoin:bevel;stroke-linecap:square;"/>

		<text
			fill="rgb(0, 0, 0)"
			font-family="Arial"
			font-size="12.750000"
			text-anchor="end"
			x="296"
			y="97">
			STEP Y
		</text>

	</g>

	<g>

		<polygon
			fill="rgb(229, 229, 229)"
			points="300, 110 310, 110 310, 120 300, 120 300, 110 "
			stroke="rgb(0, 0, 0)"
			stroke-width="1.275000"
			style="stroke-linejoin:bevel;stroke-linecap:square;"/>

		<text
			fill="rgb(0, 0, 0)"
			font-family="Arial"
			font-size="12.750000"
			text-anchor="end"
			x="296"
			y="119">
			STEP Z
		</text>

	</g>

	<g>

		<polygon
			fill="rgb(229, 229, 229)"
			points="300, 176 310, 176 310, 186 300, 186 300, 176 "
			stroke="rgb(0, 0, 0)"
			stroke-width="1.275000"
			style="stroke-linejoin:bevel;stroke-linecap:square;"/>

		<text
			fill="rgb(0, 0, 0)"
			font-family="Arial"
			font-size="12.750000"
			text-anchor="end"
			x="296"
			y="185">
			PWM0
		</text>

	</g>

	<g>

		<polygon
			fill="rgb(229, 229, 229)"
			points="300, 198 310, 198 310, 208 300, 208 300, 198 "
			stroke="rgb(0, 0, 0)"
			stroke-width="1.275000"
			style="stroke-linejoin:bevel;stroke-linecap:square;"/>

		<text
			fill="rgb(0, 0, 0)"
			font-family="Arial"
			font-size="12.750000"
			text-anchor="end"
			x="296"
			y="207">
			PWM1
		</text>

	</g>

	<g>

		<polygon
			fill="rgb(229, 229, 229)"
			points="300, 220 310, 220 310, 230 300, 230 300, 220 "
			stroke="rgb(0, 0, 0)"
			stroke-width="1.275000"
			style="stroke-linejoin:bevel;stroke-linecap:square;"/>

		<text
			fill="rgb(0, 0, 0)"
			font-family="Arial"
			font-size="12.750000"
			text-anchor="end"
			x="296"
			y="229">
			PWM2
		</text>

	</g>

	<g>

		<polygon
			fill="rgb(229, 229, 229)"
			points="300, 286 310, 286 310, 296 300, 296 300, 286 "
			stroke="rgb(0, 0, 0)"
			stroke-width="1.275000"
			style="stroke-linejoin:bevel;stroke-linecap:square;"/>

		<text
			fill="rgb(0, 0, 0)"
			font-family="Arial"
			font-size="12.750000"
			text-anchor="end"
			x="296"
			y="295">
			O0
		</text>

	</g>

	<g>

		<polygon
			fill="rgb(229, 229, 229)"
			points="300, 307 310, 307 310, 317 300, 317 300, 307 "
			stroke="rgb(0, 0, 0)"
			stroke-width="1.275000"
			style="stroke-linejoin:bevel;stroke-linecap:square;"/>

		<text
			fill="rgb(0, 0, 0)"
			font-family="Arial"
			font-size="12.750000"
			text-anchor="end"
			x="296"
			y="316">
			O1
		</text>

	</g>

	<g>

		<polygon
			fill="rgb(229, 229, 229)"
			points="300, 329 310, 329 310, 339 300, 339 300, 329 "
			stroke="rgb(0, 0, 0)"
			stroke-width="1.275000"
			style="stroke-linejoin:bevel;stroke-linecap:square;"/>

		<text
			fill="rgb(0, 0, 0)"
			font-family="Arial"
			font-size="12.750000"
			text-anchor="end"
			x="296"
			y="338">
			O2
		</text>

	</g>

	<g>

		<polygon
			fill="rgb(229, 229, 229)"
			points="300, 351 310, 351 310, 361 300, 361 300, 351 "
			stroke="rgb(0, 0, 0)"
			stroke-width="1.275000"
			style="stroke-linejoin:bevel;stroke-linecap:square;"/>

		<text
			fill="rgb(0, 0, 0)"
			font-family="Arial"
			font-size="12.750000"
			text-anchor="end"
			x="296"
			y="360">
			O3
		</text>

	</g>

	<g>

		<polygon
			fill="rgb(229, 229, 229)"
			points="0, 286 10, 286 10, 296 0, 296 0, 286 "
			stroke="rgb(0, 0, 0)"
			stroke-width="1.275000"
			style="stroke-linejoin:bevel;stroke-linecap:square;"/>

		<text
			fill="rgb(0, 0, 0)"
			font-family="Arial"
			font-size="12.750000"
			text-anchor="start"
			x="15"
			y="295">
			I0
		</text>

	</g>

	<g>

		<polygon
			fill="rgb(229, 229, 229)"
			points="0, 308 10, 308 10, 318 0, 318 0, 308 "
			stroke="rgb(0, 0, 0)"
			stroke-width="1.275000"
			style="stroke-linejoin:bevel;stroke-linecap:square;"/>

		<text
			fill="rgb(0, 0, 0)"
			font-family="Arial"
			font-size="12.750000"
			text-anchor="start"
			x="15"
			y="317">
			I1
		</text>

	</g>

	<g>

		<polygon
			fill="rgb(229, 229, 229)"
			points="0, 330 10, 330 10, 340 0, 340 0, 330 "
			stroke="rgb(0, 0, 0)"
			stroke-width="1.275000"
			style="stroke-linejoin:bevel;stroke-linecap:square;"/>

		<text
			fill="rgb(0, 0, 0)"
			font-family="Arial"
			font-size="12.750000"
			text-anchor="start"
			x="15"
			y="339">
			I2
		</text>

	</g>

	<g>

		<polygon
			fill="rgb(229, 229, 229)"
			points="0, 352 10, 352 10, 362 0, 362 0, 352 "
			stroke="rgb(0, 0, 0)"
			stroke-width="1.275000"
			style="stroke-linejoin:bevel;stroke-linecap:square;"/>

		<text
			fill="rgb(0, 0, 0)"
			font-family="Arial"
			font-size="12.750000"
			text-anchor="start"
			x="15"
			y="361">
			I3
		</text>

	</g>

	<g>

		<polygon
			fill="rgb(229, 229, 229)"
			points="300, 373 310, 373 310, 383 300, 383 300, 373 "
			stroke="rgb(0, 0, 0)"
			stroke-width="1.275000"
			style="stroke-linejoin:bevel;stroke-linecap:square;"/>

		<text
			fill="rgb(0, 0, 0)"
			font-family="Arial"
			font-size="12.750000"
			text-anchor="end"
			x="296"
			y="382">
			O4
		</text>

	</g>

	<g>

		<polygon
			fill="rgb(229, 229, 229)"
			points="0, 373 10, 373 10, 383 0, 383 0, 373 "
			stroke="rgb(0, 0, 0)"
			stroke-width="1.275000"
			style="stroke-linejoin:bevel;stroke-linecap:square;"/>

		<text
			fill="rgb(0, 0, 0)"
			font-family="Arial"
			font-size="12.750000"
			text-anchor="start"
			x="15"
			y="382">
			I4
		</text>

	</g>

	<g>

		<polygon
			fill="rgb(229, 229, 229)"
			points="0, 44 10, 44 10, 54 0, 54 0, 44 "
			stroke="rgb(0, 0, 0)"
			stroke-width="1.275000"
			style="stroke-linejoin:bevel;stroke-linecap:square;"/>

		<text
			fill="rgb(0, 0, 0)"
			font-family="Arial"
			font-size="12.750000"
			text-anchor="start"
			x="15"
			y="53">
			24V
		</text>

	</g>

	<g>

		<polygon
			fill="rgb(229, 229, 229)"
			points="0, 66 10, 66 10, 76 0, 76 0, 66 "
			stroke="rgb(0, 0, 0)"
			stroke-width="1.275000"
			style="stroke-linejoin:bevel;stroke-linecap:square;"/>

		<text
			fill="rgb(0, 0, 0)"
			font-family="Arial"
			font-size="12.750000"
			text-anchor="start"
			x="15"
			y="75">
			Ethernet
		</text>

	</g>

	<g>

		<polygon
			fill="rgb(229, 229, 229)"
			points="0, 110 10, 110 10, 120 0, 120 0, 110 "
			stroke="rgb(0, 0, 0)"
			stroke-width="1.275000"
			style="stroke-linejoin:bevel;stroke-linecap:square;"/>

		<text
			fill="rgb(0, 0, 0)"
			font-family="Arial"
			font-size="12.750000"
			text-anchor="start"
			x="15"
			y="119">
			CAN
		</text>

	</g>

	<g>

		<polygon
			fill="rgb(229, 229, 229)"
			points="0, 132 10, 132 10, 142 0, 142 0, 132 "
			stroke="rgb(0, 0, 0)"
			stroke-width="1.275000"
			style="stroke-linejoin:bevel;stroke-linecap:square;"/>

		<text
			fill="rgb(0, 0, 0)"
			font-family="Arial"
			font-size="12.750000"
			text-anchor="start"
			x="15"
			y="141">
			I2C
		</text>

	</g>

	<g>

		<polygon
			fill="rgb(229, 229, 229)"
			points="0, 176 10, 176 10, 186 0, 186 0, 176 "
			stroke="rgb(0, 0, 0)"
			stroke-width="1.275000"
			style="stroke-linejoin:bevel;stroke-linecap:square;"/>

		<text
			fill="rgb(0, 0, 0)"
			font-family="Arial"
			font-size="12.750000"
			text-anchor="start"
			x="15"
			y="185">
			USB HOST
		</text>

	</g>

	<g>

		<polygon
			fill="rgb(229, 229, 229)"
			points="0, 198 10, 198 10, 208 0, 208 0, 198 "
			stroke="rgb(0, 0, 0)"
			stroke-width="1.275000"
			style="stroke-linejoin:bevel;stroke-linecap:square;"/>

		<text
			fill="rgb(0, 0, 0)"
			font-family="Arial"
			font-size="12.750000"
			text-anchor="start"
			x="15"
			y="207">
			SDCARD
		</text>

	</g>

	<g>

		<polygon
			fill="rgb(229, 229, 229)"
			points="300, 66 310, 66 310, 76 300, 76 300, 66 "
			stroke="rgb(0, 0, 0)"
			stroke-width="1.275000"
			style="stroke-linejoin:bevel;stroke-linecap:square;"/>

		<text
			fill="rgb(0, 0, 0)"
			font-family="Arial"
			font-size="12.750000"
			text-anchor="end"
			x="296"
			y="75">
			STEP X
		</text>

	</g>

	<g>

		<polygon
			fill="rgb(229, 229, 229)"
			points="300, 88 310, 88 310, 98 300, 98 300, 88 "
			stroke="rgb(0, 0, 0)"
			stroke-width="1.275000"
			style="stroke-linejoin:bevel;stroke-linecap:square;"/>

		<text
			fill="rgb(0, 0, 0)"
			font-family="Arial"
			font-size="12.750000"
			text-anchor="end"
			x="296"
			y="97">
			STEP Y
		</text>

	</g>

	<g>

		<polygon
			fill="rgb(229, 229, 229)"
			points="300, 110 310, 110 310, 120 300, 120 300, 110 "
			stroke="rgb(0, 0, 0)"
			stroke-width="1.275000"
			style="stroke-linejoin:bevel;stroke-linecap:square;"/>

		<text
			fill="rgb(0, 0, 0)"
			font-family="Arial"
			font-size="12.750000"
			text-anchor="end"
			x="296"
			y="119">
			STEP Z
		</text>

	</g>

	<g>

		<polygon
			fill="rgb(229, 229, 229)"
			points="300, 176 310, 176 310, 186 300, 186 300, 176 "
			stroke="rgb(0, 0, 0)"
			stroke-width="1.275000"
			style="stroke-linejoin:bevel;stroke-linecap:square;"/>

		<text
			fill="rgb(0, 0, 0)"
			font-family="Arial"
			font-size="12.750000"
			text-anchor="end"
			x="296"
			y="185">
			PWM0
		</text>

	</g>

	<g>

		<polygon
			fill="rgb(229, 229, 229)"
			points="300, 198 310, 198 310, 208 300, 208 300, 198 "
			stroke="rgb(0, 0, 0)"
			stroke-width="1.275000"
			style="stroke-linejoin:bevel;stroke-linecap:square;"/>

		<text
			fill="rgb(0, 0, 0)"
			font-family="Arial"
			font-size="12.750000"
			text-anchor="end"
			x="296"
			y="207">
			PWM1
		</text>

	</g>

	<g>

		<polygon
			fill="rgb(229, 229, 229)"
			points="300, 220 310, 220 310, 230 300, 230 300, 220 "
			stroke="rgb(0, 0, 0)"
			stroke-width="1.275000"
			style="stroke-linejoin:bevel;stroke-linecap:square;"/>

		<text
			fill="rgb(0, 0, 0)"
			font-family="Arial"
			font-size="12.750000"
			text-anchor="end"
			x="296"
			y="229">
			PWM2
		</text>

	</g>

	<g>

		<polygon
			fill="rgb(229, 229, 229)"
			points="300, 286 310, 286 310, 296 300, 296 300, 286 "
			stroke="rgb(0, 0, 0)"
			stroke-width="1.275000"
			style="stroke-linejoin:bevel;stroke-linecap:square;"/>

		<text
			fill="rgb(0, 0, 0)"
			font-family="Arial"
			font-size="12.750000"
			text-anchor="end"
			x="296"
			y="295">
			O0
		</text>

	</g>

	<g>

		<polygon
			fill="rgb(229, 229, 229)"
			points="300, 307 310, 307 310, 317 300, 317 300, 307 "
			stroke="rgb(0, 0, 0)"
			stroke-width="1.275000"
			style="stroke-linejoin:bevel;stroke-linecap:square;"/>

		<text
			fill="rgb(0, 0, 0)"
			font-family="Arial"
			font-size="12.750000"
			text-anchor="end"
			x="296"
			y="316">
			O1
		</text>

	</g>

	<g>

		<polygon
			fill="rgb(229, 229, 229)"
			points="300, 329 310, 329 310, 339 300, 339 300, 329 "
			stroke="rgb(0, 0, 0)"
			stroke-width="1.275000"
			style="stroke-linejoin:bevel;stroke-linecap:square;"/>

		<text
			fill="rgb(0, 0, 0)"
			font-family="Arial"
			font-size="12.750000"
			text-anchor="end"
			x="296"
			y="338">
			O2
		</text>

	</g>

	<g>

		<polygon
			fill="rgb(229, 229, 229)"
			points="300, 351 310, 351 310, 361 300, 361 300, 351 "
			stroke="rgb(0, 0, 0)"
			stroke-width="1.275000"
			style="stroke-linejoin:bevel;stroke-linecap:square;"/>

		<text
			fill="rgb(0, 0, 0)"
			font-family="Arial"
			font-size="12.750000"
			text-anchor="end"
			x="296"
			y="360">
			O3
		</text>

	</g>

	<g>

		<polygon
			fill="rgb(229, 229, 229)"
			points="0, 286 10, 286 10, 296 0, 296 0, 286 "
			stroke="rgb(0, 0, 0)"
			stroke-width="1.275000"
			style="stroke-linejoin:bevel;stroke-linecap:square;"/>

		<text
			fill="rgb(0, 0, 0)"
			font-family="Arial"
			font-size="12.750000"
			text-anchor="start"
			x="15"
			y="295">
			I0
		</text>

	</g>

	<g>

		<polygon
			fill="rgb(229, 229, 229)"
			points="0, 308 10, 308 10, 318 0, 318 0, 308 "
			stroke="rgb(0, 0, 0)"
			stroke-width="1.275000"
			style="stroke-linejoin:bevel;stroke-linecap:square;"/>

		<text
			fill="rgb(0, 0, 0)"
			font-family="Arial"
			font-size="12.750000"
			text-anchor="start"
			x="15"
			y="317">
			I1
		</text>

	</g>

	<g>

		<polygon
			fill="rgb(229, 229, 229)"
			points="0, 330 10, 330 10, 340 0, 340 0, 330 "
			stroke="rgb(0, 0, 0)"
			stroke-width="1.275000"
			style="stroke-linejoin:bevel;stroke-linecap:square;"/>

		<text
			fill="rgb(0, 0, 0)"
			font-family="Arial"
			font-size="12.750000"
			text-anchor="start"
			x="15"
			y="339">
			I2
		</text>

	</g>

	<g>

		<polygon
			fill="rgb(229, 229, 229)"
			points="0, 352 10, 352 10, 362 0, 362 0, 352 "
			stroke="rgb(0, 0, 0)"
			stroke-width="1.275000"
			style="stroke-linejoin:bevel;stroke-linecap:square;"/>

		<text
			fill="rgb(0, 0, 0)"
			font-family="Arial"
			font-size="12.750000"
			text-anchor="start"
			x="15"
			y="361">
			I3
		</text>

	</g>

	<g>

		<text
			fill="rgb(0, 0, 0)"
			font-family="Arial"
			font-size="12.750000"
			text-anchor="middle"
			x="274"
			y="53">
			24V/2A
		</text>

	</g>

	<g>

		<text
			fill="rgb(0, 0, 0)"
			font-family="Arial"
			font-size="12.750000"
			text-anchor="middle"
			x="260"
			y="163">
			5V Opto/1MHz
		</text>

	</g>

	<g>

		<text
			fill="rgb(0, 0, 0)"
			font-family="Arial"
			font-size="12.750000"
			text-anchor="middle"
			x="240"
			y="275">
			5/24V Opto &gt; 100mA
		</text>

	</g>

	<g>

		<polygon
			fill="rgb(229, 229, 229)"
			points="0, 373 10, 373 10, 383 0, 383 0, 373 "
			stroke="rgb(0, 0, 0)"
			stroke-width="1.275000"
			style="stroke-linejoin:bevel;stroke-linecap:square;"/>

		<text
			fill="rgb(0, 0, 0)"
			font-family="Arial"
			font-size="12.750000"
			text-anchor="start"
			x="15"
			y="382">
			I4
		</text>

	</g>

	<g>

		<text
			fill="rgb(0, 0, 0)"
			font-family="Arial"
			font-size="12.750000"
			text-anchor="middle"
			x="49"
			y="275">
			5 / 24 V Opto
		</text>

	</g>

	<g>

		<polygon
			fill="rgb(229, 229, 229)"
			points="300, 373 310, 373 310, 383 300, 383 300, 373 "
			stroke="rgb(0, 0, 0)"
			stroke-width="1.275000"
			style="stroke-linejoin:bevel;stroke-linecap:square;"/>

		<text
			fill="rgb(0, 0, 0)"
			font-family="Arial"
			font-size="12.750000"
			text-anchor="end"
			x="296"
			y="382">
			O4
		</text>

	</g>

	<g>

		<polygon
			fill="rgb(229, 229, 229)"
			points="300, 396 310, 396 310, 406 300, 406 300, 396 "
			stroke="rgb(0, 0, 0)"
			stroke-width="1.275000"
			style="stroke-linejoin:bevel;stroke-linecap:square;"/>

		<text
			fill="rgb(0, 0, 0)"
			font-family="Arial"
			font-size="12.750000"
			text-anchor="end"
			x="296"
			y="405">
			O5
		</text>

	</g>

	<g>

		<polygon
			fill="rgb(229, 229, 229)"
			points="0, 396 10, 396 10, 406 0, 406 0, 396 "
			stroke="rgb(0, 0, 0)"
			stroke-width="1.275000"
			style="stroke-linejoin:bevel;stroke-linecap:square;"/>

		<text
			fill="rgb(0, 0, 0)"
			font-family="Arial"
			font-size="12.750000"
			text-anchor="start"
			x="15"
			y="405">
			I5
		</text>

	</g>

	<g>

		<polygon
			fill="rgb(229, 229, 229)"
			points="0, 88 10, 88 10, 98 0, 98 0, 88 "
			stroke="rgb(0, 0, 0)"
			stroke-width="1.275000"
			style="stroke-linejoin:bevel;stroke-linecap:square;"/>

		<text
			fill="rgb(0, 0, 0)"
			font-family="Arial"
			font-size="12.750000"
			text-anchor="start"
			x="15"
			y="97">
			SERIAL RS485/RS232
		</text>

	</g>

</svg>

