<?xml version="1.0" encoding="UTF-8" standalone="no"?>
<!-- Created with Inkscape (http://www.inkscape.org/) -->

<svg
   xmlns:dc="http://purl.org/dc/elements/1.1/"
   xmlns:cc="http://creativecommons.org/ns#"
   xmlns:rdf="http://www.w3.org/1999/02/22-rdf-syntax-ns#"
   xmlns:svg="http://www.w3.org/2000/svg"
   xmlns="http://www.w3.org/2000/svg"
   xmlns:sodipodi="http://sodipodi.sourceforge.net/DTD/sodipodi-0.dtd"
   xmlns:inkscape="http://www.inkscape.org/namespaces/inkscape"
   width="520.76819"
   height="431.95319"
   id="svg6120"
   version="1.1"
   inkscape:version="0.48.2 r9819"
   sodipodi:docname="laoslaser-logo.svg"
   inkscape:export-filename="D:\laoslaser-logo.png"
   inkscape:export-xdpi="200"
   inkscape:export-ydpi="200">
  <defs
     id="defs6122">
    <inkscape:perspective
       sodipodi:type="inkscape:persp3d"
       inkscape:vp_x="0 : 526.18109 : 1"
       inkscape:vp_y="0 : 1000 : 0"
       inkscape:vp_z="744.09448 : 526.18109 : 1"
       inkscape:persp3d-origin="372.04724 : 350.78739 : 1"
       id="perspective6128" />
    <inkscape:perspective
       id="perspective6113"
       inkscape:persp3d-origin="0.5 : 0.33333333 : 1"
       inkscape:vp_z="1 : 0.5 : 1"
       inkscape:vp_y="0 : 1000 : 0"
       inkscape:vp_x="0 : 0.5 : 1"
       sodipodi:type="inkscape:persp3d" />
    <inkscape:perspective
       id="perspective6159"
       inkscape:persp3d-origin="0.5 : 0.33333333 : 1"
       inkscape:vp_z="1 : 0.5 : 1"
       inkscape:vp_y="0 : 1000 : 0"
       inkscape:vp_x="0 : 0.5 : 1"
       sodipodi:type="inkscape:persp3d" />
    <inkscape:perspective
       id="perspective6231"
       inkscape:persp3d-origin="0.5 : 0.33333333 : 1"
       inkscape:vp_z="1 : 0.5 : 1"
       inkscape:vp_y="0 : 1000 : 0"
       inkscape:vp_x="0 : 0.5 : 1"
       sodipodi:type="inkscape:persp3d" />
    <inkscape:perspective
       id="perspective6299"
       inkscape:persp3d-origin="0.5 : 0.33333333 : 1"
       inkscape:vp_z="1 : 0.5 : 1"
       inkscape:vp_y="0 : 1000 : 0"
       inkscape:vp_x="0 : 0.5 : 1"
       sodipodi:type="inkscape:persp3d" />
    <inkscape:perspective
       id="perspective6333"
       inkscape:persp3d-origin="0.5 : 0.33333333 : 1"
       inkscape:vp_z="1 : 0.5 : 1"
       inkscape:vp_y="0 : 1000 : 0"
       inkscape:vp_x="0 : 0.5 : 1"
       sodipodi:type="inkscape:persp3d" />
    <inkscape:perspective
       id="perspective6909"
       inkscape:persp3d-origin="0.5 : 0.33333333 : 1"
       inkscape:vp_z="1 : 0.5 : 1"
       inkscape:vp_y="0 : 1000 : 0"
       inkscape:vp_x="0 : 0.5 : 1"
       sodipodi:type="inkscape:persp3d" />
    <inkscape:perspective
       id="perspective2878"
       inkscape:persp3d-origin="0.5 : 0.33333333 : 1"
       inkscape:vp_z="1 : 0.5 : 1"
       inkscape:vp_y="0 : 1000 : 0"
       inkscape:vp_x="0 : 0.5 : 1"
       sodipodi:type="inkscape:persp3d" />
  </defs>
  <sodipodi:namedview
     id="base"
     pagecolor="#47b83d"
     bordercolor="#666666"
     borderopacity="1.0"
     inkscape:pageopacity="0"
     inkscape:pageshadow="2"
     inkscape:zoom="2.2501767"
     inkscape:cx="289.58301"
     inkscape:cy="240.75733"
     inkscape:document-units="px"
     inkscape:current-layer="layer1"
     showgrid="false"
     inkscape:window-width="1366"
     inkscape:window-height="746"
     inkscape:window-x="-8"
     inkscape:window-y="-8"
     inkscape:window-maximized="1"
     showguides="true"
     inkscape:guide-bbox="true"
     inkscape:snap-to-guides="false"
     units="cm"
     fit-margin-left="0.5"
     fit-margin-top="0.5"
     fit-margin-right="0.5"
     fit-margin-bottom="0.5" />
  <metadata
     id="metadata6125">
    <rdf:RDF>
      <cc:Work
         rdf:about="">
        <dc:format>image/svg+xml</dc:format>
        <dc:type
           rdf:resource="http://purl.org/dc/dcmitype/StillImage" />
        <dc:title />
      </cc:Work>
    </rdf:RDF>
  </metadata>
  <g
     inkscape:label="Layer 1"
     inkscape:groupmode="layer"
     id="layer1"
     transform="translate(344.75585,-288.0638)"
     style="display:inline">
    <path
       style="font-size:39.11067580999999600px;font-style:normal;font-variant:normal;font-weight:normal;font-stretch:normal;line-height:125%;letter-spacing:0px;word-spacing:0px;fill:#ffff00;stroke:#000000;stroke-width:1;stroke-miterlimit:4;stroke-dasharray:none;display:inline;font-family:Arial Black;-inkscape-font-specification:Arial Black"
       d="M 197.78125 18.46875 L 200.75 154 L 196.15625 154.96875 L 180 90.1875 L 168.59375 92.1875 L 185.6875 157.09375 L 182.1875 158.46875 L 119.125 44.1875 L 105.78125 52.09375 L 172.0625 163.65625 L 167.5 166.6875 L 121.375 119.125 L 113.9375 127.0625 L 158.75 174.15625 L 155.75 178.25 L 48.90625 112.46875 L 41.46875 126.5625 L 148.5625 188.40625 L 146.15625 194.03125 L 88.96875 177.03125 L 86.25 186.90625 L 143.125 204.21875 L 142.125 210.125 L 18.71875 207.4375 L 18.46875 223.78125 L 142.375 222.28125 L 142.59375 229.5625 L 84.25 243.3125 L 86.75 254.1875 L 145.25 239.3125 L 146.96875 243.46875 L 41.46875 303.40625 L 49.375 319.25 L 153.78125 254.9375 L 157.09375 259.28125 L 114.6875 305.40625 L 120.875 311.5625 L 166.125 266.8125 L 170.625 271.5 L 103.8125 382.5625 L 119.625 390.46875 L 181.71875 276.9375 L 184.46875 277.8125 L 168.125 342 L 177.03125 345.96875 L 194.09375 280.65625 L 200.21875 281.5625 L 198.53125 413.5 L 213.625 413.25 L 210.96875 281.5625 L 217.5 280.21875 L 234.15625 344.71875 L 244.78125 342.25 L 228.46875 276.9375 L 232.8125 275.15625 L 294.75 389.5 L 308.625 382.5625 L 242.5625 269.78125 L 247.6875 265.4375 L 293.78125 313.3125 L 300.9375 306.875 L 254.9375 258.90625 L 258.875 253.96875 L 366 320.25 L 375.40625 306.375 L 263.71875 242.6875 L 266.34375 236.5 L 328.40625 254.4375 L 331.625 243.8125 L 264.34375 227.25 L 290.375 227.375 L 297.21875 227.375 L 298.8125 223.34375 L 310.40625 223.34375 L 312.03125 227.375 L 322.65625 227.375 L 321.25 224.625 C 321.39323 224.74223 321.53596 224.88706 321.6875 225 C 323.84207 226.60708 327.74545 227.375 333.34375 227.375 C 336.53098 227.375 339.15453 227.06137 341.25 226.375 C 343.34547 225.68866 344.95752 224.67181 346.125 223.34375 C 346.42759 222.99956 346.71334 222.64193 346.9375 222.28125 L 346.9375 227.375 L 374.6875 227.375 L 382.71875 227.375 L 382.71875 217.4375 L 383.625 217.4375 C 384.55299 217.4375 385.36037 217.62056 386.09375 218 C 386.63342 218.29018 387.28024 218.90406 387.96875 219.875 L 393.40625 227.375 L 404.90625 227.375 L 413.28125 227.375 L 413.28125 223.0625 C 414.6183 224.37251 416.23015 225.37563 418.125 226.0625 C 420.55721 226.94415 423.63178 227.375 427.34375 227.375 C 430.99582 227.375 434.05236 226.89615 436.5 225.875 C 438.94684 224.85384 440.79897 223.39837 442.09375 221.5625 C 442.17087 221.45382 442.24039 221.36232 442.3125 221.25 L 442.3125 227.375 L 452.53125 227.375 L 452.53125 217.4375 L 453.4375 217.4375 C 454.3655 217.4375 455.20402 217.62056 455.9375 218 C 456.47627 218.29018 457.06149 218.90406 457.75 219.875 L 463.1875 227.375 L 474.6875 227.375 L 469.78125 220.28125 C 469.54177 219.92413 469.05469 219.40847 468.34375 218.75 C 467.6328 218.09156 467.1243 217.66963 466.75 217.46875 C 466.19661 217.16742 465.27485 216.86384 464.0625 216.5625 C 465.57423 216.30584 466.78815 215.98435 467.65625 215.59375 C 468.21685 215.34112 468.72575 215.03469 469.1875 214.71875 C 469.1875 217.25549 469.83572 219.50947 471.1875 221.46875 C 472.54118 223.43296 474.44399 224.91299 476.90625 225.90625 C 479.36841 226.8995 482.56206 227.375 486.46875 227.375 C 489.64095 227.375 492.37498 227.11493 494.6875 226.5625 C 496.99992 226.01007 499.67886 224.96647 502.6875 223.4375 L 502.6875 212.96875 L 486.96875 212.96875 L 486.96875 218.09375 L 493.78125 218.09375 L 493.78125 220.375 C 492.4494 220.96651 491.25141 221.41074 490.21875 221.65625 C 489.18509 221.9018 488.10558 222.03125 486.96875 222.03125 C 484.573 222.03125 482.6833 221.45084 481.34375 220.3125 C 480.0041 219.17416 479.34375 217.28116 479.34375 214.625 C 479.34375 212.12511 479.98757 210.31135 481.3125 209.15625 C 482.63623 208.00119 484.45721 207.40628 486.6875 207.40625 C 488.18411 207.40628 489.40965 207.63397 490.375 208.125 C 491.34045 208.61607 492.0021 209.35497 492.40625 210.28125 L 502.21875 208.96875 C 501.61909 207.38403 500.72126 206.06359 499.53125 205.03125 C 498.34204 203.99895 496.83565 203.24107 495.03125 202.75 C 493.22855 202.25897 490.544 202.03127 486.90625 202.03125 C 483.13529 202.03127 480.13644 202.42639 477.90625 203.21875 C 475.18387 204.19649 473.09887 205.59453 471.625 207.4375 C 471.37099 206.79746 470.9945 206.21577 470.5 205.6875 C 469.48296 204.59941 468.16197 203.83931 466.5 203.4375 C 464.83882 203.03578 462.39315 202.84377 459.25 202.84375 L 442.3125 202.84375 L 442.3125 208.125 C 441.61848 207.05545 440.70504 206.13488 439.59375 205.3125 C 436.63008 203.11954 432.41571 202.03127 426.9375 202.03125 C 421.59471 202.03127 417.40047 203.11173 414.40625 205.34375 C 411.41324 207.57583 409.9375 210.71224 409.9375 214.71875 C 409.9375 216.9568 410.42327 218.90884 411.34375 220.5625 L 403.46875 220.5625 L 403.46875 225.34375 L 399.96875 220.28125 C 399.72926 219.92413 399.27324 219.40847 398.5625 218.75 C 397.85066 218.09156 397.28035 217.66963 396.90625 217.46875 C 396.35236 217.16742 395.4936 216.86384 394.28125 216.5625 C 395.79298 216.30584 396.97555 215.98435 397.84375 215.59375 C 399.20574 214.97994 400.2529 214.17521 401.03125 213.1875 C 401.8096 212.19985 402.21875 211.0178 402.21875 209.65625 C 402.21875 208.09383 401.70524 206.77566 400.6875 205.6875 C 399.66876 204.59941 398.31762 203.83931 396.65625 203.4375 C 394.99478 203.03578 392.64346 202.84377 389.5 202.84375 L 374.1875 202.84375 L 346.9375 202.84375 L 346.9375 215.875 C 346.82482 215.70473 346.69551 215.50811 346.5625 215.34375 C 345.68689 214.26122 344.29829 213.35603 342.375 212.625 C 340.45161 211.89402 337.2889 211.18303 332.84375 210.46875 C 331.04736 210.18978 329.91647 209.88614 329.4375 209.5625 C 328.94351 209.25002 328.65625 208.89061 328.65625 208.5 C 328.65625 207.96433 328.99479 207.49888 329.59375 207.125 C 330.19161 206.75114 331.0675 206.59377 332.25 206.59375 C 333.68681 206.59377 334.80929 206.84154 335.625 207.34375 C 336.44071 207.84596 336.99549 208.64515 337.25 209.75 L 346.8125 209.3125 C 346.39333 206.76798 345.0514 204.91628 342.84375 203.75 C 340.6352 202.58377 337.48712 202.03127 333.28125 202.03125 C 329.85364 202.03127 327.12452 202.32706 325.15625 202.96875 C 323.18798 203.61049 321.73038 204.50342 320.75 205.625 C 319.77042 206.74663 319.28125 207.92642 319.28125 209.1875 C 319.28125 211.10708 320.20912 212.69872 322.125 213.9375 C 324.02666 215.1763 327.22723 216.15851 331.6875 216.90625 C 334.41168 217.35266 336.15815 217.81029 336.90625 218.3125 C 337.65475 218.81471 338 219.39513 338 220.03125 C 338 220.70087 337.62941 221.30472 336.84375 221.8125 C 336.05718 222.32029 334.95184 222.56251 333.5 222.5625 C 331.55417 222.56251 330.01654 222.05578 328.96875 221.0625 C 328.32522 220.44869 327.89704 219.5781 327.6875 218.40625 L 318.34375 218.84375 L 310.3125 202.84375 L 299.1875 202.84375 L 289.84375 221.34375 L 274.5 221.34375 L 274.5 202.84375 L 264.34375 202.8125 L 329.4375 185.78125 L 326.65625 176.28125 L 264.8125 192.3125 L 262.34375 188.65625 L 373.40625 124.34375 L 365 111.46875 L 256.1875 178.5 L 253.09375 174.84375 L 298.71875 126.3125 L 290.8125 118.90625 L 245.34375 167.5625 L 241.1875 164.8125 L 307.625 51.125 L 292.28125 43.1875 L 231.4375 159.34375 L 226.53125 157.15625 L 243.8125 91.6875 L 232.6875 89.21875 L 217.3125 155.8125 L 211.625 154.84375 L 215.59375 18.46875 L 197.78125 18.46875 z M 249.90625 202.21875 C 253.81009 202.21877 256.79455 202.80517 258.84375 203.96875 C 260.8929 205.13237 262.11097 206.99251 262.5 209.53125 L 253.59375 209.9375 C 253.35756 208.83515 252.88214 208.03234 252.125 207.53125 C 251.36783 207.03019 250.30245 206.78127 248.96875 206.78125 C 247.87122 206.78127 247.0557 206.97074 246.5 207.34375 C 245.94428 207.71678 245.65624 208.1843 245.65625 208.71875 C 245.65624 209.1085 245.88528 209.46949 246.34375 209.78125 C 246.78831 210.10418 247.8641 210.37789 249.53125 210.65625 C 253.65738 211.3689 256.58976 212.11442 258.375 212.84375 C 260.16018 213.57309 261.46849 214.45118 262.28125 215.53125 C 263.09395 216.61135 263.49997 217.82007 263.5 219.15625 C 263.49997 220.72627 262.9586 222.17495 261.875 223.5 C 260.79133 224.82507 259.28872 225.84645 257.34375 226.53125 C 255.39874 227.21605 252.92788 227.5625 249.96875 227.5625 C 244.77285 227.5625 241.18805 226.75968 239.1875 225.15625 C 237.18694 223.55282 236.04521 221.50321 235.78125 219.03125 L 244.78125 218.59375 C 244.97574 219.76293 245.37134 220.63759 245.96875 221.25 C 246.94122 222.24101 248.31892 222.75 250.125 222.75 C 251.47258 222.75 252.52061 222.4754 253.25 221.96875 C 253.97935 221.46212 254.34373 220.88685 254.34375 220.21875 C 254.34373 219.58406 253.97586 219.03233 253.28125 218.53125 C 252.58659 218.03019 250.99721 217.53915 248.46875 217.09375 C 244.3287 216.34772 241.35811 215.36099 239.59375 214.125 C 237.81546 212.88905 236.9375 211.32146 236.9375 209.40625 C 236.9375 208.14803 237.37128 206.96284 238.28125 205.84375 C 239.19123 204.72472 240.57935 203.82777 242.40625 203.1875 C 244.23314 202.54726 246.72479 202.21877 249.90625 202.21875 z M 219.71875 202.5625 C 224.80347 202.56252 228.71796 203.65575 231.46875 205.84375 C 234.21949 208.03177 235.59372 211.08951 235.59375 215.03125 C 235.59372 217.89293 234.98294 220.26208 233.78125 222.09375 C 232.5795 223.92545 230.86518 225.3249 228.59375 226.34375 C 226.32226 227.36259 223.48355 227.875 220.09375 227.875 C 216.64833 227.875 213.78881 227.44216 211.53125 226.5625 C 209.27367 225.68284 207.43441 224.27908 206.03125 222.375 C 204.62808 220.47094 203.9375 218.11168 203.9375 215.25 C 203.9375 211.25257 205.3152 208.13324 208.09375 205.90625 C 210.8723 203.67929 214.75903 202.56252 219.71875 202.5625 z M 184.6875 202.96875 L 194.96875 202.96875 L 206.4375 227.46875 L 196.5625 227.46875 L 195.0625 223.4375 L 184.3125 223.4375 L 182.84375 227.46875 L 173.1875 227.46875 L 184.6875 202.96875 z M 148.96875 203.15625 L 158.40625 203.15625 L 158.40625 221.59375 L 173.15625 221.59375 L 173.15625 227.625 L 148.96875 227.625 L 148.96875 203.15625 z M 427.03125 207.75 C 429.16855 207.75002 430.84595 208.27794 432.09375 209.34375 C 433.34115 210.40961 433.96845 212.09603 433.96875 214.40625 C 433.96875 217.15177 433.383 219.06476 432.1875 220.125 C 430.992 221.18527 429.3067 221.71876 427.125 221.71875 C 425.003 221.71876 423.2953 221.17633 422.0625 220.09375 C 420.8296 219.01119 420.21865 217.22767 420.21875 214.75 C 420.21875 212.25001 420.85305 210.45759 422.09375 209.375 C 423.33375 208.29244 424.98395 207.75002 427.03125 207.75 z M 382.90625 207.8125 L 387.375 207.8125 C 389.2279 207.81251 390.48395 208.01343 391.15625 208.4375 C 391.82935 208.86164 392.1875 209.48885 392.1875 210.28125 C 392.1875 210.81696 391.95725 211.27457 391.53125 211.6875 C 391.10555 212.10044 390.57915 212.36833 389.90625 212.46875 C 388.57655 212.69198 387.6507 212.81252 387.1875 212.8125 L 382.90625 212.8125 L 382.90625 207.8125 z M 452.59375 207.8125 L 457.0625 207.8125 C 458.9155 207.81251 460.17115 208.01343 460.84375 208.4375 C 461.51585 208.86164 461.84345 209.48885 461.84375 210.28125 C 461.84375 210.81696 461.64445 211.27457 461.21875 211.6875 C 460.79245 212.10044 460.2349 212.36833 459.5625 212.46875 C 458.2325 212.69198 457.3383 212.81252 456.875 212.8125 L 452.59375 212.8125 L 452.59375 207.8125 z M 357.34375 208.09375 L 372.71875 208.09375 L 372.71875 212 L 357.34375 212 L 357.34375 208.09375 z M 219.6875 208.28125 C 217.7842 208.28127 216.24684 208.82617 215.09375 209.90625 C 213.94065 210.98635 213.37499 212.78705 213.375 215.28125 C 213.37499 217.75322 213.9476 219.51367 215.09375 220.59375 C 216.2399 221.67385 217.80847 222.21875 219.78125 222.21875 C 221.80957 222.21875 223.38855 221.68284 224.5 220.625 C 225.61138 219.5672 226.15622 217.6767 226.15625 214.9375 C 226.15622 212.63259 225.56626 210.9384 224.40625 209.875 C 223.24618 208.81164 221.67416 208.28127 219.6875 208.28125 z M 304.90625 209.21875 L 308.53125 218.03125 L 301.3125 218.03125 L 304.90625 209.21875 z M 189.71875 209.34375 L 186.375 218.125 L 193.09375 218.125 L 189.71875 209.34375 z M 357.34375 217 L 372.71875 217 L 372.71875 221.84375 L 357.34375 221.84375 L 357.34375 217 z "
       transform="translate(-344.75585,288.0638)"
       id="path3809-4-8" />
    <path
       inkscape:connector-curvature="0"
       id="path3805-1-1-9"
       style="font-size:39.11067580999999600px;font-style:normal;font-variant:normal;font-weight:normal;font-stretch:normal;line-height:125%;letter-spacing:0px;word-spacing:0px;fill:#ffffff;fill-opacity:1;stroke:#000000;stroke-width:1;display:inline;font-family:Arial Black;-inkscape-font-specification:Arial Black;stroke-miterlimit:4;stroke-dasharray:none"
       d="m -79.730204,515.27049 0,-24.48569"
       sodipodi:nodetypes="cc" />
  </g>
</svg>
