<?xml version="1.0" encoding="UTF-8" standalone="no"?>
<!-- Created with Inkscape (http://www.inkscape.org/) -->

<svg
   xmlns:dc="http://purl.org/dc/elements/1.1/"
   xmlns:cc="http://creativecommons.org/ns#"
   xmlns:rdf="http://www.w3.org/1999/02/22-rdf-syntax-ns#"
   xmlns:svg="http://www.w3.org/2000/svg"
   xmlns="http://www.w3.org/2000/svg"
   xmlns:sodipodi="http://sodipodi.sourceforge.net/DTD/sodipodi-0.dtd"
   xmlns:inkscape="http://www.inkscape.org/namespaces/inkscape"
   width="485.23471"
   height="396.02011"
   id="svg6120"
   version="1.1"
   inkscape:version="0.48.1 r9760"
   sodipodi:docname="laoslaser-logo-line.svg">
  <defs
     id="defs6122">
    <inkscape:perspective
       sodipodi:type="inkscape:persp3d"
       inkscape:vp_x="0 : 526.18109 : 1"
       inkscape:vp_y="0 : 1000 : 0"
       inkscape:vp_z="744.09448 : 526.18109 : 1"
       inkscape:persp3d-origin="372.04724 : 350.78739 : 1"
       id="perspective6128" />
    <inkscape:perspective
       id="perspective6113"
       inkscape:persp3d-origin="0.5 : 0.33333333 : 1"
       inkscape:vp_z="1 : 0.5 : 1"
       inkscape:vp_y="0 : 1000 : 0"
       inkscape:vp_x="0 : 0.5 : 1"
       sodipodi:type="inkscape:persp3d" />
    <inkscape:perspective
       id="perspective6159"
       inkscape:persp3d-origin="0.5 : 0.33333333 : 1"
       inkscape:vp_z="1 : 0.5 : 1"
       inkscape:vp_y="0 : 1000 : 0"
       inkscape:vp_x="0 : 0.5 : 1"
       sodipodi:type="inkscape:persp3d" />
    <inkscape:perspective
       id="perspective6231"
       inkscape:persp3d-origin="0.5 : 0.33333333 : 1"
       inkscape:vp_z="1 : 0.5 : 1"
       inkscape:vp_y="0 : 1000 : 0"
       inkscape:vp_x="0 : 0.5 : 1"
       sodipodi:type="inkscape:persp3d" />
    <inkscape:perspective
       id="perspective6299"
       inkscape:persp3d-origin="0.5 : 0.33333333 : 1"
       inkscape:vp_z="1 : 0.5 : 1"
       inkscape:vp_y="0 : 1000 : 0"
       inkscape:vp_x="0 : 0.5 : 1"
       sodipodi:type="inkscape:persp3d" />
    <inkscape:perspective
       id="perspective6333"
       inkscape:persp3d-origin="0.5 : 0.33333333 : 1"
       inkscape:vp_z="1 : 0.5 : 1"
       inkscape:vp_y="0 : 1000 : 0"
       inkscape:vp_x="0 : 0.5 : 1"
       sodipodi:type="inkscape:persp3d" />
    <inkscape:perspective
       id="perspective6909"
       inkscape:persp3d-origin="0.5 : 0.33333333 : 1"
       inkscape:vp_z="1 : 0.5 : 1"
       inkscape:vp_y="0 : 1000 : 0"
       inkscape:vp_x="0 : 0.5 : 1"
       sodipodi:type="inkscape:persp3d" />
    <inkscape:perspective
       id="perspective2878"
       inkscape:persp3d-origin="0.5 : 0.33333333 : 1"
       inkscape:vp_z="1 : 0.5 : 1"
       inkscape:vp_y="0 : 1000 : 0"
       inkscape:vp_x="0 : 0.5 : 1"
       sodipodi:type="inkscape:persp3d" />
  </defs>
  <sodipodi:namedview
     id="base"
     pagecolor="#ffffff"
     bordercolor="#666666"
     borderopacity="1.0"
     inkscape:pageopacity="0.0"
     inkscape:pageshadow="2"
     inkscape:zoom="1.6158537"
     inkscape:cx="229.20361"
     inkscape:cy="196.03794"
     inkscape:document-units="px"
     inkscape:current-layer="layer1"
     showgrid="false"
     inkscape:window-width="1366"
     inkscape:window-height="715"
     inkscape:window-x="0"
     inkscape:window-y="0"
     inkscape:window-maximized="1" />
  <metadata
     id="metadata6125">
    <rdf:RDF>
      <cc:Work
         rdf:about="">
        <dc:format>image/svg+xml</dc:format>
        <dc:type
           rdf:resource="http://purl.org/dc/dcmitype/StillImage" />
        <dc:title></dc:title>
      </cc:Work>
    </rdf:RDF>
  </metadata>
  <g
     inkscape:label="Layer 1"
     inkscape:groupmode="layer"
     id="layer1"
     transform="translate(327.07727,121.21155)">
    <path
       id="path2888-7"
       style="fill:none;stroke:#000000;stroke-width:0.87627047;stroke-linecap:butt;stroke-linejoin:miter;stroke-miterlimit:4;stroke-opacity:1;stroke-dasharray:none"
       d="m -8.0183087,87.970838 13.472659,0 0,4.24443 -13.472659,0 0,-4.24443 z M -111.66472,84.73959 c 0.2224,0.185744 0.47538,0.3767 0.73931,0.54767 1.66316,1.085568 4.44979,1.946188 8.352,2.601428 2.3832,0.39118 3.890907,0.79217 4.545657,1.23225 0.65475,0.44011 0.9858,0.94866 0.9858,1.50609 0,0.58679 -0.3258,1.1159 -1.01314,1.56086 -0.68761,0.44499 -1.68744,0.65722 -2.957417,0.6572 -1.70259,2e-5 -2.99929,-0.444 -3.91587,-1.3144 -0.5631,-0.53786 -0.93937,-1.30071 -1.12268,-2.32759 l -6.05205,0.27383 c 0.33158,-1.09498 0.4929,-2.3096 0.4929,-3.66938 0,-0.360676 -0.0272,-0.724004 -0.0543,-1.067958 z m 57.696891,-3.587232 3.17648,7.72213 -6.325534,0 3.149054,-7.72213 z m -98.744641,0 3.17648,7.72213 -6.32562,0 3.14914,-7.72213 z m 144.6941613,-0.985804 13.472659,0 0,3.422931 -13.472659,0 0,-3.422931 z m 83.4647627,-0.246451 3.91579,0 c 1.623729,9e-6 2.724062,0.176069 3.313441,0.547669 0.588942,0.371661 0.876008,0.921267 0.876271,1.615624 0,0.469426 -0.174641,0.870417 -0.547669,1.232255 -0.373554,0.361847 -0.862163,0.596591 -1.451367,0.684586 -1.16544,0.19561 -1.949001,0.301236 -2.354977,0.301218 l -3.751489,0 0,-4.381352 z m -61.065186,0 3.915877,0 c 1.623642,9e-6 2.724238,0.176069 3.313354,0.547669 0.589818,0.371661 0.903698,0.921267 0.903698,1.615624 0,0.469426 -0.201805,0.870417 -0.575096,1.232255 -0.373029,0.361847 -0.834297,0.596591 -1.42394,0.684586 -1.165177,0.19561 -1.976428,0.301236 -2.382316,0.301218 l -3.751577,0 0,-4.381352 z m 38.665434,-0.05477 c 1.872853,1.8e-5 3.342797,0.462618 4.436207,1.396556 1.09306,0.933982 1.642744,2.411742 1.643007,4.436119 0,2.405817 -0.513319,4.082117 -1.5609,5.011177 -1.047582,0.92908 -2.52436,1.39656 -4.43612,1.39655 -1.859446,1e-5 -3.355853,-0.47531 -4.436119,-1.42394 -1.080354,-0.94861 -1.615667,-2.51146 -1.61558,-4.68257 0,-2.190666 0.555819,-3.761311 1.643007,-4.709953 1.086576,-0.948615 2.53251,-1.423921 4.326498,-1.423939 z m -179.635442,0 c 1.87259,1.8e-5 3.34271,0.462618 4.4362,1.396556 1.09315,0.933982 1.67035,2.411742 1.67035,4.436119 0,2.405817 -0.54066,4.082117 -1.58824,5.011177 -1.04758,0.92908 -2.52436,1.39656 -4.43612,1.39655 -1.85944,1e-5 -3.32851,-0.47531 -4.40869,-1.42394 -1.08027,-0.94861 -1.61575,-2.51146 -1.61567,-4.68257 -8e-5,-2.190666 0.55608,-3.761311 1.64301,-4.709953 1.08684,-0.948615 2.50526,-1.423921 4.29916,-1.423939 z m 0.0272,-5.011172 c -4.67473,1.8e-5 -8.33447,0.946732 -10.95338,2.902646 -2.61891,1.955967 -3.91588,4.704144 -3.91579,8.215038 0,1.02016 0.11032,1.96627 0.3286,2.84788 l -6.68156,-13.253594 -9.6664,0 -8.48887,16.813444 0,-0.60244 -13.88346,0 0,-16.211004 -8.87223,0 0,21.496014 20.40071,0 2.35498,0 6.73633,0 1.39651,-3.53247 10.13196,0 1.42394,3.53247 9.28295,0 -2.30021,-4.57304 c 1.29644,1.553 2.95627,2.68678 4.98379,3.42293 2.12785,0.77259 4.80328,1.15011 8.05073,1.15011 3.19506,0 5.88206,-0.41957 8.0234,-1.31441 1.94856,-0.81464 3.48633,-1.93444 4.60042,-3.34078 0.53891,0.96003 1.27392,1.82807 2.27278,2.57404 1.88556,1.40828 5.28926,2.08115 10.18665,2.08115 2.789077,0 5.094547,-0.27481 6.928057,-0.87627 1.83245,-0.60144 3.27769,-1.49242 4.29916,-2.6562 0.27786,-0.31666 0.38007,-3.01245 0.7599,-3.1907 0.37982,-0.17826 -0.0479,6.72317 -0.0479,6.72317 l 22.783025,0 5.996932,0 1.3966,-3.53247 10.131877,0 1.42394,3.53247 9.310373,0 -1.232299,-2.40975 c 0.125307,0.10273 0.250876,0.22963 0.383456,0.3286 1.884946,1.40828 5.288906,2.08115 10.186644,2.08115 2.788381,0 5.094725,-0.27481 6.92797,-0.87627 1.833246,-0.60144 3.250438,-1.49242 4.271819,-2.6562 0.264721,-0.30161 0.51586,-0.61497 0.711969,-0.93104 l 0,4.46351 24.2617393,0 7.0375037,0 0,-8.70794 0.794164,0 c 0.811864,0 1.521644,0.1604 2.163249,0.4929 0.472134,0.25429 1.013319,0.79218 1.615667,1.64301 l 4.764721,6.57203 10.07711,0 7.311338,0 0,-3.77892 c 1.169734,1.14796 2.58675,2.02691 4.244479,2.62881 2.127848,0.77259 4.803277,1.15011 8.050735,1.15011 3.195057,0 5.882053,-0.41957 8.023395,-1.31441 2.140641,-0.89484 3.76884,-2.17014 4.901594,-3.77892 0.06747,-0.0952 0.128812,-0.1754 0.191641,-0.27383 l 0,5.36716 8.927093,0 0,-8.70794 0.794076,0 c 0.811865,0 1.548984,0.1604 2.190676,0.4929 0.471346,0.25429 0.985892,0.79218 1.588241,1.64301 l 4.76472,6.57203 10.049771,0 -4.299246,-6.21605 c -0.209516,-0.31294 -0.637662,-0.76477 -1.259638,-1.34179 -0.621977,-0.57699 -1.069138,-0.94669 -1.3966,-1.12272 -0.48414,-0.26405 -1.266912,-0.53005 -2.32755,-0.79412 1.322555,-0.22491 2.36225,-0.50661 3.121714,-0.84889 0.490448,-0.22138 0.937872,-0.48987 1.341833,-0.76673 0,2.22294 0.569926,4.19791 1.75254,5.91482 1.18428,1.72124 2.856993,3.01805 5.011128,3.88845 2.154049,0.87039 4.934193,1.28703 8.351993,1.28703 2.77524,0 5.17868,-0.22789 7.20181,-0.71197 2.02304,-0.4841 4.37802,-1.39851 7.01016,-2.73835 l 0,-9.173455 -13.77383,0 0,4.490885 5.9695,0 0,1.99899 c -1.16517,0.51833 -2.21819,0.90758 -3.12162,1.12272 -0.90431,0.21517 -1.85331,0.32861 -2.84788,0.32861 -2.09595,0 -3.72976,-0.50857 -4.90168,-1.50609 -1.172014,-0.99752 -1.752543,-2.65621 -1.752543,-4.98379 0,-2.190644 0.56607,-3.7799 1.725203,-4.792107 1.15808,-1.01218 2.73133,-1.533447 4.68253,-1.533473 1.30932,2.6e-5 2.38669,0.199536 3.23124,0.629819 0.84464,0.430328 1.42631,1.077761 1.77988,1.889459 l 8.59849,-1.150105 c -0.52462,-1.388688 -1.31396,-2.54568 -2.35506,-3.450315 -1.0404,-0.904601 -2.36462,-1.568673 -3.94322,-1.998992 -1.57711,-0.430293 -3.93717,-0.629802 -7.11969,-0.62982 -3.29908,1.8e-5 -5.907908,0.346232 -7.859012,1.040571 -2.381703,0.856791 -4.214686,2.081782 -5.504118,3.696766 C 91.927818,79.030636 91.596851,78.520953 91.164236,78.058028 90.274471,77.104541 89.11315,76.438523 87.659154,76.08642 86.205859,75.734395 84.083445,75.566151 81.33362,75.566134 l -14.814491,0 0,4.627803 c -0.607168,-0.937241 -1.410095,-1.743865 -2.382317,-2.46451 -2.592796,-1.921688 -6.297668,-2.875245 -11.090342,-2.875263 -4.674202,1.8e-5 -8.333858,0.946732 -10.953381,2.902646 -2.618471,1.955967 -3.91579,4.704144 -3.91579,8.215038 0,1.9612 0.427007,3.67161 1.2323,5.1207 l -6.873291,0 0,4.18967 -3.066946,-4.43612 c -0.209516,-0.31294 -0.61041,-0.76477 -1.232212,-1.34179 -0.622765,-0.57699 -1.124079,-0.94669 -1.451366,-1.12272 -0.484578,-0.26405 -1.239573,-0.53005 -2.30021,-0.79412 1.322555,-0.22491 2.362162,-0.50661 3.121713,-0.84889 1.191553,-0.53788 2.112163,-1.242994 2.793112,-2.108521 0.68095,-0.865475 1.040572,-1.901209 1.040572,-3.09433 0,-1.369147 -0.451367,-2.52415 -1.341746,-3.477699 -0.891285,-0.953487 -2.079069,-1.619505 -3.532539,-1.971608 -1.453557,-0.352025 -3.520767,-0.520269 -6.270854,-0.520286 l -13.3904647,0 -23.8236043,0 0,11.418904 c -0.09858,-0.14922 -0.212232,-0.32149 -0.328601,-0.46552 -0.766036,-0.948618 -1.986768,-1.741766 -3.669383,-2.382363 -1.682702,-0.640554 -4.46302,-1.263539 -8.351909,-1.889459 -1.571591,-0.244462 -2.565807,-0.510515 -2.98484,-0.79412 -0.432177,-0.273826 -0.657203,-0.588748 -0.657203,-0.931037 0,-0.469409 0.270154,-0.877243 0.794164,-1.204872 0.523046,-0.327611 1.293025,-0.465501 2.32755,-0.465519 1.25701,1.8e-5 2.243778,0.217114 2.957413,0.657203 0.713634,0.440089 1.201279,1.140352 1.423939,2.108526 l 8.379337,-0.383368 c -0.36672,-2.229758 -1.546267,-3.852243 -3.477655,-4.874255 -1.932176,-1.021968 -4.699877,-1.506072 -8.379424,-1.50609 -2.998685,1.8e-5 -5.370311,0.259192 -7.09227,0.821504 -1.72196,0.562355 -3.003417,1.344751 -3.861111,2.327593 -0.856993,0.982878 -1.286978,2.016632 -1.286978,3.121714 0,1.682115 0.81572,3.076743 2.49185,4.162285 1.663687,1.085558 4.449877,1.946188 8.351997,2.601428 2.38328,0.39118 3.918506,0.79217 4.572992,1.23225 0.654837,0.44009 0.958465,0.94866 0.958465,1.50609 0,0.58679 -0.325797,1.1159 -1.013144,1.56086 -0.688135,0.44498 -1.659919,0.65721 -2.930073,0.6572 -1.702331,10e-6 -3.026551,-0.44399 -3.943217,-1.3144 -0.563004,-0.53788 -0.939362,-1.30071 -1.122678,-2.32759 l -8.187696,0.38336 -7.037503,-14.020324 -9.72117,0 -8.160269,16.211004 -13.445229,0 0,-16.211004 -8.89966,0 c 0,0 0.14809,14.833914 0.0959,14.753634 -0.0522,-0.0803 -0.32702,-3.64566 -0.45189,-3.80025 -0.76534,-0.948618 -1.95934,-1.741766 -3.64196,-2.382363 -1.6827,-0.640554 -4.46302,-1.263539 -8.351907,-1.889459 -1.57159,-0.244462 -2.56581,-0.510515 -2.98484,-0.79412 -0.43209,-0.273826 -0.6572,-0.588748 -0.6572,-0.931037 0,-0.469409 0.2429,-0.877243 0.76674,-1.204872 0.52374,-0.327611 1.29311,-0.465501 2.32763,-0.465519 1.2564,1.8e-5 2.271027,0.217114 2.984757,0.657203 0.71363,0.440089 1.17367,1.140352 1.3966,2.108526 l 8.37924,-0.383368 c -0.36593,-2.229758 -1.49141,-3.852243 -3.42288,-4.874255 -1.93148,-1.021968 -4.75456,-1.506072 -8.434107,-1.50609 -2.99868,1.8e-5 -5.34297,0.259192 -7.06493,0.821504 -1.72196,0.562355 -3.03076,1.344751 -3.88845,2.327593 -0.55345,0.634218 -0.92639,1.286479 -1.12268,1.971609 -0.585,-0.841211 -1.32807,-1.585743 -2.2181,-2.245443 -2.59271,-1.921688 -6.27033,-2.875245 -11.06292,-2.875263 z m 41.043107,0.06418 53.035131,-14.305447 -2.429022,-8.33649 -54.403429,14.522038 -1.95066,-3.684691 L 6.0527553,6.7596038 -1.3165917,-4.5112231 -96.468433,54.227115 l -2.33141,-3.389423 39.395106,-42.3441232 -6.935856,-6.502409 -39.447937,42.2656272 -3.64731,-2.427313 57.834028,-99.226906 -13.438308,-6.9359 -53.31974,100.787219 -3.70566,-1.910418 14.54302,-56.394437 -9.75359,-2.167464 -13.65501,57.004391 -4.01367,-0.65184 2.7132,-118.342114 -15.60577,0 2.60095,118.777191 -4.04776,0.846293 -14.15895,-56.766939 -9.97038,1.733973 14.95548,55.920655 -3.06922,1.383806 -55.23562,-99.353316 -11.70435,6.935899 58.08815,97.752756 -3.6211,3.440571 -40.81195,-42.4549802 -6.50245,6.9359 39.25253,41.2761162 -2.62233,3.590457 -93.63458,-57.6546282 -6.50236,12.354555 93.85128,54.1866842 -2.11426,4.931676 -50.12171,-14.902032 -2.38416,8.669875 49.85173,15.172272 0.86698,4.985173 -109.89057,-2.167464 -0.21676,14.30528 108.59007,-1.30049 0.16781,6.38071 -51.10322,12.042762 2.16745,9.53687 52.23598,-13.22156 1.52979,3.43587 -93.43041,52.91828 6.93585,13.87179 91.46713,-56.35415 2.91737,3.80072 -37.16333,40.41561 5.41868,5.41866 39.66464,-39.23114 3.92394,4.10464 -58.54415,97.33282 13.8718,6.93589 54.40342,-99.48674 2.40458,0.76832 -14.32562,56.23608 7.80284,3.46793 14.95557,-57.22112 5.57527,0.0142 -1.67385,116.37875 13.22152,-0.21673 -1.73397,-116.17624 5.72205,-0.96575 14.00192,57.10316 9.3201,-2.16748 -14.30529,-57.22114 3.81677,-1.56505 54.271375,100.18481 12.137836,-6.06891 -57.871351,-98.8365 4.48204,-3.81395 40.384493,41.96137 6.285663,-5.63541 -40.314919,-42.04888 3.46214,-4.32464 93.8571533,58.07783 8.236417,-12.13781 -97.8611803,-55.81227 2.30257,-5.4261 54.376701,15.72155 2.817736,-9.32009 -54.620217,-13.655052" />
  </g>
</svg>
