<?xml version="1.0" encoding="UTF-8" standalone="no"?>
<!-- Created with Inkscape (http://www.inkscape.org/) -->

<svg
   xmlns:dc="http://purl.org/dc/elements/1.1/"
   xmlns:cc="http://creativecommons.org/ns#"
   xmlns:rdf="http://www.w3.org/1999/02/22-rdf-syntax-ns#"
   xmlns:svg="http://www.w3.org/2000/svg"
   xmlns="http://www.w3.org/2000/svg"
   xmlns:sodipodi="http://sodipodi.sourceforge.net/DTD/sodipodi-0.dtd"
   xmlns:inkscape="http://www.inkscape.org/namespaces/inkscape"
   width="1024"
   height="1024"
   id="svg4698"
   version="1.1"
   inkscape:version="0.48.2 r9819"
   inkscape:export-filename="/Users/jerry/laos_1024x1024.png"
   inkscape:export-xdpi="300"
   inkscape:export-ydpi="300"
   sodipodi:docname="New document 21">
  <defs
     id="defs4700">
    <inkscape:perspective
       sodipodi:type="inkscape:persp3d"
       inkscape:vp_x="0 : 526.18109 : 1"
       inkscape:vp_y="0 : 1000 : 0"
       inkscape:vp_z="744.09448 : 526.18109 : 1"
       inkscape:persp3d-origin="372.04724 : 350.78739 : 1"
       id="perspective6128-0" />
    <inkscape:perspective
       id="perspective6113-7"
       inkscape:persp3d-origin="0.5 : 0.33333333 : 1"
       inkscape:vp_z="1 : 0.5 : 1"
       inkscape:vp_y="0 : 1000 : 0"
       inkscape:vp_x="0 : 0.5 : 1"
       sodipodi:type="inkscape:persp3d" />
    <inkscape:perspective
       id="perspective6159-6"
       inkscape:persp3d-origin="0.5 : 0.33333333 : 1"
       inkscape:vp_z="1 : 0.5 : 1"
       inkscape:vp_y="0 : 1000 : 0"
       inkscape:vp_x="0 : 0.5 : 1"
       sodipodi:type="inkscape:persp3d" />
    <inkscape:perspective
       id="perspective6231-8"
       inkscape:persp3d-origin="0.5 : 0.33333333 : 1"
       inkscape:vp_z="1 : 0.5 : 1"
       inkscape:vp_y="0 : 1000 : 0"
       inkscape:vp_x="0 : 0.5 : 1"
       sodipodi:type="inkscape:persp3d" />
    <inkscape:perspective
       id="perspective6299-3"
       inkscape:persp3d-origin="0.5 : 0.33333333 : 1"
       inkscape:vp_z="1 : 0.5 : 1"
       inkscape:vp_y="0 : 1000 : 0"
       inkscape:vp_x="0 : 0.5 : 1"
       sodipodi:type="inkscape:persp3d" />
    <inkscape:perspective
       id="perspective6333-86"
       inkscape:persp3d-origin="0.5 : 0.33333333 : 1"
       inkscape:vp_z="1 : 0.5 : 1"
       inkscape:vp_y="0 : 1000 : 0"
       inkscape:vp_x="0 : 0.5 : 1"
       sodipodi:type="inkscape:persp3d" />
    <inkscape:perspective
       id="perspective6909-1"
       inkscape:persp3d-origin="0.5 : 0.33333333 : 1"
       inkscape:vp_z="1 : 0.5 : 1"
       inkscape:vp_y="0 : 1000 : 0"
       inkscape:vp_x="0 : 0.5 : 1"
       sodipodi:type="inkscape:persp3d" />
    <inkscape:perspective
       id="perspective2878-9"
       inkscape:persp3d-origin="0.5 : 0.33333333 : 1"
       inkscape:vp_z="1 : 0.5 : 1"
       inkscape:vp_y="0 : 1000 : 0"
       inkscape:vp_x="0 : 0.5 : 1"
       sodipodi:type="inkscape:persp3d" />
    <inkscape:perspective
       sodipodi:type="inkscape:persp3d"
       inkscape:vp_x="0 : 526.18109 : 1"
       inkscape:vp_y="0 : 1000 : 0"
       inkscape:vp_z="744.09448 : 526.18109 : 1"
       inkscape:persp3d-origin="372.04724 : 350.78739 : 1"
       id="perspective6128-1" />
    <inkscape:perspective
       id="perspective6113-1"
       inkscape:persp3d-origin="0.5 : 0.33333333 : 1"
       inkscape:vp_z="1 : 0.5 : 1"
       inkscape:vp_y="0 : 1000 : 0"
       inkscape:vp_x="0 : 0.5 : 1"
       sodipodi:type="inkscape:persp3d" />
    <inkscape:perspective
       id="perspective6159-5"
       inkscape:persp3d-origin="0.5 : 0.33333333 : 1"
       inkscape:vp_z="1 : 0.5 : 1"
       inkscape:vp_y="0 : 1000 : 0"
       inkscape:vp_x="0 : 0.5 : 1"
       sodipodi:type="inkscape:persp3d" />
    <inkscape:perspective
       id="perspective6231-0"
       inkscape:persp3d-origin="0.5 : 0.33333333 : 1"
       inkscape:vp_z="1 : 0.5 : 1"
       inkscape:vp_y="0 : 1000 : 0"
       inkscape:vp_x="0 : 0.5 : 1"
       sodipodi:type="inkscape:persp3d" />
    <inkscape:perspective
       id="perspective6299-0"
       inkscape:persp3d-origin="0.5 : 0.33333333 : 1"
       inkscape:vp_z="1 : 0.5 : 1"
       inkscape:vp_y="0 : 1000 : 0"
       inkscape:vp_x="0 : 0.5 : 1"
       sodipodi:type="inkscape:persp3d" />
    <inkscape:perspective
       id="perspective6333-8"
       inkscape:persp3d-origin="0.5 : 0.33333333 : 1"
       inkscape:vp_z="1 : 0.5 : 1"
       inkscape:vp_y="0 : 1000 : 0"
       inkscape:vp_x="0 : 0.5 : 1"
       sodipodi:type="inkscape:persp3d" />
    <inkscape:perspective
       id="perspective6909-3"
       inkscape:persp3d-origin="0.5 : 0.33333333 : 1"
       inkscape:vp_z="1 : 0.5 : 1"
       inkscape:vp_y="0 : 1000 : 0"
       inkscape:vp_x="0 : 0.5 : 1"
       sodipodi:type="inkscape:persp3d" />
    <inkscape:perspective
       id="perspective2878-7"
       inkscape:persp3d-origin="0.5 : 0.33333333 : 1"
       inkscape:vp_z="1 : 0.5 : 1"
       inkscape:vp_y="0 : 1000 : 0"
       inkscape:vp_x="0 : 0.5 : 1"
       sodipodi:type="inkscape:persp3d" />
    <inkscape:perspective
       sodipodi:type="inkscape:persp3d"
       inkscape:vp_x="0 : 526.18109 : 1"
       inkscape:vp_y="0 : 1000 : 0"
       inkscape:vp_z="744.09448 : 526.18109 : 1"
       inkscape:persp3d-origin="372.04724 : 350.78739 : 1"
       id="perspective6128" />
    <inkscape:perspective
       id="perspective6113"
       inkscape:persp3d-origin="0.5 : 0.33333333 : 1"
       inkscape:vp_z="1 : 0.5 : 1"
       inkscape:vp_y="0 : 1000 : 0"
       inkscape:vp_x="0 : 0.5 : 1"
       sodipodi:type="inkscape:persp3d" />
    <inkscape:perspective
       id="perspective6159"
       inkscape:persp3d-origin="0.5 : 0.33333333 : 1"
       inkscape:vp_z="1 : 0.5 : 1"
       inkscape:vp_y="0 : 1000 : 0"
       inkscape:vp_x="0 : 0.5 : 1"
       sodipodi:type="inkscape:persp3d" />
    <inkscape:perspective
       id="perspective6231"
       inkscape:persp3d-origin="0.5 : 0.33333333 : 1"
       inkscape:vp_z="1 : 0.5 : 1"
       inkscape:vp_y="0 : 1000 : 0"
       inkscape:vp_x="0 : 0.5 : 1"
       sodipodi:type="inkscape:persp3d" />
    <inkscape:perspective
       id="perspective6299"
       inkscape:persp3d-origin="0.5 : 0.33333333 : 1"
       inkscape:vp_z="1 : 0.5 : 1"
       inkscape:vp_y="0 : 1000 : 0"
       inkscape:vp_x="0 : 0.5 : 1"
       sodipodi:type="inkscape:persp3d" />
    <inkscape:perspective
       id="perspective6333"
       inkscape:persp3d-origin="0.5 : 0.33333333 : 1"
       inkscape:vp_z="1 : 0.5 : 1"
       inkscape:vp_y="0 : 1000 : 0"
       inkscape:vp_x="0 : 0.5 : 1"
       sodipodi:type="inkscape:persp3d" />
    <inkscape:perspective
       id="perspective6909"
       inkscape:persp3d-origin="0.5 : 0.33333333 : 1"
       inkscape:vp_z="1 : 0.5 : 1"
       inkscape:vp_y="0 : 1000 : 0"
       inkscape:vp_x="0 : 0.5 : 1"
       sodipodi:type="inkscape:persp3d" />
    <inkscape:perspective
       id="perspective2878"
       inkscape:persp3d-origin="0.5 : 0.33333333 : 1"
       inkscape:vp_z="1 : 0.5 : 1"
       inkscape:vp_y="0 : 1000 : 0"
       inkscape:vp_x="0 : 0.5 : 1"
       sodipodi:type="inkscape:persp3d" />
  </defs>
  <sodipodi:namedview
     id="base"
     pagecolor="#ffffff"
     bordercolor="#666666"
     borderopacity="1.0"
     inkscape:pageopacity="0.0"
     inkscape:pageshadow="2"
     inkscape:zoom="0.52539062"
     inkscape:cx="512"
     inkscape:cy="512"
     inkscape:current-layer="layer1"
     showgrid="true"
     inkscape:grid-bbox="true"
     inkscape:document-units="px"
     showguides="true"
     inkscape:guide-bbox="true"
     inkscape:window-width="1276"
     inkscape:window-height="756"
     inkscape:window-x="4"
     inkscape:window-y="0"
     inkscape:window-maximized="1" />
  <metadata
     id="metadata4703">
    <rdf:RDF>
      <cc:Work
         rdf:about="">
        <dc:format>image/svg+xml</dc:format>
        <dc:type
           rdf:resource="http://purl.org/dc/dcmitype/StillImage" />
        <dc:title></dc:title>
      </cc:Work>
    </rdf:RDF>
  </metadata>
  <g
     id="layer1"
     inkscape:label="Layer 1"
     inkscape:groupmode="layer"
     transform="translate(0,992)">
    <g
       inkscape:label="Layer 1"
       id="layer1-4"
       transform="matrix(33.044221,0,0,33.044221,-16.707536,-1008.7075)">
      <g
         transform="translate(0.42166048,-0.02273142)"
         id="g4666">
        <g
           style="display:inline"
           transform="matrix(0.38816255,0,0,0.38816255,65.965297,-161.25071)"
           id="layer1-5"
           inkscape:label="Layer 1">
          <rect
             style="fill:#ffffff;fill-opacity:1;stroke:none"
             id="rect4664"
             width="23.991238"
             height="8.2117662"
             x="-141.60382"
             y="452.13202" />
          <g
             id="g4657"
             transform="translate(0.96609011,-1.4491352)">
            <g
               inkscape:label="Layer 1"
               id="layer1-7"
               transform="matrix(-0.1990569,0,0,0.1990569,-158.46304,358.27576)"
               style="display:inline">
              <path
                 sodipodi:nodetypes="ccccccccccccccccccccccccccccccccccccccccccccccccccccccccccccccccccccccccccccccccccccccccccccccccccccccsscsscccsscsccccccccccccccccccccccc"
                 inkscape:connector-curvature="0"
                 style="font-size:39.11067581px;font-style:normal;font-variant:normal;font-weight:normal;font-stretch:normal;line-height:125%;letter-spacing:0px;word-spacing:0px;fill:#ffff00;stroke:#000000;stroke-width:1;stroke-miterlimit:4;stroke-dasharray:none;display:inline;font-family:Arial Black;-inkscape-font-specification:Arial Black"
                 d="M 197.78125,18.46875 200.75,154 196.15625,154.96875 180,90.1875 l -11.40625,2 17.09375,64.90625 -3.5,1.375 -63.0625,-114.28125 -13.34375,7.90625 66.28125,111.5625 -4.5625,3.03125 -46.125,-47.5625 -7.4375,7.9375 44.8125,47.09375 -3,4.09375 -106.84375,-65.78125 -7.4375,14.09375 107.09375,61.84375 -2.40625,5.625 -57.1875,-17 -2.71875,9.875 56.875,17.3125 -1,5.90625 -123.40625,-2.6875 -0.25,16.34375 123.90625,-1.5 0.21875,7.28125 -58.34375,13.75 2.5,10.875 58.5,-14.875 1.71875,4.15625 -105.5,59.9375 7.90625,15.84375 104.40625,-64.3125 3.3125,4.34375 -42.40625,46.125 6.1875,6.15625 45.25,-44.75 4.5,4.6875 -66.8125,111.0625 15.8125,7.90625 62.09375,-113.53125 2.75,0.875 L 168.125,342 l 8.90625,3.96875 17.0625,-65.3125 6.125,0.90625 -1.6875,131.9375 15.09375,-0.25 -2.65625,-131.6875 6.53125,-1.34375 16.65625,64.5 10.625,-2.46875 -16.3125,-65.3125 4.34375,-1.78125 L 294.75,389.5 l 13.875,-6.9375 -66.0625,-112.78125 5.125,-4.34375 46.09375,47.875 7.15625,-6.4375 -46,-47.96875 3.9375,-4.9375 L 366,320.25 l 9.40625,-13.875 -111.6875,-63.6875 2.625,-6.1875 62.0625,17.9375 3.21875,-10.625 -67.28125,-16.5625 c 4.48831,-12.79987 -4.14167,-11.38844 2.80801,-21.31226 l -2.80801,-3.12519 65.09375,-17.03125 -2.78125,-9.5 -61.84375,16.03125 -2.46875,-3.65625 111.0625,-64.3125 L 365,111.46875 256.1875,178.5 l -3.09375,-3.65625 45.625,-48.53125 -7.90625,-7.40625 -45.46875,48.65625 -4.15625,-2.75 66.4375,-113.6875 -15.34375,-7.9375 -60.84375,116.15625 -4.90625,-2.1875 17.28125,-65.46875 -11.125,-2.46875 -15.375,66.59375 -5.6875,-0.96875 3.96875,-136.375 z m 47.38732,179.59244 c 3.90384,2e-5 16.412,-3.03935 18.4612,-1.87577 2.04915,1.16362 0.60832,10.80709 0.99735,13.34583 4.49237,2.93137 2.31974,3.0161 2.6946,1.65678 4.12613,0.71265 -1.06323,0.15289 0.72201,0.88222 1.78518,0.72934 -6.57524,2.38093 -5.76248,3.461 0.8127,1.0801 1.21872,2.28882 1.21875,3.625 -3e-5,1.57002 -0.5414,3.0187 -1.625,4.34375 -1.08367,1.32507 -2.58628,2.34645 -4.53125,3.03125 -1.94501,0.6848 -4.41587,1.03125 -7.375,1.03125 -5.1959,0 -13.03494,3.83817 -15.03549,2.23474 15.89938,-8.02326 9.54688,3.02549 4.85525,1.63368 -2.88202,-0.85497 -2.92881,-0.81893 -2.31367,-6.44038 0.57858,-5.2873 -1.1983,-18.03085 7.69373,-26.92935 z m -23.70945,-6.71442 c 14.67292,3.57533 22.97605,29.33209 11.1955,36.93073 -2.27149,1.01884 -9.17107,-0.4025 -12.56087,-0.4025 -3.44542,0 -6.30494,-0.43284 -8.5625,-1.3125 -2.25758,-0.87966 -7.77096,-0.1563 -9.17412,-2.06038 -0.22215,0.2843 6.08381,-11.15806 8.27712,-17.56489 3.19767,-9.34064 3.53029,-14.94286 10.82487,-15.59046 z m -52.62834,-11.96973 30.97234,6.76812 8.96161,16.67946 c 0.91787,8.07705 -1.53304,13.30574 -4.98233,20.26918 l 2.6551,4.37495 -9.875,0 -1.5,-4.03125 -10.75,0 -1.46875,4.03125 -6.75563,-1.93375 -0.13505,-26.93425 z m -16.76804,13.9171 2.86277,-5.02774 5.99461,-11.14882 13.34168,21.99784 1.79507,18.61084 -15.46997,18.79397 -11.61815,-8.89523 -1.76256,-10.35625 1.71948,-18.00786 z"
                 transform="translate(-344.75585,288.0638)"
                 id="path3809-4-8" />
              <path
                 inkscape:connector-curvature="0"
                 id="path3805-1-1-9-8"
                 style="font-size:39.11067581px;font-style:normal;font-variant:normal;font-weight:normal;font-stretch:normal;line-height:125%;letter-spacing:0px;word-spacing:0px;fill:#ffffff;fill-opacity:1;stroke:#000000;stroke-width:1;stroke-miterlimit:4;stroke-dasharray:none;display:inline;font-family:Arial Black;-inkscape-font-specification:Arial Black"
                 d="m -79.730204,515.27049 0,-24.48569"
                 sodipodi:nodetypes="cc" />
            </g>
            <g
               inkscape:label="Layer 1"
               id="layer1-1"
               transform="matrix(0.1990569,0,0,0.1990569,-103.08696,357.35194)"
               style="display:inline">
              <path
                 sodipodi:nodetypes="cccccccccccccccccccccccccccccccccccccccccccccccccccccccccccccccccccccccccccccccccccccccccccccccccccscccccccssscccssccccscccsccccsssssscccccccccccccccccsssssccccccc"
                 inkscape:connector-curvature="0"
                 style="font-size:39.11067581px;font-style:normal;font-variant:normal;font-weight:normal;font-stretch:normal;line-height:125%;letter-spacing:0px;word-spacing:0px;fill:#ffff00;stroke:#000000;stroke-width:1;stroke-miterlimit:4;stroke-dasharray:none;display:inline;font-family:Arial Black;-inkscape-font-specification:Arial Black"
                 d="M 197.78125,18.46875 200.75,154 196.15625,154.96875 180,90.1875 l -11.40625,2 17.09375,64.90625 -3.5,1.375 -63.0625,-114.28125 -13.34375,7.90625 66.28125,111.5625 -4.5625,3.03125 -46.125,-47.5625 -7.4375,7.9375 44.8125,47.09375 -3,4.09375 -106.84375,-65.78125 -7.4375,14.09375 107.09375,61.84375 -2.40625,5.625 -57.1875,-17 -2.71875,9.875 56.875,17.3125 -1,5.90625 -123.40625,-2.6875 -0.25,16.34375 123.90625,-1.5 0.21875,7.28125 -58.34375,13.75 2.5,10.875 58.5,-14.875 1.71875,4.15625 -105.5,59.9375 7.90625,15.84375 104.40625,-64.3125 3.3125,4.34375 -42.40625,46.125 6.1875,6.15625 45.25,-44.75 4.5,4.6875 -66.8125,111.0625 15.8125,7.90625 62.09375,-113.53125 2.75,0.875 L 168.125,342 l 8.90625,3.96875 17.0625,-65.3125 6.125,0.90625 -1.6875,131.9375 15.09375,-0.25 -2.65625,-131.6875 6.53125,-1.34375 16.65625,64.5 10.625,-2.46875 -16.3125,-65.3125 4.34375,-1.78125 L 294.75,389.5 l 13.875,-6.9375 -66.0625,-112.78125 5.125,-4.34375 46.09375,47.875 7.15625,-6.4375 -46,-47.96875 3.9375,-4.9375 L 366,320.25 l 9.40625,-13.875 -111.6875,-63.6875 2.625,-6.1875 62.0625,17.9375 3.21875,-10.625 -64.76738,-14.43538 c 8.14555,0.0655 -2.96189,-24.07422 4.64099,-21.15008 l 57.93889,-22.44574 -2.78125,-9.5 -61.84375,16.03125 -2.46875,-3.65625 111.0625,-64.3125 L 365,111.46875 256.1875,178.5 l -3.09375,-3.65625 45.625,-48.53125 -7.90625,-7.40625 -45.46875,48.65625 -4.15625,-2.75 66.4375,-113.6875 -15.34375,-7.9375 -60.84375,116.15625 -4.90625,-2.1875 17.28125,-65.46875 -11.125,-2.46875 -15.375,66.59375 -5.6875,-0.96875 3.96875,-136.375 z m 52.125,183.75 c 3.90384,2e-5 6.8883,0.58642 8.9375,1.75 2.04915,1.16362 3.26722,3.02376 3.65625,5.5625 l -8.90625,0.40625 c -0.23619,-1.10235 -0.71161,-1.90516 -1.46875,-2.40625 -0.75717,-0.50106 -1.82255,-0.74998 -3.15625,-0.75 -1.09753,2e-5 -1.91305,0.18949 -2.46875,0.5625 -0.55572,0.37303 -0.84376,0.84055 -0.84375,1.375 -1e-5,0.38975 0.22903,0.75074 0.6875,1.0625 0.44456,0.32293 1.52035,0.59664 3.1875,0.875 4.12613,0.71265 7.05851,1.45817 8.84375,2.1875 1.78518,0.72934 3.09349,1.60743 3.90625,2.6875 0.8127,1.0801 1.21872,2.28882 1.21875,3.625 -3e-5,1.57002 -0.5414,3.0187 -1.625,4.34375 -1.08367,1.32507 -2.58628,2.34645 -4.53125,3.03125 -1.94501,0.6848 -4.41587,1.03125 -7.375,1.03125 -5.1959,0 -8.7807,-0.80282 -10.78125,-2.40625 -2.00056,-1.60343 -3.14229,-3.65304 -3.40625,-6.125 l 9,-0.4375 c 0.19449,1.16918 0.59009,2.04384 1.1875,2.65625 0.97247,0.99101 2.35017,1.5 4.15625,1.5 1.34758,0 2.39561,-0.2746 3.125,-0.78125 0.72935,-0.50663 1.09373,-1.0819 1.09375,-1.75 -2e-5,-0.63469 -0.36789,-1.18642 -1.0625,-1.6875 -0.69466,-0.50106 -2.28404,-0.9921 -4.8125,-1.4375 -4.14005,-0.74603 -7.11064,-1.73276 -8.875,-2.96875 -1.77829,-1.23595 -2.65625,-2.80354 -2.65625,-4.71875 0,-1.25822 0.43378,-2.44341 1.34375,-3.5625 0.90998,-1.11903 2.2981,-2.01598 4.125,-2.65625 1.82689,-0.64024 4.31854,-0.96873 7.5,-0.96875 z m -30.1875,0.34375 c 5.08472,2e-5 8.99921,1.09325 11.75,3.28125 2.75074,2.18802 4.12497,5.24576 4.125,9.1875 -3e-5,2.86168 -0.61081,5.23083 -1.8125,7.0625 -1.20175,1.8317 -2.91607,3.23115 -5.1875,4.25 -2.27149,1.01884 -5.1102,1.53125 -8.5,1.53125 -3.44542,0 -6.30494,-0.43284 -8.5625,-1.3125 -2.25758,-0.87966 -4.09684,-2.28342 -5.5,-4.1875 -1.40317,-1.90406 -2.09375,-4.26332 -2.09375,-7.125 0,-3.99743 1.3777,-7.11676 4.15625,-9.34375 2.77855,-2.22696 6.66528,-3.34373 11.625,-3.34375 z m -35.03125,0.40625 10.28125,0 11.46875,24.5 -9.875,0 -1.5,-4.03125 -10.75,0 -1.46875,4.03125 -9.65625,0 z m -35.71875,0.1875 9.4375,0 0,18.4375 14.75,0 0,6.03125 -24.1875,0 z m 70.71875,5.125 c -1.9033,2e-5 -3.44066,0.54492 -4.59375,1.625 -1.1531,1.0801 -1.71876,2.8808 -1.71875,5.375 -1e-5,2.47197 0.5726,4.23242 1.71875,5.3125 1.14615,1.0801 2.71472,1.625 4.6875,1.625 2.02832,0 3.6073,-0.53591 4.71875,-1.59375 1.11138,-1.0578 1.65622,-2.9483 1.65625,-5.6875 -3e-5,-2.30491 -0.58999,-3.9991 -1.75,-5.0625 -1.16007,-1.06336 -2.73209,-1.59373 -4.71875,-1.59375 z m -29.96875,1.0625 -3.34375,8.78125 6.71875,0 z"
                 transform="translate(-344.75585,288.0638)"
                 id="path3809-4-8-3" />
            </g>
          </g>
        </g>
      </g>
    </g>
  </g>
</svg>
