<?xml version="1.0" encoding="UTF-8" standalone="no"?>
<!-- Created with Inkscape (http://www.inkscape.org/) -->

<svg
   xmlns:dc="http://purl.org/dc/elements/1.1/"
   xmlns:cc="http://creativecommons.org/ns#"
   xmlns:rdf="http://www.w3.org/1999/02/22-rdf-syntax-ns#"
   xmlns:svg="http://www.w3.org/2000/svg"
   xmlns="http://www.w3.org/2000/svg"
   xmlns:sodipodi="http://sodipodi.sourceforge.net/DTD/sodipodi-0.dtd"
   xmlns:inkscape="http://www.inkscape.org/namespaces/inkscape"
   width="1183.2712"
   height="1426.5875"
   id="svg6120"
   version="1.1"
   inkscape:version="0.47 r22583"
   sodipodi:docname="laoslaser-logos.svg">
  <defs
     id="defs6122">
    <inkscape:perspective
       sodipodi:type="inkscape:persp3d"
       inkscape:vp_x="0 : 526.18109 : 1"
       inkscape:vp_y="0 : 1000 : 0"
       inkscape:vp_z="744.09448 : 526.18109 : 1"
       inkscape:persp3d-origin="372.04724 : 350.78739 : 1"
       id="perspective6128" />
    <inkscape:perspective
       id="perspective6113"
       inkscape:persp3d-origin="0.5 : 0.33333333 : 1"
       inkscape:vp_z="1 : 0.5 : 1"
       inkscape:vp_y="0 : 1000 : 0"
       inkscape:vp_x="0 : 0.5 : 1"
       sodipodi:type="inkscape:persp3d" />
    <inkscape:perspective
       id="perspective6159"
       inkscape:persp3d-origin="0.5 : 0.33333333 : 1"
       inkscape:vp_z="1 : 0.5 : 1"
       inkscape:vp_y="0 : 1000 : 0"
       inkscape:vp_x="0 : 0.5 : 1"
       sodipodi:type="inkscape:persp3d" />
    <inkscape:perspective
       id="perspective6231"
       inkscape:persp3d-origin="0.5 : 0.33333333 : 1"
       inkscape:vp_z="1 : 0.5 : 1"
       inkscape:vp_y="0 : 1000 : 0"
       inkscape:vp_x="0 : 0.5 : 1"
       sodipodi:type="inkscape:persp3d" />
    <inkscape:perspective
       id="perspective6299"
       inkscape:persp3d-origin="0.5 : 0.33333333 : 1"
       inkscape:vp_z="1 : 0.5 : 1"
       inkscape:vp_y="0 : 1000 : 0"
       inkscape:vp_x="0 : 0.5 : 1"
       sodipodi:type="inkscape:persp3d" />
    <filter
       color-interpolation-filters="sRGB"
       inkscape:collect="always"
       id="filter6097">
      <feGaussianBlur
         inkscape:collect="always"
         stdDeviation="7.3885864"
         id="feGaussianBlur6099" />
    </filter>
    <inkscape:perspective
       id="perspective6333"
       inkscape:persp3d-origin="0.5 : 0.33333333 : 1"
       inkscape:vp_z="1 : 0.5 : 1"
       inkscape:vp_y="0 : 1000 : 0"
       inkscape:vp_x="0 : 0.5 : 1"
       sodipodi:type="inkscape:persp3d" />
    <inkscape:perspective
       id="perspective6909"
       inkscape:persp3d-origin="0.5 : 0.33333333 : 1"
       inkscape:vp_z="1 : 0.5 : 1"
       inkscape:vp_y="0 : 1000 : 0"
       inkscape:vp_x="0 : 0.5 : 1"
       sodipodi:type="inkscape:persp3d" />
    <inkscape:perspective
       id="perspective2878"
       inkscape:persp3d-origin="0.5 : 0.33333333 : 1"
       inkscape:vp_z="1 : 0.5 : 1"
       inkscape:vp_y="0 : 1000 : 0"
       inkscape:vp_x="0 : 0.5 : 1"
       sodipodi:type="inkscape:persp3d" />
  </defs>
  <sodipodi:namedview
     id="base"
     pagecolor="#ffffff"
     bordercolor="#666666"
     borderopacity="1.0"
     inkscape:pageopacity="0.0"
     inkscape:pageshadow="2"
     inkscape:zoom="0.44862302"
     inkscape:cx="699.39244"
     inkscape:cy="734.70111"
     inkscape:document-units="px"
     inkscape:current-layer="layer1"
     showgrid="false"
     inkscape:window-width="1680"
     inkscape:window-height="975"
     inkscape:window-x="0"
     inkscape:window-y="24"
     inkscape:window-maximized="1" />
  <metadata
     id="metadata6125">
    <rdf:RDF>
      <cc:Work
         rdf:about="">
        <dc:format>image/svg+xml</dc:format>
        <dc:type
           rdf:resource="http://purl.org/dc/dcmitype/StillImage" />
        <dc:title />
      </cc:Work>
    </rdf:RDF>
  </metadata>
  <g
     inkscape:label="Layer 1"
     inkscape:groupmode="layer"
     id="layer1"
     transform="translate(390.46956,138.97126)">
    <g
       id="g3703"
       transform="translate(-1314.6475,104.76502)">
      <path
         id="path2864"
         style="opacity:0.39743593;fill:#000000;stroke:#000000;stroke-width:1.5;stroke-linecap:butt;stroke-linejoin:miter;stroke-miterlimit:4;stroke-opacity:1;stroke-dasharray:none;filter:url(#filter6097)"
         d="m 1238.6686,390.31998 60.5237,-16.32538 -2.772,-9.5136 -62.0852,16.57255 -2.2262,-4.20497 111.0608,-64.31136 -8.41,-12.86227 -108.5872,67.0322 -2.6606,-3.86801 44.9577,-48.32312 -7.9153,-7.42055 -45.0179,48.23354 -4.1624,-2.77005 66.0002,-113.23776 -15.3358,-7.91525 -60.8484,115.01839 -4.229,-2.18017 16.5966,-64.35734 -11.1309,-2.47351 -15.5831,65.05342 -4.5804,-0.74388 3.0963,-135.05204 -17.8093,0 2.9682,135.54855 -4.6193,0.96579 -16.1582,-64.78244 -11.3782,1.97881 17.0673,63.81666 -3.5026,1.5792 -63.0349,-113.38202 -13.357,7.91525 66.2902,111.55546 -4.1324,3.92638 -46.5747,-48.44963 -7.4205,7.91525 44.795,47.10431 -2.9926,4.09743 -106.8558,-65.79547 -7.4206,14.09902 107.1032,61.83785 -2.4129,5.62803 -57.1988,-17.0062 -2.7209,9.89406 56.8909,17.3146 0.9894,5.68908 -125.4072,-2.47351 -0.24737,16.32519 123.92307,-1.48412 0.1914,7.28166 -58.319,13.74321 2.4735,10.88347 59.6117,-15.08844 1.7459,3.92101 -106.6229,60.39035 7.9153,15.83049 104.3822,-64.31136 3.3293,4.33738 -42.4108,46.1223 6.1838,6.18378 45.2653,-44.77059 4.4781,4.68422 -66.8106,111.07623 15.8305,7.91524 62.0852,-113.53429 2.744,0.87681 -16.3484,64.17662 8.9047,3.95761 17.0672,-65.30076 6.3625,0.0162 -1.9102,132.81145 15.0885,-0.24734 -1.9788,-132.58034 6.5299,-1.10211 15.9791,65.16613 10.6361,-2.47353 -16.3252,-65.30077 4.3556,-1.78604 61.9345,114.33092 13.8517,-6.92584 -66.0428,-112.79223 5.115,-4.35248 46.0867,47.88632 7.1732,-6.43113 -46.0073,-47.98618 3.951,-4.93528 107.1097,66.27842 9.3994,-13.85167 -111.6792,-63.69297 2.6277,-6.19226 62.0547,17.94143 3.2156,-10.63609 -62.3326,-15.58314 m -47.2121,-26.19319 c -5.3349,2e-5 -9.5093,1.10812 -12.498,3.34021 -2.9887,2.23215 -4.4724,5.36458 -4.4724,9.37121 0,1.16421 0.1489,2.24137 0.3976,3.24746 l -7.628,-15.12383 -11.0568,0 -9.6654,19.16922 0,-0.66804 -15.8523,0 0,-18.50118 -10.1375,0 0,24.53214 23.2815,0 2.7083,0 7.6776,0 1.5902,-4.04538 11.5786,0 1.6151,4.04538 10.6095,0 -2.6337,-5.23302 c 1.4794,1.77228 3.3761,3.07539 5.6899,3.91549 2.4283,0.88168 5.4873,1.31753 9.1933,1.31753 3.6462,0 6.7003,-0.50047 9.1436,-1.52166 2.2243,-0.92967 3.972,-2.19924 5.2427,-3.80416 0.6157,1.09559 1.469,2.08068 2.6089,2.93199 2.1519,1.60713 6.0394,2.39383 11.6283,2.39383 3.183,0 5.8092,-0.33424 7.9013,-1.02063 2.0921,-0.68636 3.7292,-1.69665 4.8948,-3.02475 0.3171,-0.36137 0.5891,-0.73388 0.8199,-1.11342 l 0,5.1588 25.9898,0 6.8577,0 1.5902,-4.04538 11.5537,0 1.6151,4.04538 10.6344,0 -1.3914,-2.7464 c 0.142,0.11723 0.2711,0.23962 0.4224,0.35257 2.1518,1.60713 6.0394,2.39383 11.6283,2.39383 3.1829,0 5.8091,-0.33424 7.9012,-1.02063 2.0921,-0.68636 3.7292,-1.69665 4.8949,-3.02475 0.302,-0.3442 0.5713,-0.69705 0.7951,-1.05775 l 0,5.10313 27.7041,0 8.0255,0 0,-9.94646 0.8945,0 c 0.9265,0 1.7524,0.17725 2.4847,0.5567 0.538,0.29019 1.1512,0.92183 1.8387,1.8928 l 5.4414,7.49696 11.4792,0 8.3485,0 0,-4.30518 c 1.334,1.31005 2.9534,2.30076 4.8452,2.98765 2.4283,0.88168 5.4873,1.31753 9.1933,1.31753 3.6462,0 6.7003,-0.50047 9.1436,-1.52166 2.4432,-1.02119 4.2979,-2.4507 5.5905,-4.28663 0.076,-0.10868 0.1516,-0.22169 0.2236,-0.33402 l 0,6.14231 10.2121,0 0,-9.94646 0.8944,0 c 0.9265,0 1.7525,0.17725 2.4847,0.5567 0.538,0.29019 1.1513,0.92183 1.8387,1.8928 l 5.4166,7.49696 11.4792,0 -4.9197,-7.10727 c -0.2391,-0.35713 -0.7064,-0.86317 -1.4162,-1.52166 -0.7099,-0.65846 -1.2415,-1.07953 -1.6151,-1.28041 -0.5529,-0.30134 -1.4482,-0.60795 -2.6586,-0.9093 1.5093,-0.25667 2.7112,-0.59289 3.578,-0.9835 0.5596,-0.25264 1.0547,-0.53768 1.5156,-0.85363 0,2.53682 0.6636,4.7768 2.0126,6.73614 1.3524,1.96427 3.2565,3.44179 5.7148,4.43509 2.4582,0.99328 5.6409,1.48454 9.5411,1.48454 3.1681,0 5.9155,-0.26406 8.2243,-0.8165 2.3087,-0.55245 4.9721,-1.58854 7.9758,-3.11756 l 0,-10.46605 -15.7032,0 0,5.10313 6.8081,0 0,2.30105 c -1.3301,0.59152 -2.522,1.01634 -3.5531,1.26186 -1.0312,0.24555 -2.1193,0.37115 -3.255,0.37115 -2.391,0 -4.253,-0.56885 -5.5905,-1.70723 -1.3375,-1.13837 -2.0125,-3.04071 -2.0125,-5.69695 0,-2.49996 0.6651,-4.31914 1.9877,-5.47427 1.3225,-1.1551 3.0905,-1.74432 5.3172,-1.74435 1.4943,3e-5 2.7383,0.25123 3.7022,0.74227 0.9638,0.49109 1.6339,1.20773 2.0374,2.13404 l 9.8145,-1.31754 c -0.5979,-1.58477 -1.4955,-2.88312 -2.6835,-3.91549 -1.188,-1.03233 -2.6965,-1.7914 -4.4972,-2.28248 -1.8007,-0.49105 -4.5186,-0.74225 -8.1498,-0.74227 -3.7658,2e-5 -6.7431,0.39525 -8.9697,1.18763 -2.7179,0.97777 -4.815,2.38794 -6.2862,4.23096 -0.2538,-0.64006 -0.6248,-1.21606 -1.1181,-1.74435 -1.0162,-1.08812 -2.3416,-1.84356 -4.0003,-2.24538 -1.6588,-0.40173 -4.0675,-0.59379 -7.2056,-0.59381 l -16.9207,0 0,5.28869 c -0.6934,-1.06958 -1.5987,-2.01679 -2.7083,-2.83919 -2.9588,-2.19303 -7.1777,-3.28453 -12.647,-3.28455 -5.3348,2e-5 -9.5092,1.10812 -12.4979,3.34021 -2.9887,2.23215 -4.4724,5.36458 -4.4724,9.37121 0,2.23812 0.4724,4.17315 1.3914,5.82686 l -7.8267,0 0,4.78766 -3.5034,-5.06602 c -0.2392,-0.35713 -0.7065,-0.86317 -1.4163,-1.52166 -0.7099,-0.65846 -1.2663,-1.07953 -1.6399,-1.28041 -0.5529,-0.30134 -1.4234,-0.60795 -2.6338,-0.9093 1.5093,-0.25667 2.6864,-0.59289 3.5531,-0.9835 1.3599,-0.61383 2.4282,-1.40611 3.2053,-2.39385 0.777,-0.98768 1.1677,-2.16419 1.1678,-3.52578 -10e-5,-1.56247 -0.4996,-2.88299 -1.5157,-3.97118 -1.0162,-1.08812 -2.3665,-1.84356 -4.0252,-2.24538 -1.6587,-0.40173 -4.0426,-0.59379 -7.1807,-0.59381 l -15.2559,0 -27.2072,0 0,13.00835 c -0.1126,-0.17028 -0.24,-0.33667 -0.3727,-0.50104 -0.8743,-1.08256 -2.2541,-1.99681 -4.1743,-2.72786 -1.9203,-0.731 -5.103,-1.45685 -9.5412,-2.17115 -1.7932,-0.27898 -2.9258,-0.56706 -3.404,-0.89071 -0.4931,-0.31249 -0.7454,-0.66713 -0.7454,-1.05775 0,-0.53569 0.2967,-0.99932 0.8945,-1.37321 0.5977,-0.37387 1.4781,-0.55669 2.6586,-0.55671 1.4346,2e-5 2.5647,0.25861 3.3792,0.76084 0.8144,0.50223 1.3609,1.3075 1.615,2.41238 l 9.566,-0.4268 c -0.4184,-2.5446 -1.7465,-4.40074 -3.9506,-5.56706 -2.2042,-1.16627 -5.3917,-1.74431 -9.5909,-1.74433 -3.4221,2e-5 -6.1101,0.32323 -8.0752,0.96494 -1.9651,0.64176 -3.4439,1.51346 -4.4227,2.63508 -0.9788,1.12166 -1.466,2.32035 -1.466,3.58147 0,1.91963 0.9446,3.49318 2.8574,4.732 1.8979,1.23884 5.088,2.23989 9.5412,2.98765 2.7197,0.44642 4.4458,0.9081 5.193,1.41032 0.7471,0.50223 1.118,1.07108 1.1181,1.70722 -10e-5,0.66964 -0.3833,1.27366 -1.1678,1.78145 -0.7846,0.50781 -1.9048,0.76085 -3.3543,0.76084 -1.9427,1e-5 -3.4513,-0.5098 -4.4973,-1.50311 -0.6426,-0.61383 -1.058,-1.5003 -1.2672,-2.67218 l -9.3424,0.4268 -8.0504,-15.97743 -11.0816,0 -9.3176,18.50118 -15.3553,0 0,-18.50118 -10.1375,0 0,13.04546 c -0.1192,-0.18323 -0.2551,-0.36173 -0.3975,-0.53815 -0.8742,-1.08256 -2.254,-1.99681 -4.1743,-2.72786 -1.9202,-0.731 -5.1029,-1.45685 -9.5411,-2.17115 -1.7933,-0.27898 -2.9259,-0.56706 -3.404,-0.89071 -0.4932,-0.31249 -0.7455,-0.66713 -0.7454,-1.05775 -10e-5,-0.53569 0.2967,-0.99932 0.8944,-1.37321 0.5978,-0.37387 1.4781,-0.55669 2.6586,-0.55671 1.4346,2e-5 2.5648,0.25861 3.3792,0.76084 0.8144,0.50223 1.361,1.3075 1.615,2.41238 l 9.5661,-0.4268 c -0.4185,-2.5446 -1.7217,-4.40074 -3.9258,-5.56706 -2.2042,-1.16627 -5.4166,-1.74431 -9.6157,-1.74433 -3.4221,2e-5 -6.1102,0.32323 -8.0752,0.96494 -1.9651,0.64176 -3.444,1.51346 -4.4228,2.63508 -0.6316,0.72377 -1.0679,1.48206 -1.292,2.26393 -0.667,-0.95999 -1.4938,-1.82655 -2.5095,-2.5794 -2.9589,-2.19303 -7.1777,-3.28453 -12.647,-3.28455 z m -0.025,5.73406 c 2.1369,2e-5 3.8209,0.53007 5.0687,1.59588 1.2478,1.06586 1.8883,2.75579 1.8884,5.06601 -10e-5,2.74552 -0.5936,4.65527 -1.789,5.71551 -1.1955,1.06027 -2.887,1.5959 -5.0687,1.59589 -2.1221,1e-5 -3.8111,-0.55042 -5.0439,-1.633 -1.2329,-1.08256 -1.8387,-2.86669 -1.8387,-5.34436 0,-2.49999 0.6232,-4.28034 1.8635,-5.36293 1.2403,-1.08256 2.8724,-1.63298 4.9197,-1.633 z m 204.9859,0 c 2.1369,2e-5 3.821,0.53007 5.0688,1.59588 1.2477,1.06586 1.8883,2.75579 1.8883,5.06601 0,2.74552 -0.5935,4.65527 -1.7889,5.71551 -1.1955,1.06027 -2.8871,1.5959 -5.0688,1.59589 -2.122,1e-5 -3.8111,-0.55042 -5.0439,-1.633 -1.2328,-1.08256 -1.8387,-2.86669 -1.8387,-5.34436 0,-2.49999 0.6232,-4.28034 1.8636,-5.36293 1.2403,-1.08256 2.8723,-1.63298 4.9196,-1.633 z m -44.103,0.0556 4.4724,0 c 1.853,10e-6 3.1042,0.20684 3.7767,0.63091 0.6724,0.42414 1.0187,1.04475 1.0187,1.83715 0,0.53571 -0.2201,0.99739 -0.646,1.41032 -0.4259,0.41294 -0.9674,0.67895 -1.6399,0.77937 -1.33,0.22323 -2.245,0.33404 -2.7083,0.33402 l -4.2736,0 0,-4.99177 z m 69.6952,0 4.4476,0 c 1.853,10e-6 3.1291,0.20684 3.8015,0.63091 0.6725,0.42414 0.9939,1.04475 0.9939,1.83715 0,0.53571 -0.2201,0.99739 -0.646,1.41032 -0.4259,0.41294 -0.9674,0.67895 -1.6399,0.77937 -1.33,0.22323 -2.2202,0.33404 -2.6834,0.33402 l -4.2737,0 0,-4.99177 z m -95.2626,0.27834 15.3802,0 0,3.91549 -15.3802,0 0,-3.91549 z m -165.1317,1.13198 3.6277,8.8145 -7.2305,0 3.6028,-8.8145 z m 112.705,0 3.6277,8.8145 -7.2304,0 3.6027,-8.8145 z m -65.8439,4.10106 c 0.2538,0.21197 0.5186,0.41725 0.8199,0.61236 1.8978,1.23885 5.088,2.2399 9.5412,2.98766 2.7197,0.44642 4.4458,0.90809 5.193,1.41031 0.7471,0.50225 1.118,1.07109 1.118,1.70724 0,0.66964 -0.3832,1.27366 -1.1678,1.78145 -0.7845,0.50782 -1.9048,0.76084 -3.3543,0.76082 -1.9426,2e-5 -3.4263,-0.50979 -4.4724,-1.50309 -0.6426,-0.61381 -1.0828,-1.50031 -1.292,-2.67219 l -6.9074,0.31547 c 0.3783,-1.24959 0.5714,-2.64206 0.5714,-4.19384 0,-0.4116 -0.018,-0.81367 -0.05,-1.20619 z m 118.2706,3.67424 15.3802,0 0,4.84334 -15.3802,0 0,-4.84334 z" />
      <path
         id="path2890"
         d="m 1238.8063,385.41448 60.5237,-16.32538 -2.772,-9.5136 -62.0852,16.57255 -2.2261,-4.20497 111.0607,-64.31136 -8.4099,-12.86227 -108.5873,67.0322 -2.6606,-3.86801 44.9577,-48.32312 -7.9152,-7.42055 -45.018,48.23354 -4.1623,-2.77005 66.0002,-113.23776 -15.3358,-7.91525 -60.8485,115.01839 -4.2289,-2.18017 16.5965,-64.35734 -11.1308,-2.47351 -15.5831,65.05342 -4.5804,-0.74388 3.0963,-135.05204 -17.8093,0 2.9682,135.54855 -4.6193,0.96579 -16.1582,-64.78244 -11.3782,1.97881 17.0672,63.81666 -3.5026,1.5792 -63.0349,-113.38202 -13.357,7.91525 66.2902,111.55546 -4.1324,3.92638 -46.5746,-48.44963 -7.4206,7.91525 44.795,47.10431 -2.9926,4.09743 -106.8558,-65.79547 -7.4205,14.09902 107.1031,61.83785 -2.4128,5.62803 -57.1989,-17.0062 -2.7208,9.89406 56.8908,17.3146 0.9894,5.68908 -125.40714,-2.47351 -0.24737,16.32519 123.92301,-1.48412 0.1915,7.28166 -58.319,13.74321 2.4735,10.88347 59.6117,-15.08844 1.7458,3.92101 -106.6228,60.39035 7.9152,15.83049 104.3823,-64.31136 3.3293,4.33738 -42.4108,46.1223 6.1838,6.18378 45.2653,-44.77059 4.478,4.68422 -66.8106,111.07623 15.8305,7.91524 62.0852,-113.53429 2.7441,0.87681 -16.3484,64.17662 8.9046,3.95761 17.0673,-65.30076 6.3625,0.0162 -1.9102,132.81145 15.0884,-0.24734 -1.9788,-132.58034 6.53,-1.10211 15.979,65.16613 10.6361,-2.47353 -16.3252,-65.30077 4.3557,-1.78604 61.9345,114.33092 13.8517,-6.92584 -66.0428,-112.79223 5.1149,-4.35248 46.0868,47.88632 7.1732,-6.43113 -46.0074,-47.98618 3.951,-4.93528 107.1098,66.27842 9.3994,-13.85167 -111.6792,-63.69297 2.6277,-6.19226 62.0547,17.94143 3.2156,-10.63609 -62.3326,-15.58314"
         style="fill:#ffff00;stroke:#000000;stroke-width:1.5;stroke-linecap:butt;stroke-linejoin:miter;stroke-miterlimit:4;stroke-opacity:1;stroke-dasharray:none" />
      <path
         transform="translate(-390.46956,-138.97126)"
         id="path2888"
         d="m 1582.4375,524.3125 c -5.3348,2e-5 -9.5113,1.08041 -12.5,3.3125 -2.9887,2.23215 -4.4688,5.36837 -4.4687,9.375 0,1.16421 0.1259,2.24391 0.375,3.25 l -7.625,-15.125 -11.0313,0 -9.6875,19.1875 0,-0.6875 -15.8438,0 0,-18.5 -10.125,0 0,24.53125 23.2813,0 2.6875,0 7.6875,0 1.5937,-4.03125 11.5626,0 1.625,4.03125 10.5937,0 -2.625,-5.21875 c 1.4795,1.77228 3.3737,3.06615 5.6875,3.90625 2.4283,0.88168 5.4815,1.3125 9.1875,1.3125 3.6462,0 6.7126,-0.47881 9.1563,-1.5 2.2237,-0.92967 3.9786,-2.20758 5.25,-3.8125 0.615,1.09559 1.4538,2.08619 2.5937,2.9375 2.1518,1.60713 6.0361,2.375 11.625,2.375 3.1829,0 5.8139,-0.31361 7.9063,-1 2.0912,-0.68636 3.7405,-1.70315 4.9062,-3.03125 0.3171,-0.36137 0.5817,-0.74546 0.8125,-1.125 l 0,5.15625 26,0 6.8437,0 1.5938,-4.03125 11.5625,0 1.625,4.03125 10.625,0 -1.4063,-2.75 c 0.143,0.11723 0.2863,0.26205 0.4376,0.375 2.1511,1.60713 6.0357,2.375 11.625,2.375 3.1821,0 5.8141,-0.31361 7.9062,-1 2.0921,-0.68636 3.7094,-1.70315 4.875,-3.03125 0.3021,-0.3442 0.5887,-0.7018 0.8125,-1.0625 l 0,5.09375 27.6875,0 8.0312,0 0,-9.9375 0.9063,0 c 0.9265,0 1.7365,0.18305 2.4687,0.5625 0.5388,0.29019 1.1564,0.90403 1.8438,1.875 l 5.4375,7.5 11.5,0 8.3437,0 0,-4.3125 c 1.3349,1.31005 2.952,2.31311 4.8438,3 2.4283,0.88168 5.4815,1.3125 9.1875,1.3125 3.6462,0 6.7126,-0.47881 9.1563,-1.5 2.4429,-1.02119 4.301,-2.47657 5.5937,-4.3125 0.077,-0.10868 0.147,-0.20017 0.2187,-0.3125 l 0,6.125 10.1876,0 0,-9.9375 0.9062,0 c 0.9265,0 1.7677,0.18305 2.5,0.5625 0.5379,0.29019 1.1251,0.90403 1.8125,1.875 l 5.4375,7.5 11.4688,0 -4.9063,-7.09375 c -0.2391,-0.35713 -0.7277,-0.87276 -1.4375,-1.53125 -0.7098,-0.65846 -1.2201,-1.08037 -1.5938,-1.28125 -0.5525,-0.30134 -1.4458,-0.6049 -2.6562,-0.90625 1.5093,-0.25667 2.6958,-0.57814 3.5625,-0.96875 0.5597,-0.25264 1.0703,-0.55905 1.5313,-0.875 0,2.53682 0.6504,4.79066 2,6.75 1.3515,1.96427 3.2604,3.4442 5.7187,4.4375 2.4582,0.99328 5.6309,1.46875 9.5313,1.46875 3.1671,0 5.9099,-0.26006 8.2187,-0.8125 2.3087,-0.55245 4.9962,-1.59598 8,-3.125 l 0,-10.46875 -15.7187,0 0,5.125 6.8124,0 0,2.28125 c -1.3297,0.59152 -2.5314,1.03573 -3.5624,1.28125 -1.032,0.24555 -2.115,0.375 -3.25,0.375 -2.3919,0 -4.2564,-0.58037 -5.5938,-1.71875 -1.3375,-1.13837 -2,-3.03126 -2,-5.6875 0,-2.49996 0.646,-4.31362 1.9688,-5.46875 1.3216,-1.1551 3.117,-1.74997 5.3437,-1.75 1.4942,3e-5 2.7237,0.22771 3.6875,0.71875 0.9639,0.49109 1.6277,1.22994 2.0312,2.15625 l 9.8126,-1.3125 c -0.5987,-1.58477 -1.4995,-2.90513 -2.6876,-3.9375 -1.1873,-1.03233 -2.6985,-1.79017 -4.5,-2.28125 -1.7998,-0.49105 -4.4931,-0.71873 -8.125,-0.71875 -3.7649,2e-5 -6.7421,0.39512 -8.9687,1.1875 -2.718,0.97777 -4.8098,2.37573 -6.2813,4.21875 -0.2536,-0.64006 -0.6313,-1.22171 -1.125,-1.75 -1.0154,-1.08812 -2.3407,-1.84818 -4,-2.25 -1.6585,-0.40173 -4.0806,-0.59373 -7.2187,-0.59375 l -16.9063,0 0,5.28125 c -0.6929,-1.06958 -1.6092,-1.9901 -2.7187,-2.8125 -2.9589,-2.19303 -7.1869,-3.28123 -12.6563,-3.28125 -5.3342,2e-5 -9.5106,1.08041 -12.5,3.3125 -2.9882,2.23215 -4.4687,5.36837 -4.4687,9.375 0,2.23812 0.4873,4.19004 1.4063,5.84375 l -7.8438,0 0,4.78125 -3.5,-5.0625 c -0.2391,-0.35713 -0.6966,-0.87276 -1.4062,-1.53125 -0.7107,-0.65846 -1.2828,-1.08037 -1.6563,-1.28125 -0.553,-0.30134 -1.4146,-0.6049 -2.625,-0.90625 1.5093,-0.25667 2.6957,-0.57814 3.5625,-0.96875 1.3598,-0.61383 2.4104,-1.41851 3.1875,-2.40625 0.7771,-0.98768 1.1875,-2.16966 1.1875,-3.53125 0,-1.56247 -0.5151,-2.88056 -1.5312,-3.96875 -1.0171,-1.08812 -2.3726,-1.84818 -4.0313,-2.25 -1.6588,-0.40173 -4.0179,-0.59373 -7.1563,-0.59375 l -15.2812,0 -27.1875,0 0,13.03125 c -0.1125,-0.17028 -0.2422,-0.36688 -0.375,-0.53125 -0.8742,-1.08256 -2.2673,-1.9877 -4.1875,-2.71875 -1.9203,-0.731 -5.0932,-1.44195 -9.5312,-2.15625 -1.7935,-0.27898 -2.9281,-0.5826 -3.4063,-0.90625 -0.4932,-0.31249 -0.75,-0.67188 -0.75,-1.0625 0,-0.53569 0.3083,-1.00111 0.9063,-1.375 0.5969,-0.37387 1.4756,-0.53123 2.6562,-0.53125 1.4345,2e-5 2.5606,0.24777 3.375,0.75 0.8144,0.50223 1.3709,1.30137 1.625,2.40625 l 9.5625,-0.4375 c -0.4185,-2.5446 -1.7646,-4.39618 -3.9687,-5.5625 -2.205,-1.16627 -5.3635,-1.71873 -9.5626,-1.71875 -3.4221,2e-5 -6.1286,0.29579 -8.0937,0.9375 -1.9651,0.64176 -3.4275,1.53463 -4.4063,2.65625 -0.978,1.12166 -1.4687,2.30138 -1.4687,3.5625 0,1.91963 0.9309,3.51118 2.8437,4.75 1.8986,1.23884 5.0782,2.22099 9.5313,2.96875 2.7198,0.44642 4.4718,0.90403 5.2187,1.40625 0.7473,0.50223 1.0938,1.08261 1.0938,1.71875 0,0.66964 -0.3718,1.27346 -1.1562,1.78125 -0.7853,0.50781 -1.8943,0.75001 -3.3438,0.75 -1.9427,10e-6 -3.4539,-0.50669 -4.5,-1.5 -0.6425,-0.61383 -1.072,-1.48437 -1.2812,-2.65625 l -9.3438,0.4375 -8.0312,-16 -11.0938,0 -9.3125,18.5 -15.3437,0 0,-18.5 -10.1563,0 0,13.0625 c -0.1192,-0.18323 -0.2638,-0.38608 -0.4063,-0.5625 -0.8734,-1.08256 -2.236,-1.9877 -4.1562,-2.71875 -1.9203,-0.731 -5.0932,-1.44195 -9.5312,-2.15625 -1.7935,-0.27898 -2.9281,-0.5826 -3.4063,-0.90625 -0.4931,-0.31249 -0.75,-0.67188 -0.75,-1.0625 0,-0.53569 0.2772,-1.00111 0.875,-1.375 0.5977,-0.37387 1.4757,-0.53123 2.6563,-0.53125 1.4338,2e-5 2.5917,0.24777 3.4062,0.75 0.8144,0.50223 1.3394,1.30137 1.5938,2.40625 l 9.5624,-0.4375 c -0.4176,-2.5446 -1.702,-4.39618 -3.9062,-5.5625 -2.2042,-1.16627 -5.4259,-1.71873 -9.625,-1.71875 -3.4221,2e-5 -6.0974,0.29579 -8.0625,0.9375 -1.9651,0.64176 -3.4587,1.53463 -4.4375,2.65625 -0.6316,0.72377 -1.0572,1.46813 -1.2812,2.25 -0.6676,-0.95999 -1.5156,-1.80965 -2.5313,-2.5625 -2.9588,-2.19303 -7.1557,-3.28123 -12.625,-3.28125 z m -0.031,5.71875 c 2.137,2e-5 3.8147,0.52794 5.0626,1.59375 1.2475,1.06586 1.9062,2.75228 1.9062,5.0625 0,2.74552 -0.617,4.65851 -1.8125,5.71875 -1.1955,1.06027 -2.8808,1.59376 -5.0625,1.59375 -2.122,10e-6 -3.7985,-0.54242 -5.0312,-1.625 -1.2328,-1.08256 -1.8439,-2.86608 -1.8438,-5.34375 -10e-5,-2.49999 0.6346,-4.29241 1.875,-5.375 1.2403,-1.08256 2.859,-1.62498 4.9062,-1.625 z m 205,0 c 2.1373,2e-5 3.8148,0.52794 5.0626,1.59375 1.2474,1.06586 1.8747,2.75228 1.875,5.0625 0,2.74552 -0.5858,4.65851 -1.7813,5.71875 -1.1955,1.06027 -2.8808,1.59376 -5.0625,1.59375 -2.122,10e-6 -3.8297,-0.54242 -5.0625,-1.625 -1.2329,-1.08256 -1.8438,-2.86608 -1.8437,-5.34375 0,-2.49999 0.6343,-4.29241 1.875,-5.375 1.24,-1.08256 2.8901,-1.62498 4.9374,-1.625 z m -44.125,0.0625 4.4688,0 c 1.8529,10e-6 3.1089,0.20093 3.7812,0.625 0.6731,0.42414 1.0313,1.05135 1.0313,1.84375 0,0.53571 -0.2303,0.99332 -0.6563,1.40625 -0.4257,0.41294 -0.9521,0.68083 -1.625,0.78125 -1.3297,0.22323 -2.2555,0.34377 -2.7187,0.34375 l -4.2813,0 0,-5 z m 69.6876,0 4.4687,0 c 1.853,10e-6 3.1087,0.20093 3.7813,0.625 0.6721,0.42414 0.9997,1.05135 1,1.84375 0,0.53571 -0.1993,0.99332 -0.625,1.40625 -0.4263,0.41294 -0.9839,0.68083 -1.6563,0.78125 -1.33,0.22323 -2.2242,0.34377 -2.6875,0.34375 l -4.2812,0 0,-5 z m -95.25,0.28125 15.375,0 0,3.90625 -15.375,0 0,-3.90625 z m -165.125,1.125 3.625,8.8125 -7.2188,0 3.5938,-8.8125 z m 112.6874,0 3.625,8.8125 -7.2187,0 3.5937,-8.8125 z m -65.8437,4.09375 c 0.2538,0.21197 0.5425,0.42989 0.8437,0.625 1.898,1.23885 5.0781,2.22099 9.5313,2.96875 2.7197,0.44642 4.4403,0.90403 5.1875,1.40625 0.7472,0.50225 1.125,1.0826 1.125,1.71875 0,0.66964 -0.3718,1.27346 -1.1562,1.78125 -0.7847,0.50782 -1.9257,0.75002 -3.375,0.75 -1.943,2e-5 -3.4228,-0.5067 -4.4688,-1.5 -0.6426,-0.61381 -1.072,-1.48437 -1.2812,-2.65625 L 1598.9375,541 c 0.3784,-1.24959 0.5625,-2.63572 0.5625,-4.1875 0,-0.4116 -0.031,-0.82623 -0.062,-1.21875 z m 118.2813,3.6875 15.375,0 0,4.84375 -15.375,0 0,-4.84375 z"
         style="fill:#ffff00;stroke:#000000;stroke-width:2;stroke-linecap:butt;stroke-linejoin:miter;stroke-miterlimit:4;stroke-opacity:1;stroke-dasharray:none" />
    </g>
    <g
       id="g3779"
       transform="translate(-1301.7611,-91.39077)">
      <rect
         y="819.51715"
         x="931.35297"
         height="550.57361"
         width="679.85822"
         id="rect3727"
         style="fill:#000000;fill-opacity:1;fill-rule:nonzero;stroke:#000000;stroke-width:2.5;stroke-linejoin:miter;stroke-miterlimit:4;stroke-opacity:1;stroke-dasharray:none" />
      <path
         id="path3720"
         d="m 1225.432,1074.1889 60.5237,-16.3255 -2.772,-9.5136 -62.0852,16.5726 -2.2261,-4.2049 111.0607,-64.31148 -8.4099,-12.86227 -108.5873,67.03225 -2.6606,-3.868 44.9577,-48.32318 -7.9152,-7.42055 -45.018,48.23363 -4.1623,-2.7701 66.0002,-113.2378 -15.3358,-7.91525 -60.8485,115.01845 -4.2289,-2.1802 16.5965,-64.35737 -11.1308,-2.47351 -15.5831,65.05348 -4.5804,-0.7439 3.0963,-135.05208 -17.8093,0 2.9682,135.54858 -4.6193,0.9658 -16.1582,-64.78248 -11.3782,1.97881 17.0672,63.81667 -3.5026,1.5792 -63.035,-113.38203 -13.357,7.91525 66.2903,111.55548 -4.1324,3.9264 -46.5747,-48.44967 -7.4206,7.91525 44.7951,47.10432 -2.9926,4.0975 -106.8559,-65.79555 -7.42047,14.09902 107.10317,61.83793 -2.4128,5.628 -57.199,-17.0062 -2.7208,9.8941 56.8909,17.3146 0.9894,5.6891 -125.40717,-2.4735 -0.2473,16.3251 123.92297,-1.4841 0.1915,7.2817 -58.3191,13.7432 2.4735,10.8835 59.6118,-15.0885 1.7458,3.921 -106.62287,60.3904 7.91517,15.8305 104.3824,-64.3114 3.3293,4.3374 -42.4109,46.1223 6.1838,6.1838 45.2654,-44.7706 4.478,4.6842 -66.8107,111.0763 15.8305,7.9152 62.0853,-113.5343 2.7441,0.8768 -16.3484,64.1766 8.9046,3.9576 17.0673,-65.3007 6.3625,0.016 -1.9102,132.8114 15.0884,-0.2473 -1.9788,-132.5804 6.53,-1.1021 15.979,65.1662 10.6361,-2.4736 -16.3252,-65.3007 4.3557,-1.7861 61.9345,114.331 13.8517,-6.9259 -66.0428,-112.7922 5.1149,-4.3525 46.0868,47.8863 7.1732,-6.4311 -46.0074,-47.9862 3.951,-4.9353 107.1098,66.2785 9.3994,-13.8517 -111.6792,-63.693 2.6277,-6.1923 62.0547,17.9415 3.2156,-10.6361 -62.3326,-15.5832"
         style="fill:#ffff00;stroke:#000000;stroke-width:1.5;stroke-linecap:butt;stroke-linejoin:miter;stroke-miterlimit:4;stroke-opacity:1;stroke-dasharray:none" />
      <path
         style="fill:#ffff00;stroke:#000000;stroke-width:2.5;stroke-linecap:butt;stroke-linejoin:miter;stroke-miterlimit:4;stroke-opacity:1;stroke-dasharray:none"
         d="m 1178.594,1074.092 c -5.3348,0 -9.5113,1.1116 -12.5,3.3437 -2.9887,2.2322 -4.4688,5.3684 -4.4688,9.375 0,1.1642 0.1266,2.2439 0.375,3.25 l -7.625,-15.125 -11.0624,0 -9.6563,19.1563 0,-0.6563 -15.8437,0 0,-18.5 -10.125,0 0,24.5313 23.2812,0 2.6875,0 7.6875,0 1.5938,-4.0313 11.5624,0 1.625,4.0313 10.5938,0 -2.625,-5.2188 c 1.4795,1.7723 3.3737,3.0664 5.6875,3.9062 2.4283,0.8825 5.4815,1.3124 9.1875,1.3126 3.6462,0 6.7131,-0.5101 9.1562,-1.5313 2.2252,-0.9297 3.98,-2.1759 5.25,-3.7813 0.6166,1.0964 1.4539,2.055 2.5938,2.9063 2.1518,1.6071 6.0361,2.4063 11.625,2.4063 3.1829,0 5.8144,-0.3449 7.9062,-1.0313 2.0924,-0.6864 3.7406,-1.6719 4.9063,-3 0.3171,-0.3614 0.5817,-0.7455 0.8125,-1.125 l 0,5.1563 26,0 6.8438,0 1.5937,-4.0313 11.5625,0 1.625,4.0313 10.625,0 -1.4062,-2.75 c 0.1413,0.1168 0.2862,0.2308 0.4374,0.3437 2.1522,1.6071 6.0363,2.4063 11.625,2.4063 3.183,0 5.8142,-0.3449 7.9063,-1.0313 2.0921,-0.6864 3.7094,-1.6719 4.875,-3 0.3021,-0.3442 0.5887,-0.7018 0.8125,-1.0625 l 0,5.0938 27.6875,0 8.0313,0 0,-9.9376 0.9062,0 c 0.9265,0 1.7365,0.1829 2.4688,0.5626 0.5371,0.2893 1.1563,0.9036 1.8437,1.875 l 5.4375,7.5 11.5,0 8.3438,0 0,-4.3126 c 1.3333,1.3107 2.9519,2.3136 4.8437,3 2.4283,0.8825 5.4815,1.3124 9.1875,1.3126 3.6462,0 6.7131,-0.5101 9.1562,-1.5313 2.4441,-1.0212 4.3011,-2.4453 5.5938,-4.2813 0.077,-0.1078 0.1465,-0.2314 0.2188,-0.3437 l 0,6.1563 10.1874,0 0,-9.9376 0.9063,0 c 0.9265,0 1.7677,0.1829 2.5,0.5626 0.5379,0.2893 1.1251,0.9036 1.8125,1.875 l 5.4375,7.5 11.4687,0 -4.9062,-7.0938 c -0.2391,-0.3571 -0.7277,-0.8731 -1.4375,-1.5312 -0.7098,-0.6593 -1.2202,-1.0804 -1.5937,-1.2813 -0.5539,-0.3013 -1.4459,-0.6049 -2.6563,-0.9063 1.5093,-0.2563 2.6958,-0.6091 3.5625,-1 0.5597,-0.2518 1.0703,-0.5278 1.5312,-0.8437 0,2.5368 0.6513,4.7907 2,6.75 1.3524,1.9643 3.2605,3.4442 5.7188,4.4375 2.4582,0.9933 5.631,1.4688 9.5312,1.4688 3.1685,0 5.91,-0.2598 8.2188,-0.8126 2.3087,-0.5516 4.9962,-1.5956 8,-3.125 l 0,-10.4687 -15.7188,0 0,5.125 6.8126,0 0,2.2813 c -1.3308,0.5907 -2.5314,1.0357 -3.5626,1.2812 -1.0303,0.2455 -2.1139,0.3438 -3.25,0.3438 -2.3902,0 -4.2563,-0.549 -5.5937,-1.6876 -1.3375,-1.1375 -2,-3.0625 -2,-5.7187 0,-2.5 0.6462,-4.3137 1.9687,-5.4687 1.3225,-1.1558 3.1171,-1.75 5.3438,-1.75 1.4942,0 2.7237,0.2588 3.6875,0.75 0.9639,0.4909 1.6277,1.2299 2.0313,2.1562 l 9.8124,-1.3438 c -0.5978,-1.5842 -1.4994,-2.8738 -2.6874,-3.9062 -1.189,-1.0323 -2.6997,-1.7903 -4.5,-2.2812 -1.8015,-0.4919 -4.4946,-0.75 -8.125,-0.75 -3.7666,0 -6.7422,0.3953 -8.9688,1.1874 -2.718,0.9783 -4.8413,2.4071 -6.3125,4.25 -0.2539,-0.6392 -0.6005,-1.2215 -1.0937,-1.75 -1.0171,-1.0873 -2.3417,-1.8479 -4,-2.25 -1.6595,-0.4009 -4.0807,-0.5937 -7.2188,-0.5937 l -16.9062,0 0,5.2813 c -0.6944,-1.0704 -1.6093,-2.0214 -2.7188,-2.8438 -2.9589,-2.193 -7.187,-3.2812 -12.6562,-3.2812 -5.3358,0 -9.5118,1.1116 -12.5,3.3437 -2.9896,2.2322 -4.4688,5.3684 -4.4688,9.375 0,2.2381 0.4875,4.1588 1.4062,5.8125 l -7.8437,0 0,4.8125 -3.5,-5.0625 c -0.2391,-0.3571 -0.6961,-0.8731 -1.4063,-1.5312 -0.7092,-0.6593 -1.2827,-1.0804 -1.6562,-1.2813 -0.553,-0.3013 -1.4146,-0.6049 -2.625,-0.9063 1.5093,-0.2563 2.6957,-0.6091 3.5625,-1 1.3598,-0.6132 2.4104,-1.387 3.1875,-2.375 0.7771,-0.9873 1.1875,-2.1696 1.1875,-3.5312 0,-1.5625 -0.5151,-2.8805 -1.5313,-3.9688 -1.0154,-1.0873 -2.3725,-1.8479 -4.0312,-2.25 -1.6588,-0.4009 -4.0184,-0.5937 -7.1562,-0.5937 l -15.2813,0 -27.1875,0 0,13 c -0.1125,-0.1703 -0.2422,-0.3356 -0.375,-0.5 -0.8742,-1.0826 -2.2673,-1.9877 -4.1875,-2.7187 -1.9203,-0.731 -5.0931,-1.473 -9.5313,-2.1876 -1.7924,-0.2781 -2.928,-0.5511 -3.4062,-0.875 -0.4932,-0.3116 -0.75,-0.6718 -0.75,-1.0624 0,-0.5365 0.3084,-1.0015 0.9062,-1.375 0.5986,-0.3741 1.4757,-0.5624 2.6563,-0.5626 1.4345,9e-4 2.5606,0.2791 3.375,0.7813 0.8144,0.5022 1.3709,1.3014 1.625,2.4063 l 9.5625,-0.4376 c -0.4185,-2.5437 -1.7645,-4.3962 -3.9688,-5.5624 -2.2038,-1.1667 -5.3633,-1.75 -9.5624,-1.75 -3.423,0 -6.1287,0.327 -8.0938,0.9687 -1.9651,0.6418 -3.4275,1.5034 -4.4062,2.625 -0.9792,1.1217 -1.4688,2.3326 -1.4688,3.5937 0,1.9203 0.9309,3.5114 2.8438,4.75 1.8976,1.2397 5.0781,2.221 9.5312,2.9688 2.7198,0.4464 4.4715,0.9041 5.2188,1.4062 0.7464,0.5031 1.0937,1.0827 1.0937,1.7188 0,0.6696 -0.3718,1.2737 -1.1563,1.7812 -0.7844,0.5082 -1.8942,0.7502 -3.3437,0.75 -1.9427,9e-4 -3.4539,-0.5066 -4.5,-1.5 -0.6425,-0.6132 -1.072,-1.4843 -1.2813,-2.6562 l -9.3437,0.4062 -8.0313,-15.9687 -11.0937,0 -9.3125,18.5 -15.3438,0 0,-18.5 -10.1562,0 0,13.0313 c -0.1192,-0.1839 -0.264,-0.3549 -0.4062,-0.5313 -0.875,-1.0826 -2.2361,-1.9877 -4.1563,-2.7187 -1.9203,-0.731 -5.0931,-1.473 -9.5313,-2.1876 -1.7924,-0.2781 -2.928,-0.5511 -3.4062,-0.875 -0.4931,-0.3116 -0.75,-0.6718 -0.75,-1.0624 0,-0.5365 0.2772,-1.0015 0.875,-1.375 0.5977,-0.3741 1.4758,-0.5624 2.6562,-0.5626 1.4348,9e-4 2.5918,0.2791 3.4063,0.7813 0.8144,0.5022 1.3399,1.3014 1.5937,2.4063 l 9.5626,-0.4376 c -0.4185,-2.5437 -1.7021,-4.3962 -3.9063,-5.5624 -2.2042,-1.1667 -5.4259,-1.75 -9.625,-1.75 -3.4221,0 -6.0974,0.327 -8.0625,0.9687 -1.9651,0.6418 -3.4587,1.5034 -4.4375,2.625 -0.6316,0.7238 -1.0573,1.4992 -1.2813,2.2813 -0.6662,-0.9608 -1.5155,-1.841 -2.5312,-2.5938 -2.9588,-2.193 -7.1557,-3.2812 -12.625,-3.2812 z m -0.031,5.75 c 2.1368,0 3.8146,0.5279 5.0624,1.5937 1.2477,1.0659 1.9063,2.7523 1.9063,5.0625 0,2.7455 -0.617,4.6585 -1.8125,5.7188 -1.1955,1.0602 -2.8808,1.5937 -5.0625,1.5937 -2.122,0 -3.7985,-0.5424 -5.0313,-1.625 -1.2327,-1.0826 -1.8438,-2.8661 -1.8437,-5.3437 -10e-5,-2.5 0.6346,-4.2925 1.875,-5.375 1.2403,-1.0826 2.8589,-1.625 4.9063,-1.625 z m 204.9687,0 c 2.1369,0 3.8459,0.5279 5.0937,1.5937 1.2482,1.0659 1.8753,2.7523 1.875,5.0625 0,2.7455 -0.5857,4.6584 -1.7812,5.7188 -1.1955,1.0597 -2.8808,1.5937 -5.0625,1.5937 -2.122,0 -3.8297,-0.5424 -5.0625,-1.625 -1.2329,-1.0826 -1.8437,-2.8663 -1.8438,-5.3437 0,-2.5 0.635,-4.2929 1.875,-5.375 1.2408,-1.0831 2.859,-1.625 4.9063,-1.625 z m -44.0937,0.062 4.4687,0 c 1.8529,7e-4 3.1088,0.2011 3.7813,0.625 0.6721,0.4248 1.0312,1.0514 1.0312,1.8438 0,0.5357 -0.2303,0.9936 -0.6562,1.4062 -0.4265,0.4136 -0.953,0.6809 -1.625,0.7813 -1.3306,0.2232 -2.2556,0.3125 -2.7188,0.3125 l -4.2812,0 0,-4.9688 z m 69.6874,0 4.4688,0 c 1.853,4e-4 3.1089,0.2011 3.7812,0.625 0.6727,0.4245 1.0004,1.0514 1,1.8438 0,0.5357 -0.1989,0.9936 -0.625,1.4062 -0.4257,0.4133 -0.9838,0.6809 -1.6562,0.7813 -1.33,0.2232 -2.2242,0.3125 -2.6875,0.3125 l -4.2813,0 0,-4.9688 z m -95.25,0.25 15.375,0 0,3.9376 -15.375,0 0,-3.9376 z m -165.125,1.1563 3.625,8.8125 -7.2187,0 3.5937,-8.8125 z m 112.6876,0 3.625,8.8125 -7.2188,0 3.5938,-8.8125 z m -65.8438,4.0937 c 0.2538,0.212 0.5424,0.3987 0.8438,0.5938 1.8976,1.2388 5.078,2.2522 9.5312,3 2.7197,0.4464 4.4403,0.9041 5.1875,1.4062 0.7472,0.5024 1.125,1.0826 1.125,1.7188 0,0.6696 -0.3717,1.2736 -1.1563,1.7812 -0.7844,0.508 -1.9254,0.7502 -3.375,0.75 -1.9426,2e-4 -3.4227,-0.5066 -4.4687,-1.5 -0.6426,-0.6137 -1.072,-1.4843 -1.2813,-2.6562 l -6.9062,0.3125 c 0.3784,-1.2496 0.5625,-2.6357 0.5625,-4.1875 0,-0.4116 -0.031,-0.8261 -0.062,-1.2188 z m 118.2812,3.6563 15.375,0 0,4.8437 -15.375,0 0,-4.8437 z"
         id="path3722" />
    </g>
    <g
       id="g2910"
       style="fill:none;stroke-width:1;stroke-miterlimit:4;stroke-dasharray:none"
       transform="translate(-155.54657,-51.267989)">
      <path
         id="path2890-9"
         d="m 79.417414,114.2056 60.523696,-16.325379 -2.772,-9.513603 -62.085196,16.572552 -2.2261,-4.20497 111.060696,-64.311362 -8.4099,-12.86227 -108.587296,67.0322 -2.6606,-3.86801 44.957696,-48.32312 -7.9152,-7.42055 -45.017996,48.23354 -4.1623,-2.77005 66.000196,-113.23776 -15.3358,-7.91525 -60.848496,115.01839 -4.2289,-2.18017 16.5965,-64.35734 -11.1308,-2.47351 -15.5831,65.05342 -4.5804,-0.74388 3.0963,-135.05204 -17.8092999,0 2.9681999,135.54855 -4.6192999,0.96579 -16.1582,-64.78244 -11.3782001,1.97881 17.0672001,63.81666 -3.5026,1.5792 -63.0349001,-113.38202 -13.357,7.91525 66.2902,111.55546 -4.1324,3.92638 -46.5746,-48.44963 -7.4206,7.91525 44.795,47.10431 -2.9926,4.09743 -106.855804,-65.79547 -7.4205,14.09902 107.103104,61.837852 -2.4128,5.62803 -57.198904,-17.006202 -2.7208,9.894063 56.890804,17.314599 0.9894,5.68908 -125.407144,-2.47351 -0.24737,16.32519 123.923014,-1.48412 0.1915,7.28166 -58.319004,13.74321 2.4735,10.88347 59.611704,-15.08844 1.7458,3.92101 -106.622804,60.39035 7.9152,15.83049 104.382304,-64.31136 3.3293,4.33738 -42.4108,46.1223 6.1838,6.18378 45.2653,-44.77059 4.478,4.68422 -66.8106,111.07623 15.8305,7.91524 62.0852001,-113.53429 2.7441,0.87681 -16.3484001,64.17662 8.9046,3.95761 17.0673001,-65.30076 6.3624999,0.0162 -1.9101999,132.81145 15.0883999,-0.24734 -1.9788,-132.58034 6.53,-1.10211 15.979,65.16613 10.6361,-2.47353 -16.3252,-65.30077 4.3557,-1.78604 61.934496,114.33092 13.8517,-6.92584 -66.042796,-112.79223 5.1149,-4.35248 46.086796,47.88632 7.1732,-6.43113 -46.007396,-47.98618 3.951,-4.93528 107.109796,66.27842 9.3994,-13.85167 -111.679196,-63.69297 2.6277,-6.19226 62.054696,17.94143 3.2156,-10.63609 -62.332596,-15.58314"
         style="fill:none;stroke:#000000;stroke-width:1;stroke-linecap:butt;stroke-linejoin:miter;stroke-miterlimit:4;stroke-opacity:1;stroke-dasharray:none" />
      <path
         id="path2888-7"
         d="m 32.579014,114.13236 c -5.3348,2e-5 -9.5113,1.08041 -12.5,3.3125 -2.9887,2.23215 -4.4688,5.36837 -4.4687,9.375 0,1.16421 0.1259,2.24391 0.375,3.25 l -7.6249999,-15.125 -11.0313,0 -9.6875001,19.1875 0,-0.6875 -15.8438,0 0,-18.5 -10.125,0 0,24.53125 23.2813,0 2.6875,0 7.6875001,0 1.5937,-4.03125 11.5626,0 1.6249999,4.03125 10.5937,0 -2.625,-5.21875 c 1.4795,1.77228 3.3737,3.06615 5.6875,3.90625 2.4283,0.88168 5.4815,1.3125 9.1875,1.3125 3.6462,0 6.7126,-0.47881 9.1563,-1.5 2.2237,-0.92967 3.9786,-2.20758 5.25,-3.8125 0.615,1.09559 1.4538,2.08619 2.5937,2.9375 2.1518,1.60713 6.0361,2.375 11.625,2.375 3.1829,0 5.8139,-0.31361 7.9063,-1 2.0912,-0.68636 3.7405,-1.70315 4.9062,-3.03125 0.3171,-0.36137 0.5817,-0.74546 0.8125,-1.125 l 0,5.15625 25.999996,0 6.8437,0 1.5938,-4.03125 11.5625,0 1.625,4.03125 10.625,0 -1.4063,-2.75 c 0.143,0.11723 0.2863,0.26205 0.4376,0.375 2.1511,1.60713 6.0357,2.375 11.625,2.375 3.1821,0 5.8141,-0.31361 7.9062,-1 2.0921,-0.68636 3.7094,-1.70315 4.875,-3.03125 0.3021,-0.3442 0.5887,-0.7018 0.8125,-1.0625 l 0,5.09375 27.6875,0 8.0312,0 0,-9.9375 0.9063,0 c 0.9265,0 1.7365,0.18305 2.4687,0.5625 0.5388,0.29019 1.1564,0.90403 1.8438,1.875 l 5.4375,7.5 11.5,0 8.3437,0 0,-4.3125 c 1.3349,1.31005 2.952,2.31311 4.8438,3 2.4283,0.88168 5.4815,1.3125 9.1875,1.3125 3.6462,0 6.7126,-0.47881 9.1563,-1.5 2.4429,-1.02119 4.301,-2.47657 5.5937,-4.3125 0.077,-0.10868 0.147,-0.20017 0.2187,-0.3125 l 0,6.125 10.1876,0 0,-9.9375 0.9062,0 c 0.9265,0 1.7677,0.18305 2.5,0.5625 0.5379,0.29019 1.1251,0.90403 1.8125,1.875 l 5.4375,7.5 11.4688,0 -4.9063,-7.09375 c -0.2391,-0.35713 -0.7277,-0.87276 -1.4375,-1.53125 -0.7098,-0.65846 -1.2201,-1.08037 -1.5938,-1.28125 -0.5525,-0.30134 -1.4458,-0.6049 -2.6562,-0.90625 1.5093,-0.25667 2.6958,-0.57814 3.5625,-0.96875 0.5597,-0.25264 1.0703,-0.55905 1.5313,-0.875 0,2.53682 0.6504,4.79066 2,6.75 1.3515,1.96427 3.2604,3.4442 5.7187,4.4375 2.4582,0.99328 5.6309,1.46875 9.5313,1.46875 3.1671,0 5.9099,-0.26006 8.2187,-0.8125 2.3087,-0.55245 4.9962,-1.59598 8,-3.125 l 0,-10.46875 -15.7187,0 0,5.125 6.8124,0 0,2.28125 c -1.3297,0.59152 -2.5314,1.03573 -3.5624,1.28125 -1.032,0.24555 -2.115,0.375 -3.25,0.375 -2.3919,0 -4.2564,-0.58037 -5.5938,-1.71875 -1.3375,-1.13837 -2,-3.03126 -2,-5.6875 0,-2.49996 0.646,-4.31362 1.9688,-5.46875 1.3216,-1.1551 3.117,-1.74997 5.3437,-1.75 1.4942,3e-5 2.7237,0.22771 3.6875,0.71875 0.9639,0.49109 1.6277,1.22994 2.0312,2.15625 l 9.8126,-1.3125 c -0.5987,-1.58477 -1.4995,-2.90513 -2.6876,-3.9375 -1.1873,-1.03233 -2.6985,-1.79017 -4.5,-2.28125 -1.7998,-0.49105 -4.4931,-0.71873 -8.125,-0.71875 -3.7649,2e-5 -6.7421,0.39512 -8.9687,1.1875 -2.718,0.97777 -4.8098,2.37573 -6.2813,4.21875 -0.2536,-0.64006 -0.6313,-1.22171 -1.125,-1.75 -1.0154,-1.08812 -2.3407,-1.84818 -4,-2.25 -1.6585,-0.40173 -4.0806,-0.59373 -7.2187,-0.59375 l -16.9063,0 0,5.28125 c -0.6929,-1.06958 -1.6092,-1.9901 -2.7187,-2.8125 -2.9589,-2.19303 -7.1869,-3.28123 -12.6563,-3.28125 -5.3342,2e-5 -9.5106,1.08041 -12.5,3.3125 -2.9882,2.23215 -4.4687,5.36837 -4.4687,9.375 0,2.23812 0.4873,4.19004 1.4063,5.84375 l -7.8438,0 0,4.78125 -3.5,-5.0625 c -0.2391,-0.35713 -0.6966,-0.87276 -1.4062,-1.53125 -0.7107,-0.65846 -1.2828,-1.08037 -1.6563,-1.28125 -0.553,-0.30134 -1.4146,-0.6049 -2.625,-0.90625 1.5093,-0.25667 2.6957,-0.57814 3.5625,-0.96875 1.3598,-0.61383 2.4104,-1.41851 3.1875,-2.40625 0.7771,-0.98768 1.1875,-2.16966 1.1875,-3.53125 0,-1.56247 -0.5151,-2.88056 -1.5312,-3.96875 -1.0171,-1.08812 -2.3726,-1.84818 -4.0313,-2.25 -1.6588,-0.40173 -4.0179,-0.59373 -7.1563,-0.59375 l -15.2812,0 -27.1875,0 0,13.03125 c -0.1125,-0.17028 -0.2422,-0.36688 -0.375,-0.53125 -0.8742,-1.08256 -2.2673,-1.9877 -4.1875,-2.71875 -1.9203,-0.731 -5.0932,-1.44195 -9.5312,-2.15625 -1.7935,-0.27898 -2.9281,-0.5826 -3.4063,-0.90625 -0.4932,-0.31249 -0.75,-0.67188 -0.75,-1.0625 0,-0.53569 0.3083,-1.00111 0.9063,-1.375 0.5969,-0.37387 1.4756,-0.53123 2.6562,-0.53125 1.4345,2e-5 2.5606,0.24777 3.375,0.75 0.8144,0.50223 1.3709,1.30137 1.625,2.40625 l 9.5625,-0.4375 c -0.4185,-2.5446 -1.7646,-4.39618 -3.9687,-5.5625 -2.205,-1.16627 -5.3635,-1.71873 -9.5626,-1.71875 -3.4221,2e-5 -6.1286,0.29579 -8.0937,0.9375 -1.9651,0.64176 -3.4275,1.53463 -4.4063,2.65625 -0.978,1.12166 -1.4687,2.30138 -1.4687,3.5625 0,1.91963 0.9309,3.51118 2.8437,4.75 1.8986,1.23884 5.0782,2.22099 9.5313,2.96875 2.7198,0.44642 4.4718,0.90403 5.2187,1.40625 0.7473,0.50223 1.0938,1.08261 1.0938,1.71875 0,0.66964 -0.3718,1.27346 -1.1562,1.78125 -0.7853,0.50781 -1.8943,0.75001 -3.3438,0.75 -1.9427,1e-5 -3.4539,-0.50669 -4.5,-1.5 -0.6425,-0.61383 -1.072,-1.48437 -1.2812,-2.65625 l -9.3438,0.4375 -8.0312,-16 -11.0938,0 -9.3125,18.5 -15.343696,0 0,-18.5 -10.1563,0 0,13.0625 c -0.1192,-0.18323 -0.2638,-0.38608 -0.4063,-0.5625 -0.8734,-1.08256 -2.236,-1.9877 -4.1562,-2.71875 -1.9203,-0.731 -5.0932,-1.44195 -9.5312,-2.15625 -1.7935,-0.27898 -2.9281,-0.5826 -3.4063,-0.90625 -0.4931,-0.31249 -0.75,-0.67188 -0.75,-1.0625 0,-0.53569 0.2772,-1.00111 0.875,-1.375 0.5977,-0.37387 1.4757,-0.53123 2.6563,-0.53125 1.4338,2e-5 2.5917,0.24777 3.4062,0.75 0.8144,0.50223 1.3394,1.30137 1.5938,2.40625 l 9.5624,-0.4375 c -0.4176,-2.5446 -1.702,-4.39618 -3.9062,-5.5625 -2.2042,-1.16627 -5.4259,-1.71873 -9.625,-1.71875 -3.4221,2e-5 -6.0974,0.29579 -8.0625,0.9375 -1.9651,0.64176 -3.4587,1.53463 -4.4375,2.65625 -0.6316,0.72377 -1.0572,1.46813 -1.2812,2.25 -0.6676,-0.95999 -1.5156,-1.80965 -2.5313,-2.5625 -2.9588,-2.19303 -7.1557,-3.28123 -12.625,-3.28125 z m -0.031,5.71875 c 2.137,2e-5 3.8147,0.52794 5.0626,1.59375 1.2475,1.06586 1.9062,2.75228 1.9062,5.0625 0,2.74552 -0.617,4.65851 -1.8125,5.71875 -1.1955,1.06027 -2.8808,1.59376 -5.0625,1.59375 -2.122,1e-5 -3.7985,-0.54242 -5.0312,-1.625 -1.2328,-1.08256 -1.8439,-2.86608 -1.8438,-5.34375 -10e-5,-2.49999 0.6346,-4.29241 1.875,-5.375 1.2403,-1.08256 2.859,-1.62498 4.9062,-1.625 z m 204.999996,0 c 2.1373,2e-5 3.8148,0.52794 5.0626,1.59375 1.2474,1.06586 1.8747,2.75228 1.875,5.0625 0,2.74552 -0.5858,4.65851 -1.7813,5.71875 -1.1955,1.06027 -2.8808,1.59376 -5.0625,1.59375 -2.122,1e-5 -3.8297,-0.54242 -5.0625,-1.625 -1.2329,-1.08256 -1.8438,-2.86608 -1.8437,-5.34375 0,-2.49999 0.6343,-4.29241 1.875,-5.375 1.24,-1.08256 2.8901,-1.62498 4.9374,-1.625 z m -44.125,0.0625 4.4688,0 c 1.8529,10e-6 3.1089,0.20093 3.7812,0.625 0.6731,0.42414 1.0313,1.05135 1.0313,1.84375 0,0.53571 -0.2303,0.99332 -0.6563,1.40625 -0.4257,0.41294 -0.9521,0.68083 -1.625,0.78125 -1.3297,0.22323 -2.2555,0.34377 -2.7187,0.34375 l -4.2813,0 0,-5 z m 69.6876,0 4.4687,0 c 1.853,10e-6 3.1087,0.20093 3.7813,0.625 0.6721,0.42414 0.9997,1.05135 1,1.84375 0,0.53571 -0.1993,0.99332 -0.625,1.40625 -0.4263,0.41294 -0.9839,0.68083 -1.6563,0.78125 -1.33,0.22323 -2.2242,0.34377 -2.6875,0.34375 l -4.2812,0 0,-5 z m -95.25,0.28125 15.375,0 0,3.90625 -15.375,0 0,-3.90625 z m -165.1249959,1.125 3.625,8.8125 -7.21880005,0 3.59380005,-8.8125 z m 112.6873959,0 3.625,8.8125 -7.2187,0 3.5937,-8.8125 z m -65.843696,4.09375 c 0.2538,0.21197 0.5425,0.42989 0.8437,0.625 1.898,1.23885 5.0781,2.22099 9.5313,2.96875 2.7197,0.44642 4.4403,0.90403 5.1875,1.40625 0.7472,0.50225 1.125,1.0826 1.125,1.71875 0,0.66964 -0.3718,1.27346 -1.1562,1.78125 -0.7847,0.50782 -1.9257,0.75002 -3.375,0.75 -1.943,2e-5 -3.4228,-0.5067 -4.4688,-1.5 -0.6426,-0.61381 -1.072,-1.48437 -1.2812,-2.65625 l -6.9066,0.3125 c 0.3784,-1.24959 0.5625,-2.63572 0.5625,-4.1875 0,-0.4116 -0.031,-0.82623 -0.062,-1.21875 z m 118.281296,3.6875 15.375,0 0,4.84375 -15.375,0 0,-4.84375 z"
         style="fill:none;stroke:#000000;stroke-width:1;stroke-linecap:butt;stroke-linejoin:miter;stroke-miterlimit:4;stroke-opacity:1;stroke-dasharray:none" />
    </g>
  </g>
</svg>
