<?xml version="1.0" encoding="UTF-8" standalone="no"?>
<!-- Created with Inkscape (http://www.inkscape.org/) -->

<svg
   xmlns:dc="http://purl.org/dc/elements/1.1/"
   xmlns:cc="http://creativecommons.org/ns#"
   xmlns:rdf="http://www.w3.org/1999/02/22-rdf-syntax-ns#"
   xmlns:svg="http://www.w3.org/2000/svg"
   xmlns="http://www.w3.org/2000/svg"
   xmlns:sodipodi="http://sodipodi.sourceforge.net/DTD/sodipodi-0.dtd"
   xmlns:inkscape="http://www.inkscape.org/namespaces/inkscape"
   width="520.76819"
   height="431.95319"
   id="svg6120"
   version="1.1"
   inkscape:version="0.47 r22583"
   sodipodi:docname="laoslaser-logo vinylsnijder.svg">
  <sodipodi:namedview
     id="base"
     pagecolor="#ffffff"
     bordercolor="#666666"
     borderopacity="1.0"
     inkscape:pageopacity="0.0"
     inkscape:pageshadow="2"
     inkscape:zoom="0.8251694"
     inkscape:cx="264.88913"
     inkscape:cy="158.43513"
     inkscape:document-units="px"
     inkscape:current-layer="layer1"
     showgrid="false"
     inkscape:window-width="1366"
     inkscape:window-height="742"
     inkscape:window-x="0"
     inkscape:window-y="0"
     inkscape:window-maximized="1"
     showguides="true"
     inkscape:guide-bbox="true"
     inkscape:snap-to-guides="false"
     units="cm"
     fit-margin-left="0.5"
     fit-margin-top="0.5"
     fit-margin-right="0.5"
     fit-margin-bottom="0.5" />
  <defs
     id="defs6122">
    <inkscape:perspective
       id="perspective6128"
       inkscape:persp3d-origin="372.04724 : 350.78739 : 1"
       inkscape:vp_z="744.09448 : 526.18109 : 1"
       inkscape:vp_y="0 : 1000 : 0"
       inkscape:vp_x="0 : 526.18109 : 1"
       sodipodi:type="inkscape:persp3d" />
    <inkscape:perspective
       sodipodi:type="inkscape:persp3d"
       inkscape:vp_x="0 : 0.5 : 1"
       inkscape:vp_y="0 : 1000 : 0"
       inkscape:vp_z="1 : 0.5 : 1"
       inkscape:persp3d-origin="0.5 : 0.33333333 : 1"
       id="perspective6113" />
    <inkscape:perspective
       sodipodi:type="inkscape:persp3d"
       inkscape:vp_x="0 : 0.5 : 1"
       inkscape:vp_y="0 : 1000 : 0"
       inkscape:vp_z="1 : 0.5 : 1"
       inkscape:persp3d-origin="0.5 : 0.33333333 : 1"
       id="perspective6159" />
    <inkscape:perspective
       sodipodi:type="inkscape:persp3d"
       inkscape:vp_x="0 : 0.5 : 1"
       inkscape:vp_y="0 : 1000 : 0"
       inkscape:vp_z="1 : 0.5 : 1"
       inkscape:persp3d-origin="0.5 : 0.33333333 : 1"
       id="perspective6231" />
    <inkscape:perspective
       sodipodi:type="inkscape:persp3d"
       inkscape:vp_x="0 : 0.5 : 1"
       inkscape:vp_y="0 : 1000 : 0"
       inkscape:vp_z="1 : 0.5 : 1"
       inkscape:persp3d-origin="0.5 : 0.33333333 : 1"
       id="perspective6299" />
    <inkscape:perspective
       sodipodi:type="inkscape:persp3d"
       inkscape:vp_x="0 : 0.5 : 1"
       inkscape:vp_y="0 : 1000 : 0"
       inkscape:vp_z="1 : 0.5 : 1"
       inkscape:persp3d-origin="0.5 : 0.33333333 : 1"
       id="perspective6333" />
    <inkscape:perspective
       sodipodi:type="inkscape:persp3d"
       inkscape:vp_x="0 : 0.5 : 1"
       inkscape:vp_y="0 : 1000 : 0"
       inkscape:vp_z="1 : 0.5 : 1"
       inkscape:persp3d-origin="0.5 : 0.33333333 : 1"
       id="perspective6909" />
    <inkscape:perspective
       sodipodi:type="inkscape:persp3d"
       inkscape:vp_x="0 : 0.5 : 1"
       inkscape:vp_y="0 : 1000 : 0"
       inkscape:vp_z="1 : 0.5 : 1"
       inkscape:persp3d-origin="0.5 : 0.33333333 : 1"
       id="perspective2878" />
  </defs>
  <metadata
     id="metadata6125">
    <rdf:RDF>
      <cc:Work
         rdf:about="">
        <dc:format>image/svg+xml</dc:format>
        <dc:type
           rdf:resource="http://purl.org/dc/dcmitype/StillImage" />
        <dc:title />
      </cc:Work>
    </rdf:RDF>
  </metadata>
  <g
     style="display:inline"
     transform="translate(344.75585,-288.0638)"
     id="layer1"
     inkscape:groupmode="layer"
     inkscape:label="Layer 1">
    <path
       d="M 6.4269238,223.72085 18.85231,223.29239 m 311.92004,20.99462 184.66694,38.13308 M 373.25669,124.1376 515.34873,72.633027 M 6.9688,8.01713 l 508.72324,0 0,416.96726 -508.72324,0 0,-416.96726 z m 188.31439,210.20439 -3.43058,-8.88295 -3.35614,8.88295 5.44243,0 2.14547,5.47828 -9.64703,0 -1.49182,4.18222 -9.94898,4e-5 -24.24957,1e-5 0,-25.33513 9.51824,0 0,19.0964 15.60151,0.0569 -0.009,4.30901 c 0.82339,-1.45235 1.54237,-2.95342 2.25388,-4.46101 l -3e-5,0 c 2.89432,-6.33379 5.78867,-12.66757 8.683,-19.00135 l 5.2205,0 5.15917,0 5.78868,12.66756 1.98858,3.80498 c -0.10835,-1.44059 0.1377,-2.30807 0.1377,-3.78785 0,-4.13413 1.43675,-7.3528 4.31029,-9.65595 1.43676,-1.15157 3.15549,-2.01525 5.15616,-2.59102 2.09028,-0.57771 3.8832,-0.78739 6.08243,-0.80673 l 0.0373,5.868 c -1.2604,0.0724 -2.89587,0.81545 -4.03466,1.67554 -1.19254,1.11703 -1.78877,2.96532 -1.78876,5.54485 -1e-5,2.55648 0.59266,4.39323 1.77798,5.51027 0.59266,0.55851 1.29218,0.9774 2.09856,1.25666 0.71155,0.24544 1.69316,0.38881 1.8685,0.41889 l 0.0158,5.80612 c -0.8908,0 -0.56448,0.021 -1.37849,-0.0358 -0.81402,-0.0569 -1.58965,-0.14215 -2.32689,-0.25586 -1.47448,-0.22744 -2.7954,-0.56859 -3.96275,-1.02347 -2.33474,-0.90975 -4.22767,-2.34921 -5.6788,-4.31839 -0.72557,-0.9846 -1.26975,-1.29916 -1.79535,-2.50613 l 3.28108,7.76346 -9.95947,0 -1.51284,-4.2569 z m 162.07506,-1.21031 15.375,0 0,4.84375 -15.375,0 z m -52.4376,-7.78125 3.625,8.8125 -7.2187,0 z m 52.4376,-1.125 15.375,0 0,3.90625 -15.375,0 z m 95.25,-0.28125 4.4687,0 c 1.853,1e-5 3.1087,0.20093 3.7813,0.625 0.6721,0.42414 0.9997,1.05135 1,1.84375 0,0.53571 -0.1993,0.99332 -0.625,1.40625 -0.4263,0.41294 -0.9839,0.68083 -1.6563,0.78125 -1.33,0.22323 -2.2242,0.34377 -2.6875,0.34375 l -4.2812,0 z m -69.6876,0 4.4688,0 c 1.8529,1e-5 3.1089,0.20093 3.7812,0.625 0.6731,0.42414 1.0313,1.05135 1.0313,1.84375 0,0.53571 -0.2303,0.99332 -0.6563,1.40625 -0.4257,0.41294 -0.9521,0.68083 -1.625,0.78125 -1.3297,0.22323 -2.2555,0.34377 -2.7187,0.34375 l -4.2813,0 z m 44.125,-0.0625 c 2.1373,2e-5 3.8148,0.52794 5.0626,1.59375 1.2474,1.06586 1.8747,2.75228 1.875,5.0625 0,2.74552 -0.5858,4.65851 -1.7813,5.71875 -1.1955,1.06027 -2.8808,1.59376 -5.0625,1.59375 -2.122,1e-5 -3.8297,-0.54242 -5.0625,-1.625 -1.2329,-1.08256 -1.8438,-2.86608 -1.8437,-5.34375 0,-2.49999 0.6343,-4.29241 1.875,-5.375 1.24,-1.08256 2.8901,-1.62498 4.9374,-1.625 z m -186.41913,17.89281 c 2.00025,1.65932 5.59794,2.48897 10.79308,2.48897 2.9587,0 5.4104,-0.35432 7.35512,-1.06299 1.94468,-0.70867 3.45876,-1.74862 4.54227,-3.11988 1.08344,-1.37124 1.62518,-2.86924 1.62521,-4.49399 -3e-5,-1.38275 -0.40633,-2.63301 -1.21891,-3.75076 -0.81264,-1.11772 -2.11142,-2.05397 -3.89634,-2.80874 -1.78498,-0.75475 -4.74023,-1.50086 -8.86575,-2.23835 -1.6669,-0.28807 -2.72259,-0.59919 -3.16708,-0.93337 -0.4584,-0.32263 -0.6876,-0.6856 -0.68759,-1.08893 -1e-5,-0.55308 0.2778,-1.02266 0.83344,-1.40869 0.55562,-0.38601 1.38212,-0.57902 2.47949,-0.57904 1.3335,2e-5 2.37877,0.25929 3.13583,0.77781 0.75703,0.51856 1.25362,1.34821 1.48978,2.48898 l 8.897,-0.43212 c -0.38897,-2.62724 -1.60788,-4.54294 -3.65673,-5.74712 -2.0489,-1.20414 -5.02498,-1.80622 -8.92825,-1.80624 -3.18099,2e-5 -5.68478,0.33131 -7.5114,0.99387 -1.82664,0.66259 -3.19487,1.57291 -4.10471,2.73095 -0.90984,1.1581 -1.36476,2.38819 -1.36476,3.69027 0,1.98197 0.889,3.6125 2.66702,4.89154 1.76411,1.27907 4.71588,2.30462 8.85532,3.07665 2.52809,0.46093 4.13941,0.95066 4.83397,1.46919 0.69451,0.51854 1.04178,1.10622 1.0418,1.76303 -2e-5,0.69139 -0.36465,1.29923 -1.09389,1.82352 -0.72928,0.52431 -1.76761,0.78645 -3.11499,0.78645 -1.80581,0 -3.19488,-0.51277 -4.16721,-1.53833 -0.59732,-0.63376 -0.9932,-1.5556 -1.18766,-2.76553 l -8.79257,-0.0376 c 0.30745,-1.81202 0.34354,-2.31944 0.34356,-3.79932 -3e-5,-4.07685 -1.41702,-7.24678 -4.25098,-9.50981 -1.41701,-1.1315 -3.13458,-1.98012 -5.1527,-2.54587 -1.96988,-0.54541 -3.9899,-0.8027 -6.13484,-0.7916 l -0.0214,5.86836 c 0.73701,0.14552 2.91179,0.59328 4.04157,1.64976 1.19509,1.09984 1.79267,2.84172 1.7927,5.22564 -3e-5,2.83307 -0.57254,4.79667 -1.71756,5.89072 -0.57253,0.54705 -1.26314,0.95734 -2.07184,1.23085 -0.8252,0.21433 -1.3268,0.36029 -2.01449,0.45979 l -0.0354,5.80653 c 0.87309,0 1.30174,-0.0329 2.10281,-0.0988 0.80109,-0.0659 1.56615,-0.16465 2.29523,-0.29636 1.45813,-0.26345 2.77226,-0.65861 3.94237,-1.1855 2.34015,-1.05374 4.04027,-2.43888 5.36738,-4.42236 0.53002,-0.91756 0.54238,-0.63878 1.18726,-2.29542 0.19482,2.55806 1.53457,3.98449 3.53484,5.64381 z m 90.98693,18.1496 -3.2156,10.63609 -62.0547,-17.94143 -2.6277,6.19226 111.6792,63.69297 -9.3994,13.85167 -107.1098,-66.27842 -3.951,4.93528 46.0074,47.98618 -7.1732,6.43113 -46.0868,-47.88632 -5.1149,4.35248 66.0428,112.79223 -13.8517,6.92584 -61.9345,-114.33092 -4.3557,1.78604 16.3252,65.30077 -10.6361,2.47353 -16.64608,-64.49905 -6.53,1.32447 2.64588,131.6909 -15.0884,0.24734 1.68784,-131.92201 -6.14014,-0.90564 -17.0673,65.30076 -8.9046,-3.95761 16.3484,-64.17662 -2.7441,-0.87681 -62.0852,113.53429 -15.8305,-7.91524 66.8106,-111.07623 -4.478,-4.68422 -45.2653,44.77059 -6.1838,-6.18378 42.4108,-46.1223 -3.3293,-4.33738 -104.3823,64.31136 -7.9152,-15.83049 105.511,-59.94563 -1.7458,-4.14337 -58.4999,14.86608 -2.4735,-10.88347 58.319,-13.74321 -0.1915,-7.28166 -123.92301,1.48412 0.24737,-16.32519 123.40589,2.69587 1.01185,-5.91144 -56.8908,-17.3146 2.7208,-9.89406 57.1989,17.0062 2.4128,-5.62803 -107.1031,-61.83785 7.4205,-14.09902 106.8558,65.79547 2.9926,-4.09743 -44.795,-47.10431 7.4206,-7.91525 46.12988,47.56019 4.57712,-3.03694 -66.2902,-111.55546 13.357,-7.91525 63.0349,114.27146 3.5026,-1.35684 -17.0672,-64.92846 11.3782,-1.97881 16.1582,64.78244 4.6193,-0.96579 -2.9682,-135.54855 17.8093,0 -3.98574,136.3862 5.6922,0.96624 15.36074,-66.60994 11.1308,2.47351 -17.26358,65.46914 4.89598,2.18017 60.8485,-116.13019 15.3358,7.91525 -66.44492,113.68248 4.1623,2.77005 45.46272,-48.67826 7.9152,7.42055 -45.62478,48.54548 3.10532,3.64565 108.80966,-67.0322 8.4099,12.86227 -111.0607,64.31136 2.46306,3.67572 61.84824,-16.0433 2.772,9.5136 -65.08386,17.02043 10.1359,0.0446 0,18.49943 15.36842,0 9.32751,-18.49943 11.11167,0 8.04414,15.99951 9.35885,-0.43749 c 0.20954,1.17185 0.63973,2.04236 1.28326,2.65617 1.04779,0.99328 2.56142,1.49997 4.50725,1.49996 1.45184,1e-5 2.56262,-0.24219 3.34919,-0.74998 0.78566,-0.50778 1.15806,-1.11158 1.15806,-1.7812 0,-0.63612 -0.34706,-1.21648 -1.09556,-1.71869 -0.7481,-0.50221 -2.50292,-0.9598 -5.22711,-1.40621 -4.46027,-0.74774 -7.64499,-1.72986 -9.54665,-2.96866 -1.91588,-1.23878 -2.84828,-2.83028 -2.84828,-4.74986 0,-1.26108 0.49149,-2.44076 1.47106,-3.56239 0.98038,-1.12158 2.44514,-2.01443 4.4134,-2.65617 1.96827,-0.64169 4.67913,-0.93745 8.10674,-0.93747 4.20587,2e-5 7.36945,0.55247 9.57801,1.7187 2.20765,1.16628 3.55592,3.01781 3.97509,5.56233 l -9.57791,0.43749 c -0.25451,-1.10485 -0.8119,-1.90397 -1.62761,-2.40618 -0.81572,-0.50221 -1.94363,-0.74996 -3.38044,-0.74998 -1.1825,2e-5 -2.06262,0.15738 -2.66048,0.53124 -0.59896,0.37388 -0.90776,0.83928 -0.90776,1.37495 0,0.39061 0.25721,0.74999 0.75121,1.06247 0.47897,0.32364 1.6154,0.62725 3.41179,0.90622 4.44515,0.71428 7.62316,1.42521 9.54655,2.15619 1.92329,0.73103 3.31864,1.63614 4.19425,2.71867 0.13301,0.16436 0.26292,0.36096 0.3756,0.53123 l 0,-13.03085 27.2313,0 15.30582,0 c 3.14346,2e-5 5.50636,0.19201 7.16783,0.59373 1.66137,0.40181 3.01905,1.16184 4.03779,2.24993 1.01774,1.08816 1.53367,2.40621 1.53367,3.96863 0,1.36155 -0.41106,2.54349 -1.18941,3.53114 -0.77836,0.98771 -1.83065,1.79237 -3.19264,2.40618 -0.86819,0.3906 -2.05651,0.71206 -3.56824,0.96872 1.21235,0.30134 2.07534,0.60489 2.62923,0.90622 0.3741,0.20088 0.94712,0.62277 1.65897,1.28121 0.71074,0.65847 1.16898,1.17409 1.40847,1.53121 l 3.50563,5.06234 0,-4.7811 7.85644,0 c -0.92048,-1.65366 -1.40857,-3.60552 -1.40857,-5.84357 0,-4.00651 1.48289,-7.14264 4.4759,-9.37472 2.99422,-2.23202 7.17735,-3.31238 12.52014,-3.3124 5.47821,2e-5 9.71302,1.08819 12.67669,3.28115 1.11129,0.82238 2.02906,1.74287 2.72308,2.81242 l 0,-5.28109 16.93354,0 c 3.14315,2e-5 5.56915,0.19201 7.23033,0.59373 1.66197,0.40181 2.9894,1.16184 4.00644,2.24993 0.4945,0.52827 0.8728,1.10991 1.12681,1.74995 1.47387,-1.84297 3.56904,-3.24088 6.29142,-4.21862 2.23019,-0.79236 5.21219,-1.18745 8.98315,-1.18747 3.63775,2e-5 6.33539,0.2277 8.13809,0.71873 1.8044,0.49107 3.31804,1.24888 4.50725,2.28118 1.19001,1.03234 2.09227,2.35266 2.69193,3.93738 l -9.82841,1.31246 c -0.40415,-0.92628 -1.06902,-1.66511 -2.03447,-2.15618 -0.96535,-0.49103 -2.19683,-0.7187 -3.69344,-0.71873 -2.23029,3e-5 -4.02858,0.59488 -5.35231,1.74994 -1.32493,1.1551 -1.97197,2.9687 -1.97197,5.46859 0,2.65616 0.66357,4.54899 2.00322,5.68733 1.33955,1.13834 3.20706,1.71869 5.60281,1.71869 1.13683,0 2.22158,-0.12944 3.25524,-0.37499 1.03266,-0.24551 2.23629,-0.6897 3.56814,-1.28121 l 0,-2.28118 -6.82338,0 0,-5.12484 15.74403,0 0,10.46843 c -3.00864,1.52897 -5.70047,2.57247 -8.01289,3.1249 -2.31252,0.55243 -5.05974,0.81248 -8.23194,0.81248 -3.90669,0 -7.0845,-0.47546 -9.54666,-1.46871 -2.46226,-0.99326 -4.37423,-2.47315 -5.72791,-4.43736 -1.35178,-1.95928 -2.00322,-4.21305 -2.00322,-6.74979 -0.46175,0.31594 -0.97317,0.62234 -1.53377,0.87497 -0.8681,0.3906 -2.05651,0.71206 -3.56824,0.96872 1.21235,0.30134 2.10709,0.60489 2.66048,0.90622 0.3743,0.20088 0.88542,0.62277 1.59637,1.28121 0.71094,0.65847 1.20033,1.17409 1.43981,1.53121 l 4.91421,7.09353 -11.48728,0 -5.44626,-7.49977 c -0.68851,-0.97094 -1.27665,-1.58476 -1.81542,-1.87494 -0.73348,-0.37944 -1.57603,-0.56249 -2.50403,-0.56249 l -0.90766,0 0,9.9372 -10.20401,0 0,-6.12481 c -0.0721,0.11232 -0.14193,0.20381 -0.21905,0.31249 -1.29478,1.83587 -3.15588,3.29121 -5.60271,4.31237 -2.44764,1.02115 -5.51898,1.49995 -9.17105,1.49995 -3.71197,0 -6.77009,-0.43081 -9.20231,-1.31246 -1.89484,-0.68687 -3.51455,-1.6899 -4.8516,-2.99991 l 0,4.31237 -8.35714,0 -11.51853,0 -5.44626,-7.49977 c -0.6885,-0.97094 -1.3071,-1.58476 -1.84677,-1.87494 -0.73338,-0.37944 -1.54468,-0.56249 -2.47267,-0.56249 l -0.90776,0 0,9.9372 -8.04414,0 -27.73211,0 0,-5.09359 c -0.22416,0.36068 -0.51122,0.71827 -0.81381,1.06246 -1.16748,1.32806 -2.78738,2.34482 -4.88285,3.03116 -2.09547,0.68637 -4.73171,0.99997 -7.91894,0.99997 -5.5983,0 -9.48916,-0.76785 -11.64373,-2.37493 -0.15154,-0.11294 -0.29507,-0.25776 -0.4383,-0.37499 l 1.40856,2.74992 -10.64211,0 -1.62762,-4.03113 -11.58113,0 -1.59637,4.03113 -6.85472,0 -26.02908,-0.13508 z"
       style="fill:none;stroke:#000000;stroke-width:0.35433071;stroke-linecap:butt;stroke-linejoin:miter;stroke-opacity:1;stroke-miterlimit:4;stroke-dasharray:none"
       transform="translate(-344.75585,288.0638)"
       id="path3603" />
  </g>
  <g
     transform="translate(-45.713715,-427.0348)"
     style="display:none"
     inkscape:label="letters"
     id="layer2"
     inkscape:groupmode="layer">
    <path
       d="m 196.71044,629.84971 9.43874,0 0,19.09948 14.7311,0 0,6.23973 -24.16984,0 z"
       style="font-size:39.11067581px;font-style:normal;font-variant:normal;font-weight:normal;font-stretch:normal;line-height:125%;letter-spacing:0px;word-spacing:0px;fill:#ffffff;fill-opacity:1;stroke:#000000;stroke-width:0.99373817;font-family:Arial Black;-inkscape-font-specification:Arial Black"
       id="path3805-1"
       inkscape:connector-curvature="0" />
    <path
       d="m 242.79723,650.83519 -10.75141,0 -1.47936,4.18288 -9.64709,0 11.48067,-25.33921 10.29301,0 11.48067,25.33921 -9.87629,0 z m -1.97943,-5.47921 -3.37543,-9.10897 -3.35461,9.10897 z"
       style="font-size:39.11067581px;font-style:normal;font-variant:normal;font-weight:normal;font-stretch:normal;line-height:125%;letter-spacing:0px;word-spacing:0px;fill:#ffffff;fill-opacity:1;stroke:#000000;stroke-width:0.99373817;font-family:Arial Black;-inkscape-font-specification:Arial Black"
       id="path3807-7"
       inkscape:connector-curvature="0" />
    <path
       d="m 251.66119,642.36576 c 0,-4.13677 1.38907,-7.35747 4.16722,-9.66209 2.77814,-2.30459 6.64669,-3.4569 11.60568,-3.45692 5.08398,2e-5 9.00115,1.13216 11.75154,3.39642 2.75033,2.2643 4.12551,5.43602 4.12554,9.51516 -3e-5,2.96144 -0.60081,5.38993 -1.80232,7.28545 -1.20158,1.89555 -2.93791,3.3705 -5.20901,4.42486 -2.27116,1.05436 -5.10139,1.58154 -8.49069,1.58154 -3.44492,0 -6.29598,-0.45516 -8.55321,-1.36548 -2.25725,-0.91032 -4.08735,-2.3507 -5.4903,-4.32115 -1.40297,-1.97043 -2.10445,-4.43636 -2.10445,-7.39779 z m 9.43874,0.0346 c -10e-6,2.55813 0.57299,4.39605 1.71897,5.51378 1.14598,1.11775 2.70521,1.67661 4.6777,1.67661 2.02803,0 3.59768,-0.54733 4.70896,-1.64204 1.11122,-1.09468 1.66685,-3.05937 1.66688,-5.89405 -3e-5,-2.38525 -0.57997,-4.12811 -1.73981,-5.22858 -1.1599,-1.10043 -2.73302,-1.65066 -4.71938,-1.65068 -1.90303,2e-5 -3.43101,0.55888 -4.58393,1.6766 -1.15293,1.11776 -1.7294,2.96721 -1.72939,5.54836 z"
       style="font-size:39.11067581px;font-style:normal;font-variant:normal;font-weight:normal;font-stretch:normal;line-height:125%;letter-spacing:0px;word-spacing:0px;fill:#ffffff;fill-opacity:1;stroke:#000000;stroke-width:0.99373817;font-family:Arial Black;-inkscape-font-specification:Arial Black"
       id="path3809-4"
       inkscape:connector-curvature="0" />
    <path
       d="m 283.50359,646.29334 8.98034,-0.46668 c 0.19446,1.20993 0.59034,2.13177 1.18766,2.76553 0.97233,1.02556 2.3614,1.53833 4.16721,1.53833 1.34738,0 2.38571,-0.26214 3.11499,-0.78645 0.72924,-0.52429 1.09387,-1.13213 1.09389,-1.82352 -2e-5,-0.65681 -0.34729,-1.24449 -1.0418,-1.76303 -0.69456,-0.51853 -2.30588,-1.00826 -4.83397,-1.46919 -4.13944,-0.77203 -7.09121,-1.79758 -8.85532,-3.07665 -1.77802,-1.27904 -2.66702,-2.90957 -2.66702,-4.89154 0,-1.30208 0.45492,-2.53217 1.36476,-3.69027 0.90984,-1.15804 2.27807,-2.06836 4.10471,-2.73095 1.82662,-0.66256 4.33041,-0.99385 7.5114,-0.99387 3.90327,2e-5 6.87935,0.6021 8.92825,1.80624 2.04885,1.20418 3.26776,3.11988 3.65673,5.74712 l -8.897,0.43212 c -0.23616,-1.14077 -0.73275,-1.97042 -1.48978,-2.48898 -0.75706,-0.51852 -1.80233,-0.77779 -3.13583,-0.77781 -1.09737,2e-5 -1.92387,0.19303 -2.47949,0.57904 -0.55564,0.38603 -0.83345,0.85561 -0.83344,1.40869 -1e-5,0.40333 0.22919,0.7663 0.68759,1.08893 0.44449,0.33418 1.50018,0.6453 3.16708,0.93337 4.12552,0.73749 7.08077,1.4836 8.86575,2.23835 1.78492,0.75477 3.0837,1.69102 3.89634,2.80874 0.81258,1.11775 1.21888,2.36801 1.21891,3.75076 -3e-5,1.62475 -0.54177,3.12275 -1.62521,4.49399 -1.08351,1.37126 -2.59759,2.41121 -4.54227,3.11988 -1.94472,0.70867 -4.39642,1.06299 -7.35512,1.06299 -5.19514,0 -8.79283,-0.82965 -10.79308,-2.48897 -2.00027,-1.65932 -3.13236,-3.76805 -3.39628,-6.32617 z"
       style="font-size:39.11067581px;font-style:normal;font-variant:normal;font-weight:normal;font-stretch:normal;line-height:125%;letter-spacing:0px;word-spacing:0px;fill:#ffffff;fill-opacity:1;stroke:#000000;stroke-width:0.99373817;font-family:Arial Black;-inkscape-font-specification:Arial Black"
       id="path3811-0"
       inkscape:connector-curvature="0" />
  </g>
</svg>
