<?xml version="1.0" encoding="UTF-8" standalone="no"?>
<!-- Created with Inkscape (http://www.inkscape.org/) -->

<svg
   xmlns:dc="http://purl.org/dc/elements/1.1/"
   xmlns:cc="http://creativecommons.org/ns#"
   xmlns:rdf="http://www.w3.org/1999/02/22-rdf-syntax-ns#"
   xmlns:svg="http://www.w3.org/2000/svg"
   xmlns="http://www.w3.org/2000/svg"
   xmlns:sodipodi="http://sodipodi.sourceforge.net/DTD/sodipodi-0.dtd"
   xmlns:inkscape="http://www.inkscape.org/namespaces/inkscape"
   width="638.34631"
   height="779.52753"
   id="svg6120"
   version="1.1"
   inkscape:version="0.47 r22583"
   sodipodi:docname="laoslaser-logo vinylsnijder.svg">
  <sodipodi:namedview
     id="base"
     pagecolor="#ffffff"
     bordercolor="#666666"
     borderopacity="1.0"
     inkscape:pageopacity="0.0"
     inkscape:pageshadow="2"
     inkscape:zoom="0.63115152"
     inkscape:cx="319.17314"
     inkscape:cy="389.76378"
     inkscape:document-units="px"
     inkscape:current-layer="layer1"
     showgrid="false"
     inkscape:window-width="1366"
     inkscape:window-height="744"
     inkscape:window-x="0"
     inkscape:window-y="0"
     inkscape:window-maximized="1"
     showguides="true"
     inkscape:guide-bbox="true"
     inkscape:snap-to-guides="false"
     units="cm"
     fit-margin-left="0.5"
     fit-margin-top="0.5"
     fit-margin-right="0.5"
     fit-margin-bottom="0.5" />
  <defs
     id="defs6122">
    <inkscape:perspective
       id="perspective6128"
       inkscape:persp3d-origin="372.04724 : 350.78739 : 1"
       inkscape:vp_z="744.09448 : 526.18109 : 1"
       inkscape:vp_y="0 : 1000 : 0"
       inkscape:vp_x="0 : 526.18109 : 1"
       sodipodi:type="inkscape:persp3d" />
    <inkscape:perspective
       sodipodi:type="inkscape:persp3d"
       inkscape:vp_x="0 : 0.5 : 1"
       inkscape:vp_y="0 : 1000 : 0"
       inkscape:vp_z="1 : 0.5 : 1"
       inkscape:persp3d-origin="0.5 : 0.33333333 : 1"
       id="perspective6113" />
    <inkscape:perspective
       sodipodi:type="inkscape:persp3d"
       inkscape:vp_x="0 : 0.5 : 1"
       inkscape:vp_y="0 : 1000 : 0"
       inkscape:vp_z="1 : 0.5 : 1"
       inkscape:persp3d-origin="0.5 : 0.33333333 : 1"
       id="perspective6159" />
    <inkscape:perspective
       sodipodi:type="inkscape:persp3d"
       inkscape:vp_x="0 : 0.5 : 1"
       inkscape:vp_y="0 : 1000 : 0"
       inkscape:vp_z="1 : 0.5 : 1"
       inkscape:persp3d-origin="0.5 : 0.33333333 : 1"
       id="perspective6231" />
    <inkscape:perspective
       sodipodi:type="inkscape:persp3d"
       inkscape:vp_x="0 : 0.5 : 1"
       inkscape:vp_y="0 : 1000 : 0"
       inkscape:vp_z="1 : 0.5 : 1"
       inkscape:persp3d-origin="0.5 : 0.33333333 : 1"
       id="perspective6299" />
    <inkscape:perspective
       sodipodi:type="inkscape:persp3d"
       inkscape:vp_x="0 : 0.5 : 1"
       inkscape:vp_y="0 : 1000 : 0"
       inkscape:vp_z="1 : 0.5 : 1"
       inkscape:persp3d-origin="0.5 : 0.33333333 : 1"
       id="perspective6333" />
    <inkscape:perspective
       sodipodi:type="inkscape:persp3d"
       inkscape:vp_x="0 : 0.5 : 1"
       inkscape:vp_y="0 : 1000 : 0"
       inkscape:vp_z="1 : 0.5 : 1"
       inkscape:persp3d-origin="0.5 : 0.33333333 : 1"
       id="perspective6909" />
    <inkscape:perspective
       sodipodi:type="inkscape:persp3d"
       inkscape:vp_x="0 : 0.5 : 1"
       inkscape:vp_y="0 : 1000 : 0"
       inkscape:vp_z="1 : 0.5 : 1"
       inkscape:persp3d-origin="0.5 : 0.33333333 : 1"
       id="perspective2878" />
  </defs>
  <metadata
     id="metadata6125">
    <rdf:RDF>
      <cc:Work
         rdf:about="">
        <dc:format>image/svg+xml</dc:format>
        <dc:type
           rdf:resource="http://purl.org/dc/dcmitype/StillImage" />
        <dc:title />
      </cc:Work>
    </rdf:RDF>
  </metadata>
  <g
     style="display:inline"
     transform="translate(267.91546,-4.2884331)"
     id="layer1"
     inkscape:groupmode="layer"
     inkscape:label="Layer 1">
    <path
       d="m 40.21364,783.54499 0.65539,-19.0062 M 8.75509,287.41754 -49.57429,4.94604 M 192.53885,222.43236 271.32163,5.08457 m 98.8382,777.63156 0,-778.1567 -637.80429,0 0,778.1567 637.80429,0 z M 48.62557,494.66539 l 13.5876,5.24751 -13.5876,5.13364 0,-8.32489 -8.37973,-3.28177 0,14.75636 -6.39723,2.28193 -6e-5,15.21822 -2e-5,37.0928 38.75329,0 0,-14.55936 -29.21036,0 -0.087,-23.86449 -6.59117,0.0138 c 2.22155,-1.25948 4.51763,-2.35925 6.82368,-3.44759 l 0,4e-5 c 9.68833,-4.42723 19.37665,-8.8545 29.06497,-13.28175 l 0,-7.98541 0,-7.89161 -19.37664,-8.85452 -5.8202,-3.04178 c 2.20357,0.16573 3.53049,-0.21063 5.794,-0.21063 6.32368,0 11.24704,-2.19769 14.77,-6.59314 1.76147,-2.1977 3.08258,-4.82672 3.96329,-7.887 0.88368,-3.19735 1.20442,-5.93984 1.234,-9.30385 l -8.97585,-0.0571 c -0.11075,1.92795 -1.24734,4.42961 -2.56295,6.17153 -1.70864,1.82414 -4.53584,2.73615 -8.48155,2.73613 -3.91046,2e-5 -6.72001,-0.90654 -8.42866,-2.71964 -0.85431,-0.90655 -1.49506,-1.97656 -1.92222,-3.21002 -0.37543,-1.0884 -0.59474,-2.5899 -0.64075,-2.8581 l -8.88119,-0.0242 c 0,1.36259 -0.0321,0.86344 0.0548,2.10857 0.087,1.24515 0.21743,2.43157 0.39137,3.55928 0.3479,2.2554 0.86973,4.27591 1.56552,6.06152 1.39158,3.57128 3.59342,6.46676 6.60553,8.68645 1.50607,1.10985 1.98723,1.94224 3.83344,2.74621 l -11.87519,-5.01882 0,15.23427 6.51147,2.31408 z m 1.85132,-247.91435 0,-23.51802 -7.40913,0 0,23.51802 z m 11.90241,80.20995 -13.47984,-5.54489 0,11.04191 z m 1.72083,-80.20995 0,-23.51802 -5.97511,0 0,23.51802 z m 0.43021,-145.69696 0,-6.83544 c -2e-5,-2.8344 -0.30735,-4.75515 -0.95602,-5.78398 -0.64878,-1.02806 -1.60817,-1.52916 -2.82025,-1.52962 -0.81944,0 -1.51941,0.30485 -2.15104,0.95601 -0.63164,0.65208 -1.04141,1.505 -1.19502,2.53352 -0.34146,2.03441 -0.52584,3.4022 -0.52581,4.11088 l 0,6.54863 z m 0,106.59602 0,-6.83559 c -2e-5,-2.83425 -0.30735,-4.75546 -0.95602,-5.78383 -0.64878,-1.02959 -1.60817,-1.5775 -2.82025,-1.5775 -0.81944,0 -1.51941,0.35227 -2.15104,1.00389 -0.63164,0.65117 -1.04141,1.45636 -1.19502,2.48565 -0.34146,2.03394 -0.52584,3.45007 -0.52581,4.15859 l 0,6.54879 z m 0.0956,-67.49478 c -3e-5,-3.26927 -0.80755,-5.83522 -2.43785,-7.74389 -1.63036,-1.90805 -4.20996,-2.86759 -7.74373,-2.86805 -4.19962,0 -7.12578,0.89606 -8.74755,2.72473 -1.62182,1.82867 -2.43786,4.40655 -2.43785,7.74373 -1e-5,3.24587 0.8297,5.85802 2.48565,7.74374 1.65591,1.88588 4.38403,2.82032 8.17394,2.82017 3.82405,0 6.56579,-0.97024 8.22174,-2.86805 1.65592,-1.89674 2.48562,-4.42077 2.48565,-7.55238 z m -27.36932,285.1517 c -2.53814,-3.05964 -3.8072,-8.56276 -3.8072,-16.50939 0,-4.5257 0.54198,-8.27589 1.62598,-11.25058 1.084,-2.97464 2.67473,-5.29062 4.77225,-6.94798 2.09749,-1.65726 4.38887,-2.48592 6.87413,-2.48597 2.11509,5e-5 4.02752,0.62154 5.73726,1.86448 1.7097,1.24304 3.14181,3.22968 4.29632,5.95995 1.15449,2.73035 2.29576,7.25078 3.42385,13.56129 0.44063,2.54973 0.91653,4.16454 1.4277,4.84445 0.49351,0.70118 1.04871,1.05177 1.66566,1.05175 0.84601,2e-5 1.56429,-0.42493 2.15477,-1.27485 0.59045,-0.84989 0.88568,-2.11413 0.88571,-3.79269 -3e-5,-2.03976 -0.39661,-3.63864 -1.18975,-4.79665 -0.79321,-1.15798 -2.06226,-1.91758 -3.80722,-2.27881 l 0.66099,-13.60909 c 4.01869,0.59498 6.949,2.45945 8.79095,5.59343 1.84188,3.13405 2.76284,7.68634 2.76287,13.65689 -3e-5,4.86573 -0.50678,8.69559 -1.52025,11.48964 -1.01352,2.79408 -2.40597,4.88696 -4.17734,6.27867 -1.77146,1.39172 -3.65303,2.08758 -5.64473,2.08758 -3.03168,0 -5.52578,-1.35984 -7.48223,-4.07955 -1.9565,-2.69843 -3.52521,-7.21353 -4.70613,-13.54533 -0.70505,-3.86704 -1.45415,-6.33175 -2.24731,-7.39417 -0.79317,-1.06234 -1.6921,-1.59354 -2.69678,-1.59357 -1.05757,3e-5 -1.98734,0.55778 -2.7893,1.67325 -0.802,1.11552 -1.20298,2.70378 -1.20298,4.76477 0,2.76221 0.78435,4.88697 2.35307,6.37427 0.96942,0.91368 2.37949,1.51923 4.23023,1.81668 l 0.0575,13.44935 c 2.77172,-0.47028 3.54788,-0.52549 5.81155,-0.52552 6.23606,5e-5 11.08487,2.16751 14.54646,6.50242 1.73077,2.16749 3.02884,4.79473 3.89423,7.8817 0.83427,3.01318 1.22783,6.10306 1.21085,9.38402 l -8.9764,0.0327 c -0.22259,-1.12735 -0.9075,-4.45395 -2.52352,-6.18209 -1.68234,-1.82804 -4.34677,-2.74212 -7.99328,-2.74216 -4.33354,4e-5 -7.33711,0.87577 -9.0106,2.62722 -0.83678,0.87576 -1.46437,1.93214 -1.88274,3.16914 -0.32785,1.26225 -0.55111,2.02951 -0.70331,3.08142 l -8.88182,0.0541 c 0,-1.3355 0.0503,-1.99117 0.15113,-3.21651 0.1008,-1.22537 0.25185,-2.39563 0.45332,-3.51085 0.40298,-2.23039 1.00742,-4.24052 1.81337,-6.03035 1.61183,-3.57956 3.73057,-6.18011 6.76456,-8.21009 1.40352,-0.81073 0.97709,-0.82964 3.51113,-1.81607 -3.91287,-0.298 -6.09478,-2.34731 -8.63292,-5.40698 z M 9.4945,286.13097 l -16.26925,4.91867 27.4437,94.92053 -9.47185,4.0194 -97.42648,-170.82749 -21.18788,14.37757 101.38125,163.83802 -7.54914,6.04355 -73.40095,-70.37415 -9.83723,10.97232 73.2482,70.49561 -6.65767,7.82388 -172.53001,-101.02083 -10.59395,21.18793 174.88363,94.73667 -2.73197,6.6626 -99.88581,-24.97147 -3.78358,16.26927 98.65948,25.46228 -2.02595,9.98847 -201.43792,-4.04721 -0.37834,23.07962 201.79144,-2.58177 1.38529,9.39213 -99.88579,26.1066 6.05366,13.62071 98.16628,-25.00695 1.34119,4.19745 -173.66509,94.96719 12.10736,24.21475 169.90518,-102.19528 7.16511,6.84967 -68.48229,69.23901 9.45887,9.45891 70.54991,-64.8727 6.63457,5.09259 -98.37238,159.66596 24.21474,12.1073 91.69444,-161.39245 6.33781,2.67042 -22.73955,89.48302 16.64765,3.78353 21.02198,-89.2063 11.13822,0.29292 -2.27015,189.55596 24.97145,-0.37839 -4.12368,-188.76495 9.0423,-1.54776 26.48488,87.02169 15.13422,-4.1618 -26.01314,-87.49297 8.60878,-3.69069 94.58884,163.82777 21.56623,-11.35059 -100.64251,-163.4495 6.26754,-4.57756 72.05201,68.51964 12.10738,-11.35075 -72.74934,-70.5615 4.64539,-7.00129 170.63822,101.39927 12.10737,-20.43123 -174.79268,-96.41987 2.07546,-5.35767 99.31631,26.10644 3.02684,-17.40439 -99.09296,-24.71602 1.4773,-7.06581 207.3387,4.54024 0,-27.24158 -208.61999,6.0967 -1.47799,-8.70695 101.88835,-23.4962 -3.78354,-17.02597 -100.14336,26.40684 -3.33484,-7.48902 177.63585,-93.0755 -12.10738,-23.45805 -173.89177,101.63593 -4.23714,-6.36677 74.45957,-69.54099 -11.35067,-12.1073 -74.25647,69.78888 -5.57648,-4.74998 102.53425,-166.43817 -19.67448,-12.86401 -98.37238,169.88143 -5.62247,-3.76757 24.54026,-94.60472 -14.55226,-4.24013 -26.03491,99.55402 -0.0682,-15.50415 -28.29722,0 0,-23.50794 28.29722,-14.26761 0,-16.99671 -24.47328,-12.30453 0.6692,-14.31555 c -1.79249,-0.32052 -3.12405,-0.97855 -4.06295,-1.96291 -1.51935,-1.60273 -2.29439,-3.91801 -2.29438,-6.89441 -10e-6,-2.22077 0.37046,-3.91985 1.14719,-5.12301 0.77671,-1.20177 1.7003,-1.7714 2.72457,-1.7714 0.97303,0 1.86076,0.53087 2.62896,1.6758 0.76819,1.14431 1.46813,3.82853 2.15097,7.99553 1.14377,6.82255 2.64604,11.69398 4.54094,14.60281 1.89488,2.93058 4.32928,4.3568 7.26552,4.3568 1.92898,0 3.73345,-0.75179 5.44913,-2.25017 1.71559,-1.49961 3.08132,-3.74015 4.06294,-6.75085 0.98155,-3.01072 1.43395,-7.15733 1.43398,-12.40029 -3e-5,-6.43341 -0.84507,-11.27251 -2.62897,-14.65078 -1.78397,-3.37688 -4.61612,-5.43923 -8.50829,-6.08041 l -0.66919,14.65063 c 1.69001,0.38931 2.91236,1.24191 3.68056,2.48964 0.76819,1.24775 1.14715,2.97303 1.14719,5.17081 -4e-5,1.80878 -0.24074,3.15504 -0.8126,4.06954 -0.5719,0.91619 -1.28379,1.38854 -2.10316,1.38854 -0.59749,0 -1.14721,-0.39344 -1.62519,-1.14908 -0.49505,-0.73264 -0.95946,-2.47095 -1.38618,-5.21876 -1.09258,-6.79942 -2.18003,-11.66059 -3.29816,-14.60266 -1.1182,-2.94192 -2.50268,-5.07628 -4.15855,-6.41564 -0.25141,-0.20345 -0.55214,-0.40217 -0.81259,-0.57452 l 19.93234,0 0,-41.65373 0,-23.41219 c -3e-5,-4.80832 -0.2937,-8.42268 -0.90818,-10.96411 -0.61462,-2.54127 -1.77718,-4.61802 -3.44156,-6.17631 -1.66448,-1.55676 -3.6806,-2.34594 -6.07052,-2.34594 -2.08266,0 -3.89059,0.62877 -5.40133,1.81935 -1.51082,1.1906 -2.74165,2.80021 -3.68055,4.88355 -0.59748,1.32801 -1.08919,3.14569 -1.48178,5.45807 -0.46094,-1.85444 -0.92526,-3.17449 -1.38618,-4.02174 -0.30727,-0.57223 -0.95261,-1.44874 -1.95977,-2.5376 -1.00722,-1.08717 -1.79592,-1.7881 -2.34218,-2.15443 l -7.7435,-5.36231 7.3133,0 0,-12.01742 c 2.52949,1.40799 5.5151,2.15459 8.93848,2.15459 6.12847,0 10.92558,-2.26827 14.33983,-6.84646 3.41416,-4.58004 5.0667,-10.97867 5.06673,-19.15114 -3e-5,-8.37962 -1.66452,-14.8573 -5.01893,-19.39061 -1.25794,-1.69986 -2.66594,-3.1037 -4.30195,-4.16529 l 8.07809,0 0,-25.902 c -3e-5,-4.80785 -0.2937,-8.51872 -0.90818,-11.05971 -0.61462,-2.54219 -1.77718,-4.57266 -3.44156,-6.12835 -0.80805,-0.75641 -1.69774,-1.33506 -2.67677,-1.7236 2.81906,-2.25447 4.95734,-5.4593 6.45292,-9.62353 1.21201,-3.41136 1.81635,-7.9727 1.81638,-13.74086 -3e-5,-5.5644 -0.34829,-9.69079 -1.09939,-12.44825 -0.75115,-2.76005 -1.91032,-5.07536 -3.48935,-6.89441 -1.57909,-1.82027 -3.59869,-3.20039 -6.02272,-4.11764 l -2.00758,15.0338 c 1.41687,0.61819 2.547,1.6352 3.29816,3.11198 0.75109,1.47662 1.09934,3.36033 1.09938,5.64958 -4e-5,3.41151 -0.90994,6.16222 -2.67675,8.18704 -1.76687,2.02665 -4.541,3.01637 -8.3649,3.01637 -4.06294,0 -6.95826,-1.01501 -8.6995,-3.06417 -1.74123,-2.04902 -2.62895,-4.90561 -2.62895,-8.57021 0,-1.73893 0.198,-3.39819 0.5736,-4.9793 0.37553,-1.57959 1.05498,-3.42069 1.95977,-5.45793 l 3.48935,0 0,10.43723 7.8391,0 0,-24.08249 -16.0128,0 c -2.33875,4.60209 -3.93491,8.71959 -4.77993,12.25673 -0.84501,3.53729 -1.24279,7.73951 -1.24279,12.59179 0,5.97578 0.72728,10.83665 2.24658,14.60283 1.51932,3.76634 3.783,6.69094 6.78751,8.76157 2.99696,2.06772 6.44439,3.06418 10.32465,3.06418 -0.48327,0.7063 -0.95194,1.48858 -1.33837,2.34609 -0.59748,1.32787 -1.08919,3.14569 -1.48178,5.45808 C 50.68523,81.65745 50.22091,80.28883 49.75999,79.44235 49.45272,78.86982 48.80738,78.08799 47.80022,77.0005 46.793,75.91303 46.0043,75.16445 45.45804,74.79813 l -10.85046,-7.5169 0,17.57125 11.47185,8.33074 c 1.48518,1.05317 2.42409,1.9528 2.86796,2.77692 0.5804,1.12195 0.8604,2.41073 0.8604,3.83023 l 0,1.38838 -15.20021,0 0,15.60833 9.36868,0 c -0.17181,0.11028 -0.31176,0.2171 -0.478,0.33506 -2.80819,1.98053 -5.03432,4.82732 -6.59631,8.57006 -1.56198,3.74397 -2.29437,8.44198 -2.29437,14.02828 0,5.67793 0.65898,10.35571 2.00758,14.0761 1.05065,2.8984 2.58491,5.37595 4.58874,7.42114 l -6.59632,0 0,12.7833 0,17.61905 11.47185,8.33075 c 1.48518,1.05315 2.42409,1.99938 2.86796,2.82487 0.5804,1.1218 0.8604,2.36278 0.8604,3.78226 l 0,1.38854 -15.20021,0 0,12.30453 0,42.41978 7.79129,0 c -0.5517,0.34288 -1.09868,0.78197 -1.62516,1.24482 -2.03144,1.78581 -3.5867,4.26365 -4.63655,7.46894 -1.04989,3.20529 -1.52958,7.23775 -1.52958,12.11302 0,8.56331 1.17453,14.51488 3.63276,17.81056 0.17275,0.2318 0.39428,0.45135 0.57359,0.67044 l -4.20635,-2.15457 0,16.27845 6.16613,2.48966 0,17.7148 -6.16613,2.44185 0,10.48517 0.20662,39.81477 z"
       style="fill:none;stroke:#000000;stroke-width:0.54199374;stroke-linecap:butt;stroke-linejoin:miter;stroke-miterlimit:4;stroke-opacity:1;stroke-dasharray:none"
       id="path3603" />
  </g>
  <g
     transform="translate(-122.55411,-143.25943)"
     style="display:none"
     inkscape:label="letters"
     id="layer2"
     inkscape:groupmode="layer">
    <path
       d="m 196.71044,629.84971 9.43874,0 0,19.09948 14.7311,0 0,6.23973 -24.16984,0 z"
       style="font-size:39.11067581px;font-style:normal;font-variant:normal;font-weight:normal;font-stretch:normal;line-height:125%;letter-spacing:0px;word-spacing:0px;fill:#ffffff;fill-opacity:1;stroke:#000000;stroke-width:0.99373817;font-family:Arial Black;-inkscape-font-specification:Arial Black"
       id="path3805-1"
       inkscape:connector-curvature="0" />
    <path
       d="m 242.79723,650.83519 -10.75141,0 -1.47936,4.18288 -9.64709,0 11.48067,-25.33921 10.29301,0 11.48067,25.33921 -9.87629,0 z m -1.97943,-5.47921 -3.37543,-9.10897 -3.35461,9.10897 z"
       style="font-size:39.11067581px;font-style:normal;font-variant:normal;font-weight:normal;font-stretch:normal;line-height:125%;letter-spacing:0px;word-spacing:0px;fill:#ffffff;fill-opacity:1;stroke:#000000;stroke-width:0.99373817;font-family:Arial Black;-inkscape-font-specification:Arial Black"
       id="path3807-7"
       inkscape:connector-curvature="0" />
    <path
       d="m 251.66119,642.36576 c 0,-4.13677 1.38907,-7.35747 4.16722,-9.66209 2.77814,-2.30459 6.64669,-3.4569 11.60568,-3.45692 5.08398,2e-5 9.00115,1.13216 11.75154,3.39642 2.75033,2.2643 4.12551,5.43602 4.12554,9.51516 -3e-5,2.96144 -0.60081,5.38993 -1.80232,7.28545 -1.20158,1.89555 -2.93791,3.3705 -5.20901,4.42486 -2.27116,1.05436 -5.10139,1.58154 -8.49069,1.58154 -3.44492,0 -6.29598,-0.45516 -8.55321,-1.36548 -2.25725,-0.91032 -4.08735,-2.3507 -5.4903,-4.32115 -1.40297,-1.97043 -2.10445,-4.43636 -2.10445,-7.39779 z m 9.43874,0.0346 c -10e-6,2.55813 0.57299,4.39605 1.71897,5.51378 1.14598,1.11775 2.70521,1.67661 4.6777,1.67661 2.02803,0 3.59768,-0.54733 4.70896,-1.64204 1.11122,-1.09468 1.66685,-3.05937 1.66688,-5.89405 -3e-5,-2.38525 -0.57997,-4.12811 -1.73981,-5.22858 -1.1599,-1.10043 -2.73302,-1.65066 -4.71938,-1.65068 -1.90303,2e-5 -3.43101,0.55888 -4.58393,1.6766 -1.15293,1.11776 -1.7294,2.96721 -1.72939,5.54836 z"
       style="font-size:39.11067581px;font-style:normal;font-variant:normal;font-weight:normal;font-stretch:normal;line-height:125%;letter-spacing:0px;word-spacing:0px;fill:#ffffff;fill-opacity:1;stroke:#000000;stroke-width:0.99373817;font-family:Arial Black;-inkscape-font-specification:Arial Black"
       id="path3809-4"
       inkscape:connector-curvature="0" />
    <path
       d="m 283.50359,646.29334 8.98034,-0.46668 c 0.19446,1.20993 0.59034,2.13177 1.18766,2.76553 0.97233,1.02556 2.3614,1.53833 4.16721,1.53833 1.34738,0 2.38571,-0.26214 3.11499,-0.78645 0.72924,-0.52429 1.09387,-1.13213 1.09389,-1.82352 -2e-5,-0.65681 -0.34729,-1.24449 -1.0418,-1.76303 -0.69456,-0.51853 -2.30588,-1.00826 -4.83397,-1.46919 -4.13944,-0.77203 -7.09121,-1.79758 -8.85532,-3.07665 -1.77802,-1.27904 -2.66702,-2.90957 -2.66702,-4.89154 0,-1.30208 0.45492,-2.53217 1.36476,-3.69027 0.90984,-1.15804 2.27807,-2.06836 4.10471,-2.73095 1.82662,-0.66256 4.33041,-0.99385 7.5114,-0.99387 3.90327,2e-5 6.87935,0.6021 8.92825,1.80624 2.04885,1.20418 3.26776,3.11988 3.65673,5.74712 l -8.897,0.43212 c -0.23616,-1.14077 -0.73275,-1.97042 -1.48978,-2.48898 -0.75706,-0.51852 -1.80233,-0.77779 -3.13583,-0.77781 -1.09737,2e-5 -1.92387,0.19303 -2.47949,0.57904 -0.55564,0.38603 -0.83345,0.85561 -0.83344,1.40869 -1e-5,0.40333 0.22919,0.7663 0.68759,1.08893 0.44449,0.33418 1.50018,0.6453 3.16708,0.93337 4.12552,0.73749 7.08077,1.4836 8.86575,2.23835 1.78492,0.75477 3.0837,1.69102 3.89634,2.80874 0.81258,1.11775 1.21888,2.36801 1.21891,3.75076 -3e-5,1.62475 -0.54177,3.12275 -1.62521,4.49399 -1.08351,1.37126 -2.59759,2.41121 -4.54227,3.11988 -1.94472,0.70867 -4.39642,1.06299 -7.35512,1.06299 -5.19514,0 -8.79283,-0.82965 -10.79308,-2.48897 -2.00027,-1.65932 -3.13236,-3.76805 -3.39628,-6.32617 z"
       style="font-size:39.11067581px;font-style:normal;font-variant:normal;font-weight:normal;font-stretch:normal;line-height:125%;letter-spacing:0px;word-spacing:0px;fill:#ffffff;fill-opacity:1;stroke:#000000;stroke-width:0.99373817;font-family:Arial Black;-inkscape-font-specification:Arial Black"
       id="path3811-0"
       inkscape:connector-curvature="0" />
  </g>
</svg>
