<?xml version="1.0" encoding="UTF-8" standalone="no"?>
<!-- Created with Inkscape (http://www.inkscape.org/) -->

<svg
   xmlns:dc="http://purl.org/dc/elements/1.1/"
   xmlns:cc="http://creativecommons.org/ns#"
   xmlns:rdf="http://www.w3.org/1999/02/22-rdf-syntax-ns#"
   xmlns:svg="http://www.w3.org/2000/svg"
   xmlns="http://www.w3.org/2000/svg"
   xmlns:sodipodi="http://sodipodi.sourceforge.net/DTD/sodipodi-0.dtd"
   xmlns:inkscape="http://www.inkscape.org/namespaces/inkscape"
   width="520.76819"
   height="431.95319"
   id="svg6120"
   version="1.1"
   inkscape:version="0.48.2 r9819"
   sodipodi:docname="laoslaser-logo lasersnijder.svg">
  <defs
     id="defs6122">
    <inkscape:perspective
       sodipodi:type="inkscape:persp3d"
       inkscape:vp_x="0 : 526.18109 : 1"
       inkscape:vp_y="0 : 1000 : 0"
       inkscape:vp_z="744.09448 : 526.18109 : 1"
       inkscape:persp3d-origin="372.04724 : 350.78739 : 1"
       id="perspective6128" />
    <inkscape:perspective
       id="perspective6113"
       inkscape:persp3d-origin="0.5 : 0.33333333 : 1"
       inkscape:vp_z="1 : 0.5 : 1"
       inkscape:vp_y="0 : 1000 : 0"
       inkscape:vp_x="0 : 0.5 : 1"
       sodipodi:type="inkscape:persp3d" />
    <inkscape:perspective
       id="perspective6159"
       inkscape:persp3d-origin="0.5 : 0.33333333 : 1"
       inkscape:vp_z="1 : 0.5 : 1"
       inkscape:vp_y="0 : 1000 : 0"
       inkscape:vp_x="0 : 0.5 : 1"
       sodipodi:type="inkscape:persp3d" />
    <inkscape:perspective
       id="perspective6231"
       inkscape:persp3d-origin="0.5 : 0.33333333 : 1"
       inkscape:vp_z="1 : 0.5 : 1"
       inkscape:vp_y="0 : 1000 : 0"
       inkscape:vp_x="0 : 0.5 : 1"
       sodipodi:type="inkscape:persp3d" />
    <inkscape:perspective
       id="perspective6299"
       inkscape:persp3d-origin="0.5 : 0.33333333 : 1"
       inkscape:vp_z="1 : 0.5 : 1"
       inkscape:vp_y="0 : 1000 : 0"
       inkscape:vp_x="0 : 0.5 : 1"
       sodipodi:type="inkscape:persp3d" />
    <inkscape:perspective
       id="perspective6333"
       inkscape:persp3d-origin="0.5 : 0.33333333 : 1"
       inkscape:vp_z="1 : 0.5 : 1"
       inkscape:vp_y="0 : 1000 : 0"
       inkscape:vp_x="0 : 0.5 : 1"
       sodipodi:type="inkscape:persp3d" />
    <inkscape:perspective
       id="perspective6909"
       inkscape:persp3d-origin="0.5 : 0.33333333 : 1"
       inkscape:vp_z="1 : 0.5 : 1"
       inkscape:vp_y="0 : 1000 : 0"
       inkscape:vp_x="0 : 0.5 : 1"
       sodipodi:type="inkscape:persp3d" />
    <inkscape:perspective
       id="perspective2878"
       inkscape:persp3d-origin="0.5 : 0.33333333 : 1"
       inkscape:vp_z="1 : 0.5 : 1"
       inkscape:vp_y="0 : 1000 : 0"
       inkscape:vp_x="0 : 0.5 : 1"
       sodipodi:type="inkscape:persp3d" />
  </defs>
  <sodipodi:namedview
     id="base"
     pagecolor="#ffffff"
     bordercolor="#666666"
     borderopacity="1.0"
     inkscape:pageopacity="0.0"
     inkscape:pageshadow="2"
     inkscape:zoom="1.86"
     inkscape:cx="190.46349"
     inkscape:cy="213.32558"
     inkscape:document-units="px"
     inkscape:current-layer="layer1"
     showgrid="false"
     inkscape:window-width="1366"
     inkscape:window-height="746"
     inkscape:window-x="-8"
     inkscape:window-y="-8"
     inkscape:window-maximized="1"
     showguides="true"
     inkscape:guide-bbox="true"
     inkscape:snap-to-guides="false"
     units="cm"
     fit-margin-left="0.5"
     fit-margin-top="0.5"
     fit-margin-right="0.5"
     fit-margin-bottom="0.5">
    <sodipodi:guide
       orientation="0,1"
       position="274.56166,204.60036"
       id="guide3059" />
    <sodipodi:guide
       orientation="0,1"
       position="270.18908,229.19613"
       id="guide3061" />
  </sodipodi:namedview>
  <metadata
     id="metadata6125">
    <rdf:RDF>
      <cc:Work
         rdf:about="">
        <dc:format>image/svg+xml</dc:format>
        <dc:type
           rdf:resource="http://purl.org/dc/dcmitype/StillImage" />
        <dc:title />
      </cc:Work>
    </rdf:RDF>
  </metadata>
  <g
     inkscape:label="Laser"
     inkscape:groupmode="layer"
     id="layer1"
     transform="translate(344.75585,-288.0638)"
     style="display:inline">
    <path
       style="font-size:39.11067581px;font-style:normal;font-variant:normal;font-weight:normal;font-stretch:normal;line-height:125%;letter-spacing:0px;word-spacing:0px;fill:#ffffff;stroke:#ff0000;stroke-width:0.70999998;stroke-miterlimit:4;stroke-dasharray:none;display:inline;font-family:Arial Black;-inkscape-font-specification:Arial Black"
       d="m -13.1424,531.86742 -3.2156,10.63609 -62.0547,-17.94143 -2.6277,6.19226 111.6792,63.69297 -9.3994,13.85167 -107.1098,-66.27842 -3.951,4.93528 46.0074,47.98618 -7.1732,6.43113 -46.0868,-47.88632 -5.1149,4.35248 66.0428,112.79223 -13.8517,6.92584 -61.9345,-114.33092 -4.3557,1.78604 16.3252,65.30077 -10.6361,2.47353 -16.64608,-64.49905 -6.53,1.32447 2.64588,131.6909 -15.0884,0.24734 1.68784,-131.92201 -6.14014,-0.90564 -17.0673,65.30076 -8.9046,-3.95761 16.3484,-64.17662 -2.7441,-0.87681 -62.0852,113.53429 -15.8305,-7.91524 66.8106,-111.07623 -4.478,-4.68422 -45.2653,44.77059 -6.1838,-6.18378 42.4108,-46.1223 -3.3293,-4.33738 -104.3823,64.31136 -7.9152,-15.83049 105.511,-59.94563 -1.7458,-4.14337 -58.4999,14.86608 -2.4735,-10.88347 58.319,-13.74321 -0.1915,-7.28166 -123.92301,1.48412 0.24737,-16.32519 123.40589,2.69587 1.01185,-5.91144 -56.8908,-17.3146 2.7208,-9.89406 57.1989,17.0062 2.4128,-5.62803 -107.1031,-61.83785 7.4205,-14.09902 106.8558,65.79547 2.9926,-4.09743 -44.795,-47.10431 7.4206,-7.91525 46.12988,47.56019 4.57712,-3.03694 -66.2902,-111.55546 13.357,-7.91525 63.0349,114.27146 3.5026,-1.35684 -17.0672,-64.92846 11.3782,-1.97881 16.1582,64.78244 4.6193,-0.96579 -2.9682,-135.54855 17.8093,0 -3.98574,136.3862 5.6922,0.96624 15.36074,-66.60994 11.1308,2.47351 -17.26358,65.46914 4.89598,2.18017 60.8485,-116.13019 15.3358,7.91525 -66.44492,113.68248 4.162299,2.77005 45.462721,-48.67826 7.9152,7.42055 -45.624782,48.54548 3.105321,3.64565 108.809661,-67.0322 8.4099,12.86227 -111.0607,64.31136 2.463062,3.67572 61.848238,-16.0433 2.772,9.5136 -65.083856,17.02043 10.1359,0.0446 0,18.49943 15.368419,0 9.327502,-18.49943 11.111673,0 8.044138,15.99951 9.358853,-0.43749 c 0.209537,1.17185 0.639729,2.04236 1.283264,2.65617 1.047786,0.99328 2.56142,1.49997 4.50725,1.49996 1.4518351,1e-5 2.5626217,-0.24219 3.3491869,-0.74998 0.7856636,-0.50778 1.1580626,-1.11158 1.1580626,-1.7812 0,-0.63612 -0.3470582,-1.21648 -1.0955621,-1.71869 -0.7481033,-0.50221 -2.5029254,-0.9598 -5.2271074,-1.40621 -4.460274,-0.74774 -7.644997,-1.72986 -9.546655,-2.96866 -1.915882,-1.23878 -2.848281,-2.83028 -2.848281,-4.74986 0,-1.26108 0.49149,-2.44076 1.471066,-3.56239 0.980377,-1.12158 2.445132,-2.01443 4.413398,-2.65617 1.968266,-0.64169 4.679126,-0.93745 8.106739,-0.93747 4.2058653,2e-5 7.3694537,0.55247 9.578006,1.7187 2.20765084,1.16628 3.5559194,3.01781 3.9750937,5.56233 l -9.5779054,0.43749 c -0.2545094,-1.10485 -0.8119059,-1.90397 -1.627618,-2.40618 -0.815712,-0.50221 -1.9436263,-0.74996 -3.3804373,-0.74998 -1.182502,2e-5 -2.062617,0.15738 -2.660479,0.53124 -0.598963,0.37388 -0.90776,0.83928 -0.90776,1.37495 0,0.39061 0.257214,0.74999 0.751208,1.06247 0.478971,0.32364 1.615398,0.62725 3.411788,0.90622 4.4451495,0.71428 7.6231611,1.42521 9.5465547,2.15619 1.92329353,0.73103 3.31863784,1.63614 4.1942462,2.71867 0.1330139,0.16436 0.2629229,0.36096 0.3756041,0.53123 l 0,-13.03085 27.2313,0 15.305818,0 c 3.143456,2e-5 5.506357,0.19201 7.167829,0.59373 1.661372,0.40181 3.019056,1.16184 4.037795,2.24993 1.017736,1.08816 1.533666,2.40621 1.533666,3.96863 0,1.36155 -0.411061,2.54349 -1.189413,3.53114 -0.778352,0.98771 -1.830644,1.79237 -3.192635,2.40618 -0.868196,0.3906 -2.056508,0.71206 -3.568239,0.96872 1.21235,0.30134 2.075338,0.60489 2.629229,0.90622 0.374101,0.20088 0.947123,0.62277 1.658968,1.28121 0.710743,0.65847 1.16898,1.17409 1.408466,1.53121 l 3.505638,5.06234 0,-4.7811 7.856437,0 c -0.920481,-1.65366 -1.408566,-3.60552 -1.408566,-5.84357 0,-4.00651 1.482885,-7.14264 4.475899,-9.37472 2.994216,-2.23202 7.177345,-3.31238 12.520138,-3.3124 5.478211,2e-5 9.713023,1.08819 12.67669,3.28115 1.111287,0.82238 2.029063,1.74287 2.723079,2.81242 l 0,-5.28109 16.93354,0 c 3.14315,2e-5 5.56915,0.19201 7.23033,0.59373 1.66197,0.40181 2.9894,1.16184 4.00644,2.24993 0.4945,0.52827 0.8728,1.10991 1.12681,1.74995 1.47387,-1.84297 3.56904,-3.24088 6.29142,-4.21862 2.23019,-0.79236 5.21219,-1.18745 8.98315,-1.18747 3.63775,2e-5 6.33539,0.2277 8.13809,0.71873 1.8044,0.49107 3.31804,1.24888 4.50725,2.28118 1.19001,1.03234 2.09227,2.35266 2.69193,3.93738 l -9.82841,1.31246 c -0.40415,-0.92628 -1.06902,-1.66511 -2.03447,-2.15618 -0.96535,-0.49103 -2.19683,-0.7187 -3.69344,-0.71873 -2.23029,3e-5 -4.02858,0.59488 -5.35231,1.74994 -1.32493,1.1551 -1.97197,2.9687 -1.97197,5.46859 0,2.65616 0.66357,4.54899 2.00322,5.68733 1.33955,1.13834 3.20706,1.71869 5.60281,1.71869 1.13683,0 2.22158,-0.12944 3.25524,-0.37499 1.03266,-0.24551 2.23629,-0.6897 3.56814,-1.28121 l 0,-2.28118 -6.82338,0 0,-5.12484 15.74403,0 0,10.46843 c -3.00864,1.52897 -5.70047,2.57247 -8.01289,3.1249 -2.31252,0.55243 -5.05974,0.81248 -8.23194,0.81248 -3.90669,0 -7.0845,-0.47546 -9.54666,-1.46871 -2.46226,-0.99326 -4.37423,-2.47315 -5.72791,-4.43736 -1.35178,-1.95928 -2.00322,-4.21305 -2.00322,-6.74979 -0.46175,0.31594 -0.97317,0.62234 -1.53377,0.87497 -0.8681,0.3906 -2.05651,0.71206 -3.56824,0.96872 1.21235,0.30134 2.10709,0.60489 2.66048,0.90622 0.3743,0.20088 0.88542,0.62277 1.59637,1.28121 0.71094,0.65847 1.20033,1.17409 1.43981,1.53121 l 4.91421,7.09353 -11.48728,0 -5.44626,-7.49977 c -0.68851,-0.97094 -1.27665,-1.58476 -1.81542,-1.87494 -0.73348,-0.37944 -1.57603,-0.56249 -2.50403,-0.56249 l -0.90766,0 0,9.9372 -10.20401,0 0,-6.12481 c -0.07211,0.11232 -0.141928,0.20381 -0.219052,0.31249 -1.294782,1.83587 -3.155876,3.29121 -5.602711,4.31237 -2.447637,1.02115 -5.518977,1.49995 -9.171051,1.49995 -3.711971,0 -6.77009,-0.43081 -9.202302,-1.31246 -1.894847,-0.68687 -3.514553,-1.6899 -4.851603,-2.99991 l 0,4.31237 -8.357142,0 -11.518527,0 -5.44626,-7.49977 c -0.688507,-0.97094 -1.307102,-1.58476 -1.84677,-1.87494 -0.73338,-0.37944 -1.544685,-0.56249 -2.472677,-0.56249 l -0.90776,0 0,9.9372 -8.044139,0 -27.732105,0 0,-5.09359 c -0.2241605,0.36068 -0.5112222,0.71827 -0.8138089,1.06246 -1.16747783,1.32806 -2.7873833,2.34482 -4.8828538,3.03116 -2.0954704,0.68637 -4.7317106,0.99997 -7.9189373,0.99997 -5.598304,0 -9.489162,-0.76785 -11.643728,-2.37493 -0.151544,-0.11294 -0.295074,-0.25776 -0.438305,-0.37499 l 1.408566,2.74992 -10.642117,0 -1.627618,-4.03113 -11.581128,0 -1.596367,4.03113 -6.854726,0 -26.029074,-0.13508 z"
       id="path3809-4-8"
       inkscape:connector-curvature="0" />
    <path
       inkscape:connector-curvature="0"
       id="path3805-1-1"
       style="font-size:39.11067581px;font-style:normal;font-variant:normal;font-weight:normal;font-stretch:normal;line-height:125%;letter-spacing:0px;word-spacing:0px;fill:#ffffff;fill-opacity:1;stroke:#000000;stroke-width:0.97692996;display:inline;font-family:Arial Black;-inkscape-font-specification:Arial Black"
       d="m -195.77672,491.21019 9.44012,0 0,18.45613 14.73326,0 0,6.02955 -24.17338,0 z" />
    <path
       inkscape:connector-curvature="0"
       id="path3807-7-7"
       style="font-size:39.11067581px;font-style:normal;font-variant:normal;font-weight:normal;font-stretch:normal;line-height:125%;letter-spacing:0px;word-spacing:0px;fill:#ffffff;fill-opacity:1;stroke:#000000;stroke-width:0.97692996;display:inline;font-family:Arial Black;-inkscape-font-specification:Arial Black"
       d="m -149.68317,511.4888 -10.75299,0 -1.47957,4.04198 -9.64851,0 11.48235,-24.48568 10.29453,0 11.48235,24.48568 -9.87774,0 z m -1.97972,-5.29465 -3.37593,-8.80215 -3.3551,8.80215 z" />
    <path
       inkscape:connector-curvature="0"
       id="path3809-4-4"
       style="font-size:39.11067581px;font-style:normal;font-variant:normal;font-weight:normal;font-stretch:normal;line-height:125%;letter-spacing:0px;word-spacing:0px;fill:#ffffff;fill-opacity:1;stroke:#000000;stroke-width:0.97692996;display:inline;font-family:Arial Black;-inkscape-font-specification:Arial Black"
       d="m -140.81791,503.30465 c 0,-3.99743 1.38928,-7.10964 4.16783,-9.33663 2.77855,-2.22696 6.64767,-3.34046 11.60739,-3.34048 5.08472,2e-5 9.00247,1.09402 11.75326,3.28202 2.75074,2.18802 4.12612,5.25291 4.12615,9.19465 -3e-5,2.86168 -0.6009,5.20837 -1.80259,7.04004 -1.20175,1.8317 -2.93834,3.25697 -5.20977,4.27582 -2.27149,1.01884 -5.10214,1.52826 -8.49194,1.52826 -3.44542,0 -6.2969,-0.43982 -8.55446,-1.31948 -2.25758,-0.87966 -4.08795,-2.27152 -5.49111,-4.1756 -1.40317,-1.90406 -2.10476,-4.28692 -2.10476,-7.1486 z m 9.44013,0.0334 c -1e-5,2.47197 0.57307,4.24798 1.71922,5.32806 1.14615,1.0801 2.70561,1.62013 4.67839,1.62013 2.02832,0 3.5982,-0.52889 4.70965,-1.58673 1.11138,-1.0578 1.66709,-2.95631 1.66712,-5.69551 -3e-5,-2.30491 -0.58005,-3.98906 -1.74006,-5.05246 -1.16007,-1.06336 -2.73342,-1.59506 -4.72008,-1.59508 -1.9033,2e-5 -3.43151,0.54005 -4.5846,1.62013 -1.1531,1.0801 -1.72965,2.86726 -1.72964,5.36146 z" />
    <path
       inkscape:connector-curvature="0"
       id="path3811-0-0"
       style="font-size:39.11067581px;font-style:normal;font-variant:normal;font-weight:normal;font-stretch:normal;line-height:125%;letter-spacing:0px;word-spacing:0px;fill:#ffffff;fill-opacity:1;stroke:#000000;stroke-width:0.97692996;display:inline;font-family:Arial Black;-inkscape-font-specification:Arial Black"
       d="m -108.97083,507.09993 8.981651,-0.45096 c 0.194489,1.16918 0.590427,2.05997 1.187835,2.67238 0.972473,0.99101 2.361746,1.48651 4.167822,1.48651 1.347577,0 2.38606,-0.25331 3.115447,-0.75996 0.729347,-0.50663 1.09403,-1.09399 1.09405,-1.76209 -2e-5,-0.63469 -0.347341,-1.20257 -1.041953,-1.70365 -0.694662,-0.50106 -2.306218,-0.9743 -4.834679,-1.4197 -4.140053,-0.74603 -7.092253,-1.73703 -8.856613,-2.97302 -1.77829,-1.23595 -2.66742,-2.81156 -2.66742,-4.72677 0,-1.25822 0.45499,-2.44688 1.36496,-3.56597 0.90998,-1.11903 2.27841,-1.99869 4.10531,-2.63896 1.82689,-0.64024 4.33105,-0.96037 7.512507,-0.96039 3.903843,2e-5 6.88036,0.58182 8.929561,1.7454 2.04915,1.16362 3.268239,3.01479 3.657266,5.55353 l -8.898306,0.41757 c -0.236194,-1.10235 -0.732857,-1.90405 -1.489998,-2.40514 -0.757172,-0.50106 -1.802595,-0.75159 -3.136291,-0.75161 -1.097531,2e-5 -1.924152,0.18652 -2.479854,0.55953 -0.555721,0.37303 -0.833572,0.82679 -0.833562,1.36124 -1e-5,0.38975 0.229224,0.74049 0.687691,1.05225 0.444555,0.32293 1.5004,0.62357 3.167545,0.90193 4.126125,0.71265 7.081809,1.43363 8.867051,2.16296 1.785182,0.72934 3.084153,1.63406 3.896912,2.71413 0.812699,1.0801 1.219059,2.28824 1.219089,3.62442 -3e-5,1.57002 -0.541849,3.01756 -1.625448,4.34261 -1.08367,1.32507 -2.597972,2.32999 -4.542937,3.01479 -1.945006,0.6848 -4.397066,1.02718 -7.3562,1.02718 -5.195902,0 -8.794116,-0.8017 -10.794666,-2.40513 -2.00056,-1.60343 -3.13281,-3.64112 -3.39677,-6.11308 z" />
    <path
       inkscape:connector-curvature="0"
       id="path3805-1-1-9"
       style="font-size:39.11067581px;font-style:normal;font-variant:normal;font-weight:normal;font-stretch:normal;line-height:125%;letter-spacing:0px;word-spacing:0px;fill:#ffffff;fill-opacity:1;stroke:#000000;stroke-width:0.98315883;display:inline;font-family:Arial Black;-inkscape-font-specification:Arial Black"
       d="m -79.947359,515.58997 0,-24.79892"
       sodipodi:nodetypes="cc" />
    <path
       style="font-size:39.11067581px;font-style:normal;font-variant:normal;font-weight:normal;font-stretch:normal;line-height:125%;letter-spacing:0px;word-spacing:0px;fill:#ffffff;stroke:#000000;stroke-width:0.70999998;stroke-miterlimit:4;stroke-dasharray:none;display:inline;font-family:Arial Black;-inkscape-font-specification:Arial Black"
       d="m -39.8352,497.29376 3.625,8.8125 -7.2187,0 z"
       id="path3026"
       inkscape:connector-curvature="0" />
    <path
       style="font-size:39.11067581px;font-style:normal;font-variant:normal;font-weight:normal;font-stretch:normal;line-height:125%;letter-spacing:0px;word-spacing:0px;fill:#ffffff;stroke:#000000;stroke-width:0.70999998;stroke-miterlimit:4;stroke-dasharray:none;display:inline;font-family:Arial Black;-inkscape-font-specification:Arial Black"
       d="m 12.6024,496.16876 15.375,0 0,3.90625 -15.375,0 z"
       id="path3024"
       inkscape:connector-curvature="0" />
    <path
       style="font-size:39.11067581px;font-style:normal;font-variant:normal;font-weight:normal;font-stretch:normal;line-height:125%;letter-spacing:0px;word-spacing:0px;fill:#ffffff;stroke:#000000;stroke-width:0.70999998;stroke-miterlimit:4;stroke-dasharray:none;display:inline;font-family:Arial Black;-inkscape-font-specification:Arial Black"
       d="m 12.6024,505.07501 15.375,0 0,4.84375 -15.375,0 z"
       id="path3028"
       inkscape:connector-curvature="0" />
    <path
       style="font-size:39.11067581px;font-style:normal;font-variant:normal;font-weight:normal;font-stretch:normal;line-height:125%;letter-spacing:0px;word-spacing:0px;fill:#ffffff;stroke:#000000;stroke-width:0.70999998;stroke-miterlimit:4;stroke-dasharray:none;display:inline;font-family:Arial Black;-inkscape-font-specification:Arial Black"
       d="m 38.1648,495.88751 4.4688,0 c 1.8529,10e-6 3.1089,0.20093 3.7812,0.625 0.6731,0.42414 1.0313,1.05135 1.0313,1.84375 0,0.53571 -0.2303,0.99332 -0.6563,1.40625 -0.4257,0.41294 -0.9521,0.68083 -1.625,0.78125 -1.3297,0.22323 -2.2555,0.34377 -2.7187,0.34375 l -4.2813,0 z"
       id="path3020"
       inkscape:connector-curvature="0" />
    <path
       style="font-size:39.11067581px;font-style:normal;font-variant:normal;font-weight:normal;font-stretch:normal;line-height:125%;letter-spacing:0px;word-spacing:0px;fill:#ffffff;stroke:#000000;stroke-width:0.70999998;stroke-miterlimit:4;stroke-dasharray:none;display:inline;font-family:Arial Black;-inkscape-font-specification:Arial Black"
       d="m 82.2898,495.82501 c 2.1373,2e-5 3.8148,0.52794 5.0626,1.59375 1.2474,1.06586 1.8747,2.75228 1.875,5.0625 0,2.74552 -0.5858,4.65851 -1.7813,5.71875 -1.1955,1.06027 -2.8808,1.59376 -5.0625,1.59375 -2.122,10e-6 -3.8297,-0.54242 -5.0625,-1.625 -1.2329,-1.08256 -1.8438,-2.86608 -1.8437,-5.34375 0,-2.49999 0.6343,-4.29241 1.875,-5.375 1.24,-1.08256 2.8901,-1.62498 4.9374,-1.625 z"
       id="path3018"
       inkscape:connector-curvature="0" />
    <path
       style="font-size:39.11067581px;font-style:normal;font-variant:normal;font-weight:normal;font-stretch:normal;line-height:125%;letter-spacing:0px;word-spacing:0px;fill:#ffffff;stroke:#000000;stroke-width:0.70999998;stroke-miterlimit:4;stroke-dasharray:none;display:inline;font-family:Arial Black;-inkscape-font-specification:Arial Black"
       d="m 107.8524,495.88751 4.4687,0 c 1.853,10e-6 3.1087,0.20093 3.7813,0.625 0.6721,0.42414 0.9997,1.05135 1,1.84375 0,0.53571 -0.1993,0.99332 -0.625,1.40625 -0.4263,0.41294 -0.9839,0.68083 -1.6563,0.78125 -1.33,0.22323 -2.2242,0.34377 -2.6875,0.34375 l -4.2812,0 z"
       id="path3022"
       inkscape:connector-curvature="0" />
  </g>
</svg>
